<mxfile host="65bd71144e">
    <diagram id="DSKujXKeD6uoOkMUbGKy" name="Page-1">
        <mxGraphModel dx="1302" dy="1659" grid="1" gridSize="10" guides="1" tooltips="1" connect="1" arrows="1" fold="1" page="1" pageScale="1" pageWidth="827" pageHeight="1169" math="0" shadow="0">
            <root>
                <mxCell id="0"/>
                <mxCell id="1" parent="0"/>
                <mxCell id="5" value="" style="shape=image;verticalLabelPosition=bottom;labelBackgroundColor=default;verticalAlign=top;aspect=fixed;imageAspect=0;image=data:image/png,iVBORw0KGgoAAAANSUhEUgAAAgAAAAIzCAYAAAB2lqH5AAAABHNCSVQICAgIfAhkiAAAIABJREFUeJzsvXmYXFWZ+P8599beVb3vnc6+EFZRBlGQRZaAgOM6jiOiojjqOIs6Pt+vzujXmfnN6IzbMKLiKEJAQFkDgSRsCVsCMQvIErKQhGzd6e70VnvdW/ee3x/V99IdAulauruq+3yep59uSNdb77nV977vec+7CBQThmXLqlQqFZ9qPRQKhUIx8QSDwZd1TZwy1XqMF22qFVAoFAqFQjH5KAdAoVAoFIoZiHIAFAqFQqGYgSgHQKFQKBSKGYhyABQKhUKhmIEoB0ChUCgUihmIcgAUCoVCoZiBKAdAoVAoFIoZiGeqFVAoFFOPEAIAKeWY/54qjtbD+W+FQlE6lAOgUMxwhBAMDQ4yMDDAgoULkVKSiMfp7+9HaJPrCEggGAjS0NCApmn09/eTSadpa2+fVD0UipmAcgAUCgW2lHR1HaJz9mz8/gBdXYcwDGPyIwFSkk6lqKmpwefz0XO4m7r6eoQQKgqgUJQY5QAoFApCoSCBQIB4PIaUNoZpomlTkCIkBFnTJJFIIAQMDw/T3tEx+XooFDMA5QAoFDMcKSUejxevz8eunTvRNA0p5dQ4ACP67H5tFwAejwddV48phWIiUHeWQqFACOGG2W3bBsCyrCnVKeeYqEeUQjFRqLtLoVC8JaNzACbqDP7oPAO3AmBC3k2hUDgoB0BRNggh3njoV0K+V6VZqOMk9GlCcyMBQggsyyIej7s78WAw6B4PlE4lQTqdJpPJABAIBPD7/bn3GNFD00TJ31cxPqSU6rpPY5QDoJgyBDkDoAsNS0qGUnHSwoYpOnvOCwFYNlITk+esCMCWkOd7CgHSzCJjqWO+TgiwbJsjR/pIpVKuA9Df388vfvELurq6OP/887nyyisJhUIlNQiapvHHP/6Rm266CSklX/nKVzjttNPc4wdN16k5fJhYLK4M0SSj6xp+f4Camho8Hg+2bWPbtvocphGVtoepKCxbVqVSqfhU61FuCAS6pmFkTfYlh9ge7eZArJeDVoKhCnAAhCaQw0myL7yOdt7SnFGeaHQN2R9HHhlGW9w+/vcUgCXJPvkK2U2vHfOOF+T8gujwsGt4hRBkMhl27dqFZVlUV1fT2dmJx+MpuQPQ29tLV1cXUkpmz55NQ0ODm4cghCASieDxelB2Z/IQgNfnpba2jo6ODjraO1i0eBELFiykuroa0zSVI3AMgsHgy7omTplqPcaLigAoJhVNCJJZgxd7DvBPh56lXzMZlBYSCCPK/g9SaBrWcJz+m1ZD9wDN7/4SZCc4WU4TWIcH6frGz6m79grCs/3je08hwJYM3/UE/f9zNwIBHv0tflUQDAQQo5wvXdfx+/0IIRgeHqa3t9c1zKVCCIHP50PXdYQQ7N27lx07doz5nXQ6PeUJiTMOKcke45oL4Jbf3cZFF11IJFKt+jNUOOX+vFVMEwTg0XQ29uzhviOv8tPUQRZrOj4ErUKvjFCUpiHjKWK3Pk7wznUELjuHkNCQYgIfgJqG1XWE+PJHqNvbTcTjJcg43lMIMLKkHt+K/j9309Laljs6KFgNjWAwWPDrx4vX68Xr9Y75f1VVVRP+voq3x6kOyWQyfPqqT/GhD32Iz37uGi655BL33xWVh3IAFBOOk9r3ZPcu/v7gk8Q0ySmapzKMvoOmIWNJ4vc+Teb2DYiqhok/QNM15GCC2C9WYj7+CoLq8b1O5IL6qce3kvj5KkRL69sa/1QqxeDgIJAztpFIZMp6ADhIKUmlUgwNDQEQDoeJRCJTPqNgpiKEQNd1QqEQwWCQFStWsGLFCm66+Wb+/M8/RCAQKHl0SDHxKAdAMaEIBFlpsbL7Ja46/EeW6h7qK20IpSaQ0QTRmx/BuONhRFsbMm5M7HsKgdXVz/C/3Yb1/AFEWwS6E+N6HVmLxH3rSfz0DrSWVtDf+nrH43He8573cNZZZxGJRNi0aRObNm0imUxOaSOgTCbDmWeeyfnnn4+u62zevJkNGzZg27ZyAqYYIQTt7e1ks1k+99nP8n/+77f4+te/TiQSUU5AhaEcAMWE4tE0HjzwEl/v3cpJmocKCfa/gaYhk2niv1+XM/6TMZRG17C6+on/djX2qz2I9gjjyoATAswsqcefJ/XTVWjHCfsbhsHSpUu5+OKLWbhwIZqmUVdXhxCCxx9/3K0GmGxSqRRnnXUWl1xyCfPnz0fTNOrr67Ftm7Vr107KUYTi+Hg8Htra2vjPH3yf5uYmvvjFv1blmhWGcgAUE4YuNF4dOsx/9m6lXlCZxj+WJP6HJ0jf8gyirW1y3nMgRuwn92A+syu38x8PQoCUJFdvIvnLNdAcPO6Z/9DQEKeffjqdnZ1EIrn30XWdzs5OQqEQmUxmShyAbDbL3LlzmT17tqvXrFmz6OjocKsQVBSgPBBC0NzczDe+/nUWLVrERRddrByACqLCYrGKSkEIwWA6wW8PbaQbE18lGv94kthtj5O+8QFEc/C4jXSKRgis7n6Gfngn5jM7czv/8bzlyM4/+eBzxH9wCwR18Izv1vb7/Xi9Xrfhi6ZpVFVVEQwGp+RBLqUkEAiMzADQ3eQzTdPw+/0EAgFlYMoMj8eDx6Pz3z/9KXv37Jny/BHF+FGflGJCEAj2Jo/wu1QvDeLYpWdliyZyYf+7nyKz/KFc2H+ijb+uYfUNE/vfh7A27Ea055Hwl7VIrX2e5M9XHzfsXwm8lYFXhr98aW5uYe3atdx5111TrYoiD5QDoCg5AoFhmfx033PUiQr7I9M07GiS2M2PkP7VukkK+wusniFiP74Lc83LUB8Y3+tGnJLE/RtIfH8F+LW8jX8qlcI0zTHDgFKpFIZhTEmYXQiBYRhYloVlWa5etm2TzWan7FhCcXyam5v5l+/9P2KxmPqMKoSKejYrKgNNCF4b7uVu6whVooL+xJwz/989RubWVYi20OSE/bv6if1qJeZTOxHt4fGH/Q2T1JpNJH58O9T7wZtfpKW2tpatW7dy8OBB4vE4iUSCw4cPs2/fPoaHh6fsIa7rOrt37+bAgQPE43GSySQHDx7k4MGDU+aYKI6PM7lx7eOPqymOFYL6lBQlRxOCTfEuIsJ7/F8uFzQNGUvl6vxvfXTSsv3tgRixGx7EXLdj/Al/GmDapNa+QOLnD+VK/QoI+/t8Pnbu3MnatWsZHBykqqqKl156ia1bt+L1eqfM0AaDQTZv3ozP5yMajaLrOq+88gobN24kEBhndEQxZTz19FNcceUH0TTVJbDcUQ6AouTYwO7UAHWVslPTNOzhOLH/fQjj3o2ItqZJeM9cwl/0R3eRXb8H0TbOnb+mgS1J3PcMyZ/ch2iufds6/+MRDod59tlnefbZZ90JgH6/H12furwNIQR+v58NGzawYcMGAGzbJhAIqASzMiccDvPaa69x4MB+5s6dqxyAMkc5AIqSI6VkMB3DWwkOgK4hhxLEb30M494nEW2tE9/hz2nve8ujZNfvzYX9x0OVDxlPkXr8eZI/uQNRooS/0Zn15RJeF0KUpV6Kt8fv99N16BDDQ0PqM6sAlAOgmBBMLLcFcNmiacjhBPG7nyRz23pEW8vktPcdThL92QqyT+5CtI2zz70QUOMjvWYz9kDsuO1986VcH9blqpfi2Oi6Tn9/P+lMeqpVUYwD5QAoSopAkDYNDA2ERfkOnHba+153H8aqjYi2xolP+NME1qF+oj/4PdlNr+fq/PPE2n04Z/iLCPsrFBOFEIJEMkF2oidkKkqCcgAUpUWAKW2yyAm3pwWjj+z871iLsWoDor11Ut7T6uonfusjWC8cLMj4A3ln+heLlBLTNEmn0/h8Pnc8cKlle71e/H6/OuOfDqhxABWDcgAUE0K52n40DTkYJ/6HdaSXP5ML+0/4e+aiDbEf3Y25YXcu4a8CcLrwLV68mI6ODgYHB9m2bZvbma9Y2YZhsGTJEtrb2xkeHmb79u0YhjGlCYiKElC2N7/iaJQDoJg5aAIZSxL75UoyD2yYvLB/9wDR6+4lu+G1wnf+U4BhGFx88cWcc845NDU1kUgk2LBhA7fccguNjY1FyU4kEpx33nlceumlNDQ0kEwmef7551m5ciXpdFpFAhSKSUA5AIqZwUiTn8SdT5B54MnJq/PvGST229VYz+4df51/GWDbNpFIhNbWVubMmUNVVRUNDQ309vbS1tZGJpMpykhHo1HOOOMMOjo6qK6uxjRNhoeHmT17Ntu2bcPn85VwNQqF4lgoB0Ax/dE15GCM2K2Pkbn92Ulr72sfiRK97l7Mta8i2qorLjRq2za2bbuDgpwjAcMwSiLfked8d35WKBSTg3IAFNMbTSCjSWK3Pkrm9sdGSv0mJ+wf+98Hc8Z/vIN9yghN00gkEhw4cIBt27Yxf/58enp6ePnllxkcHKS+vr4o+fX19TzxxBMEg0HmzJnD4OAgL774Inv37sXrraAOkgpFBaMcAMX0RdOQyTSJe54mc/vayWnyo2vYA3Giv3gA6+lduZ1/heLz+Vi/fj19fX1UV1djGAbbt2+nrq6uaNl+v59t27aRyWSoq6sjnU6zZ88eTNNUSYAKxSShHADF9GTkzD/68wcw7n8u1953wjv8CazDA8T++z6yT1Rm2H80Qgh0XWf79u1ks1k0TStZGaAje9euXa5sn8+njL9CMYkoB0Ax/dA0ZDRB/M4nMO5/AtHWPjntfbv7iS9/GPOJygz7HwshBD6fD5/XCxKwbLBl7udiZWsCn8ebk42oaGdJoahElAOgmF5oAplIk1jxDOkbH50c469ryGiS6E/uxvrjvooO+4/BspF9abBjgIUAtOZOREsVwqcX5wRIsAcS2Ae6kBjkPqQqREMV+FUUQKGYDJQDoJg+aAIZTxP94V0Yjzw7CWf+AoTAOnSE2E/vJftMZdX5vx1yII2oDRL4zDn4Tp2PZ3YLemsdwuelJNt/AARYNtZAFGtfL5ldBzGeeBFr6z5Ea6Sksw4UCsWbUQ6AYnqga8ihOPF7ns4Z//ZJKPXze7AODxK/9VHMp3dND+NvS+Thw3gvey+hj56Db+EsRNCHtHOhf2mYJX9LrTaMVh/B+44FZN+9lNQjm8nc+Ag01oBPRQMUiolCOQCKykcbGel791OkfzOS7T/BCK8Ohkn0+vsw1+6omPa+b4tlQ0+C0Dc/SejiMxCREEiJnOjBLlKClYsqeGY3E776YnynzCX+4xXIWBJCqimQQjERKAdAUdloAplME/3vezHWbBzJ9p+E0HHAg7F1D6RMRHNw4t9vopES2XOYyPe/ROCcU8CjgX2MqS6aoGQJe3IkmXB08x/bRng9+M86Ce3fIkS/cysylVGRAIViAlAOgKJyGZnql7j3aYw16yenve9oBBCaHk1rZHcvwb/5GIH3nQKalsv0dxACoWu58/rDg9ixVC4qUKgTIAEBek0VWn01IuRHWtYb7yklWBbeEzqp+rsriX/zVmgJqRHICkWJUQ6AojLRNeRAjNgda8nc+vTktPedpsiBNL6PnEfoirNyRna08dc07IEomedeJf3Ui9iHB5EpM3dcUEwYQICo8iGqg/jOWELw4nehN9fmnA8nImDbBN5zItY/fZjkv69AtIUmJ7qjUMwQlAOgqDycqX43P0zmzicmL+w/HbFsRH2Q4MXvRKutGmv8pcR87RCxH96N9eKriJrGXCi+RNn5ciCL7IuT2rSbzO/WE/rWhwi896RcpYFzPKBrBN9zEpnTN2HvPwJ+9chSKEqFiqkpKgtNQ8bTJO5+msydzyDampXxLwIZM/CeuRDfSXPHVvfpGtkDfUT/9Tas13pyxytVPvDquShBKb68GgQ8iPZ6pE+S+O7dpB/dgvCNMvK2RG+sxv++U5D90cm+PArFtEY5AIrKYaTUL/bLB0j9ahWirU51jyuW5BCB956M8HvfCL0LgRxOMvzJf0f2RhG1gTd+35ZgWsdOEBwvjgxrlAy/Bxq8xP59Ocaf9uaOAkaQUhL8wJ/lPmpbTQtUKEqFcgAUlYEmcqV+f1hH5t6nEW0NaudfLFICNp4F7bk6/xGErpHZvAMbM7frd349bSL6TfSWOkRcIhMFjAXO2tCXQW+uQeheZG/qjX/TNYRWQ2rd1lzmv/P5ShABH95l70QmS9+HQKGYqagDNUX540z1W/EM6ZufnJzBPjMBmbuMWn3kjfC/EMhUhszzOyHwxshfmTbRayJErr8avSaENLJE/+12sq8dRoTHWadv2dAbp/p//wZPRwMybZC8fwPpW9Yi2nPvJer8WLu7sfuj6LMaR/SSCE1DX9AGD78M430/hULxtqgIgKK80TRkPEn0h3eSuuE+RFtE7fxLhWnheecpCI+G6wEIQfbwANaeHkR4pMTRstE8Pqq/fzW+BW1o9RE87Q1U/9Nfonm8Y0P5b4UE2TNA9fVfxH/6ArT6CHpHI+G/ej++D78bopnc7/l0rGf3YA3Fx0QA0AR6YzVQxNGDQqEYg3IAFOWLNlLnf8/TGGueyyWiKeNfMqQlETXHaGJkWLlSP+fpYEm0ztwcALclsGWjhYN43jkXjPF0CpQIPOhzWnI9BGyZcyxqw+gL2pFxY9RvZpDyzYZeenRKN4dAoVAoB0BRnmgCmUgRX/EMqRseRrS1TLVG0w6hC2Qs/eZ/8OqIoPeNzbYusHujyLSBEJrbGMhKZshu2jvOLn0CSRJ7IIrQcjLQNexoEutQPwRGog0SBMHc7xyNNcEtiRWKGYZyABTlhyaQaZPhH95F+ob7EG01auc/EXh1rM27kaOb+kgbT3sD2vxWZHwk4U7XkENJ4jeuwdjdhYynyB7sI/7LldiZzPg69AkQTS1Ev3EzmZf3ImNJrK5+4nc9gXHHM4i6kUqDrI32rk60cGjsZt+WyOEk6pGlUJQOlQSoKC80DRlNkFj5LObDGya/ve9MQoBNAnsght5WP9KXH0TQh++E2Zh3rwNGOixGfJjrdxJ9vQ/vWYvIPr8Ha1cfoik0/vfz6siMSfQ7t+E9ewn2oX6yG3Yi2mrf8D+GMugXtqE31owtS7RtrP1906b1skJRDih3WlE+jBj/+N1Pkrp+pWrvO9GI3GCf7J7uMSF3mbUJvvcktNoWGFXqJ+qDyFiSzL2bsPui+Rl/B78HLBNj1fNYOw4h2mveqOiwbcgOETz/NEQ4MGZIkMxkMe59GlHtL3CxCoXiaJQDoCgPnKl+v1lF+tcPINrqVdh/MvDVktm0fexwHykRdREi378K0Vw9xgnAo+XC9d4ipvPpGqLGP7atr2UjD/cQ+sZf4X/X4rGVBbpG5okXkMiStSFWKBTKAVCUA5qGjKdI3P0Uxl3PIdpUtv9kIWr9mH/chbnjwJjue0gb38nziPzDhxGmhuzqR8YMyGRzzXxK8WVYkDSRXXFkz2FC//cqQh84M+eMOIw0gEo/uhVRX//mBSgUioJROQCKqWWk1C92yyNkbn9spLf/VCs1g/Bo2AejpNZswtPRiKgO5Ur0Rmrvfe9aRP393yJxz9Nk9/dgH4nmkvGydnFOmgRRHUDUh9Gbaqj687PxzG/LJSS6Z/9A1ib55AtYmw9AWwFHDgqF4i1RDoBi6hiZ6he/Yy2Z2x9FtLUq4z8FiMYAmTufQZ/bQtWHzsl9Bs7xu2UjqgKEr74YOZzAjiWxU0buvL7Qz0oCCLSAF1EVzE0h9HrG7vwBNA1jy07SNzwKzUEVFVIoSoxyABRTg6YhEykS9zxFevkzuTp/9XyfGoRAtNaR/K878LTU4z/7pJEowIgXMPJd1FSh11ahI0rzWUlHthw7XEiA0HXMXYeI/+IBpMyCR2X/KxSlRuUAKCafkWz/6PX3k/rVCkRbSO3uphpNIFqaiX7jFyTufQYZS+bq+0d/LFLmHAPbziXpFftlj4T7R9f7axqYFunntjH8zRuxDg1BUBl/hWIiUBEAxeSiiVyp3z1PYax4WtX5lxO6hmhtJvVf92Ed6CN05Vl4OptzGf+jIwKlRgAiN4/A7hsiue550v/zGNR6xj9oSKFQ5I1yABSThyaQ8TTxu54k/Zsncwl/ivJCE9BWTeYPG8m+tBfPklkEL/0zvEtnj/qlUkZrchEAq+cIqTWbMV55HWvDdkRL7fg6DCoUioJRDoBictA0ZCJN7Pr7ydz/RK7Jjwr7lydCIFpD2D3DZHb1kb5nLRoevMvejdZah/B7j92rf9zyQUoJRhZ7KEF24y6yh/YjiCDqg+5oYIVCMbEoB0Ax8YyE/RP3rydz/3oV9q8UvDqiIYggCLbEeHYHJEf6AJRiKp+mQUBHVHnR1N+EQjHpKAdAMbFoAhlLEf/DOtK/XYdoa5xqjRSFoIncebw6k1copg3KAVBMGEITyGSG2G9Xk/n9oyrsr1AoFGWEcgAUE4MmsIdTJFZsIPP755TxVygUijJDOQCK0iNAxtMM3f4YnpvXjHT4U8ZfoVAoyglVZ6MoOQIw7/sjQzevRrSrnb9CoVCUIyoCoCg5XinQ9w+AV/15lRIpJYlEglgsBoCu6zQ0NKDrhY3mlVISi8VIJBKuvKamJkQRDtuRI0cwTRMAr9dLQ0NDwfKklMTjceLxOAA+n4/a2tqi1jtaHkBLSwtaMSWNCkUFo57QipIjhEDoWkkqxRQ5pJRomsbFF19MY2MjUkosy2Lr1q0cOnQIjye/W9mRd8UVV1BTU4OUEtu2Wb16NbZtF2S0+/r6+PSnP+3qYhgG69atwzCMvOU5+ixbtoyGhgaklGQyGZ5//nl6enrydgKklAghuPTSS6mvr0dKia7rPPLIIyQSCeUEKGYkygFQTAjK9pcW27YJBoMsW7aMJUuWYNs2hmEQj8fZsWMHtbW1ecvz+XxcfvnldHZ2IqUkm83y+OOPk0gk8nYoAEzT5GMf+xjBYBCAeDzOH//4R5LJJF5vfv38HQfg0ksvZeHChUgpGR4eZnh4mL179xKJRPKS56z30ksvZcGCBdi2jdfr5fnnn2dwcJBAIJCXPIViOqAcAIWiQnB2saO/IGfcCsHZ6TtyhBAFy3LQNM2Vp2laruNfgViWhRDClSOEKEqe81pnzcXqp1BUOirupVBUCFLKkhqso419KeSPfr2ziy+FPEe3UjgACoUih3IAFIoKQEqJ1+tF0zQMw8AwDLLZbMG7WNu2qa2txbZtTNPEMAyklASDwYLkOa/JZrOYpolpmliWRUtLC5ZlFSTP6/Xi8/kwDAPTNPF4PEQiETKZTEHywuEwgKufYRj4/f6inRSFolJRRwAKRQUgpcTn8zFr1izmz5/vGu66urqCDKJt2/j9fjo7O5kzZ457HODxeAoyiI4DMHfuXEKhEJDLAaiursYwjLzP2KWUeDwe5s6dS0dHB1JKDMOgsbERwzDy1m/0ep3r5/P5qKqqcqsWFIqZhnIAFIoKwAl/a5rmZqyXInPdObN3ZBUbZj9WDkCh8hynZHQOQLEcS546GlDMVNQRgEKhKEuONvilcAAUCsUbqAiAQlEBOMYvm82SzWaxbdv9XihOLwHLssbU/hdiaEfr55z5O/oVE6kYrV+p1uvIsSzLjaooFDMR5QAoFBWAEIJMJkNvby81NTVuDkA0GsXny39Er67rRKNRent73UQ427ZJp9NFGcTe3l63D0AikaC3t7cg/YQQmKbJwYMH8Xq9bhe/3t7egmr2NU1z9YlEIm4fgFgsVlDPA4ViOqD+8hWKCkAIgWVZbva/4wBYllWQwXYcCtM0x0QUstls0RGAbDYL5LLt4/F4wfo5Dkk2m0VKSTqdJpVK5d1UyJF39HqFEG4lxbRGSmRfCkY+l3wRNQGoyt+JU5Q/ygFQKCqEo5sAFXsmfnQToFLJHC2vGON6tE7F6nf0EceMyCmQQNYm8LlzEdUhsPNIeBSArmPt68Vc9zJ4p7mjNANRDoBCUSE4u2Ln7LrYM2xN09zQvyO30EE7Ds55vfNzMUbW0c9ZpyO3UJmj5TnfS+H0lDVSQswi/MGz0Toa3/xvlp37fix0DXsoQfz368C0lAMwDVEOgEJRAWiaRiqV4uabb6a6uto1iK+//jrV1dUFyTMMg1//+tfumb2UkmQyWbATUFdXx09+8hP39dlslqGhoYLO2B2n5qabbiISiSClxDRN9u3b5/YZyAdd1zFNk5tuuolwOOwOAzp48GBBOQoVhQbStMhs2o6x9TWQEqFp6HNb8L/nRITX82YnQNOQ8QTR6+/HWLEF0VY1NborJhTlACgUFYDTB3/Xrl1u4xohBIFAoOAzdikl27Ztc8/shRAEg8GCd8TBYJCtW7e6O3VN0wgEAkXt2Hfu3OmuV9d1fD5fwREPIcQYeQChUGh6RwAAdA1sG3PfYdK/Wo3vcxdidw2QvOFe+PFXCbz35LEOgKYhY0mG//MPmI+/gGhryB0HKKYdygFQKCoEIQQ+n69kO1YhBH6/H7/fXxJ5gBtNKBWlXO9EyKsohEB/9xKqr16GPRin/+EtWIkUY2Z3ahoymiC2/BHMp3Yq4z/NUQ6AQqFQzACEENh7ekn84Qms3iG0k+bgXzgLhAAkaAKZzBD90d0Yj76EaIso4z/NUVkdCoVCMQOQAGEf2pxmvKfPh2iG7IG+XCKgrmEPJ4j+7D6MR7ci2qtHHAPFdEY5AAqFQjETkBK9vZ7Q+e+g6vL3oM2qx3hxNzJjImMp4rc+irnqRURb/VRrqpgk1BGAQlEhSClJJBLEYjEglxRXX19fcCc7KSXRaJRkMunKa2pqKiop7siRI26SndfrpaGhoWB5Tve/eDwO5M7va2trC65SOFoeQEtLy/RvBOQgIbtxP8nVG7EO9ZN99gUCH/oyAMPfWY753GsjYX+1858pKAdAoagAnLK1yy67jKamJrcPwObNm9m/f3/eToAj78Mf/jA1NTVAbvregw8+WHA3wN7eXq655hq3U59hGDz22GOkUqm8jawzRfCKK66goaHB7QS4ZcsWuru783YCnH4JjjzbtvF4PKxatao8EzqoAAAgAElEQVTgboUVg5U73/d2NiM//z6y3QOgCcL/3xfxzW8nfuNqzOd2INrrplpTxSSjHACFogKwbZtAIMB5553H4sWLsW0bwzDo7+/n1VdfdY14PvK8Xi8XXnghnZ2dbivgNWvWkMlkCooqZLNZrrjiCrcSIB6Ps379+oIMrOPgnHfeeSxcuBApJcPDw/T19bFnzx7C4XBe8hyDf/7557NgwQJ3/Rs3bmRwcLCklRBlR9YGIfCdMg/vCbMBEJrATmZI3Poo6bs3Idpqp1hJxVSgHACFooLwer34fL4xtfbO9L18kVKOked0yiuG0WV2Pp8P+VZd5saBY6QdOV6v1+1fUAhSSjwej7teJ1JRjI4VgbM8XUdoGgiQiTSxH96JsfZFRFudCvvPUJQDoFBUCE5Y/OivYuXZtl0SeY5MZ9DO6Pa9xehX6vUeveaZgwQh3Dp/Y+32XMKfsv0zlml88KVQTB+c3WsgEHB32X6/H5/PV1AEQEpJKBRyGwH5fD4CgYA7ercQecAYvfx+P3V1dQXrp+s6VVVV7nqrqqoIh8NkMpmC5AUCAff6jdax2KhHpSBGOvzFblhJ5vcbc+19lfGf0agIgEJRAdi2jd/vp62tjfb2dncccE1NzZjWtuPFsiwikQitra2uPKe18ODgYN4jdx0HoK2tze3VH4/HaWxs5KWXXiIQCOQtz+v1Mnv2bFc/wzBobm7GMIy8ZEHu+oXD4THr9fl8RCIRDMMoaL5AxSAAIbCjSWLXryDzwMaRnb+y/jMd5QAoFBXCscL1pToCGB22LwZH1mj5xcpy1ux8L5Sj11usvEpBNASQwwni9z5NZtVLyvgrXJQDoChbjvVwzrc87a0e8JU6AGYi9HZG4pZCdinH6zpyHMeklHKnwxjgcd0fQiB1iP76IbKb9yGaAmOM/3S7PxT5oRwARdkhpaS7u/uY/+bxeGhubh6XHNM06evrO+a/NTQ0VFTpl/NATqfTJJNJt2zPmeRXjLxEIjHGwBbz8E8mk66sVCrl1t8XquNo/QzDKHi9Ds71sywL0zSxbbvgxkJTxdvdH1VVVWNLQgVgSaztXYi6wJgz/2QyydDQ0DHlNDU15X0MpKg8lAOgKCuch9vtt99OW1vbmB2Kruv8+te/5o477qClpeVt5ZimSVtbG9ddd90YOUIIent7+Y//+A8OHjxYMU6Apmmk02l6e3upqalxcwBisVhBa9A0jaGhIfr6+ggEAm5IPJ1OFzxeGHKdAJ0+AIlEgsOHDxc0fU/TNAzD4NChQ24ZYDwep7e3t6CJg7quE4vFOHLkCNXV1W4ZYCwWK7iT4lTR3d3NnXfe6TaEctB1nR/96EesXbv2zU6Ab6yTk0wmOeOMM/j7v/97qqqq3vhVITh06BD/+I//SDabrbhro8gP9ekqygrDMHjnO9/JCSecQHNz85gMbV3Xueqqq/jd7353XDmxWIxzzz2XCy64YEySnBCC2bNn89GPfpTvfve7tLe3T8g6JoLR5+ujy+wK2bELId6UTGfbNpZlFSzvaKSUJJPJgiMATpTDIZvNFtykCHJ/W0dn/Be63qkiHo+zbNkyli5dSl1d3Zj1eL1eLrroIlauXHncxlBDQ0OceOKJnH766WNyNYQQzJ8/n2984xt885vfrKj7Q5E/ygFQlBWDgwP09/fz2GOPvekBp2ka+/btA6Crq+u4statW8fq1avf5ABYlsWf/vQnALcBTiUw+uy6FGfio19fyhyAUsk8+qy+FPKO9b1ScGY3vPDCCzz66KOEw+ExEQCPx8Nzzz0HjO/+2LRpE6tXr36TUySEYNOmTUCB98f0z6ucNigHQDEhiDwLjJ3Q/6WXXsbf/u1XiUQiY7LJHRYvXsyyZcvGLffoM2PHiJx44om0tbVx/fXX09LSUhHnwKN3/aN3bYU6MJqmvak5TrHO0OjM+mLlOfqNXm8xToDzutFVBZWSDOjcHx/5yEf4whe+QDgcPub98eUvf5mvfOUr45Z5dI8G53osXrwYn8/H7373O1pbW/P7HCvDn1ag2kBMKJYtq1KpVPz4vzl9EEJgmibXXPM5Vt5/P03jTNjr6uria1/7Gn/3d3/nnv9ms1n8fr9rCIrTC0C4YeBAIIDH4+GJJ57gqquuyv8hNwU4tfGWZbmNchwHpxAj5shwDImu6wW3FYZcON3r9Y6RN7rEMF+cWn1njY5+hUY/nGZKjk4ej6eo6zeZdHV18Z3vfIdrr732jYRIyyLg95ekfNNZv9NkybnvVq1axZe+9CXa2trGdY0syyKZSHLvihWcc845Rf09VSLBYPBlXROnTLUe40VFABRTjvPwuuSSS9A0jQMHD7J+/XqGozFmd3Zy/nnnlqSv/LZtr/Knl17CNE1OWLKEM8/8M+bNnctZ7343O3ftyrtZzWQjhCCTybjXIZvNout6UTti0zTHyCsm6UvX9THyLMtC07SC9dM0bcx6i5Xn5D2MllfM9ZssHH0vvvgSLMvitd272bRpM8lkknnz5vK+c87B4/EUfH8IwLQsXnzpJV5+5RWQcNJJJ/Kud76TJUuWcNJJJ9HT0zP+ZM7yvpyKUSgHQDHljE5Aisfj3PCrX/P8Sy/j83qIxhN4PB4uvujCgkvANE2jv7+f//nlDfT19aFpOiseXMVP/vP7VEfC1NXXY5pm2TsAQMmPKpS88ueN+yOXBHjjzct56ZVXR+6PJN/z+3nf2WcXvNsWmsbru/fwHz/8cU6GhPseeojbfnsjmqYRiUTesuxQUdmUd8xTMeNIp9Pc9tAj1FZHqAqFqKup5un1G9DeYpcmxPgau6RSKV4/cJBIOEy4KkQqnaK//0gufDpRi1EoSoxpmmz44xb3/giHguzc9dpbHl+Nvjfe6v7QhKCr+zCpVJpIVRWRcBVdPUfoPtxTkuM3RfmiHABFWREMBvnsh69gKBrN1YH39HLuOWdjj3oICSHQNC13nmtJhoaH6e/vJ5PJoOv6McO6gUCQ1qYmkqkU6UyGRNqgqbFJPdwUFYXX6+Wsd51OLJ7AMAz+tHsfS5csHpPJL4RA1/VcjoOVZXBwiP6BAQzDwOPxvOn+sKWko70NS0IqnSaVStNQW0NLc9OMGZQ0U1FHAIqyQUpJVVUV13z2ahrq6+g7coRPffIvOfu973HDm06HucM9PTz51NO8vm+/29HN6/VSUx3hvHPfx4L586mrqwNy5/+NjQ38n6//A6vWPIxpmnztgvOYO3cOvb29U7lkhWLc2LZNJBLhC5/7LA+tXs1wNMpff+EaznjXu8b0h0gmk3R1d/P4uifo6urCNLNIwOvx0NBQzwXnncuc2bOpra11EyLnz5/HD/7lu6xeswYhBBde+H4ikQgDAwNTu2jFhKIcAEXZIMk95GZ1dPDX136BTMYgFMp1fXNaynZ1d7P64YfZuGkr0ehwLkTp7lIEQhO8uO1V5s2ew1987MMsXrTITZA69dRTWLx4EbYtR7rJyYoK/0spicVixOO5whJN02hsbCw4cU9KydDQEKlUCsgZj9bW1qKS4np6elxnzePx0NjYWHB1hVP3nkgkXHkNDQ0Fn+MfLQ+oiOqP0UgpWbx4EXPnzsEwTaqCQSRv3B/79u1n9SOPsHnr8yTiCYQYXSYo2L1nL3968WUWLpjPJz72UebNm+uG+U9/x2mcsGQJmpabCqmiY9Mf5QAoyg6nfjwUCroPIV3X2H/gIPfcu4JNW7cC4HFCmUc9wC3TZPee3fzyf3/DZz/9Kd55+um5luiW5WYy27ZVcQ9+Xdf5wAc+QGNjo1vDvXnzZg4ePJi3E+CUxH3kIx+hpqbGrbNftWoVpmkW5AT09vZyzTXXuLoYhsG6desK6gbo6HPllVdSX1+PlJJMJsOWLVs4fPhw3k6Ac/1Gy9N1nTVr1hCPxyvqb8GyLDweT+4IbFQviNde280f7r6bba9uHzkGOHbFhGEabNu+nRtvXs4nPv4xTj3lZICR8li/+x6VdE0UhaEcAEXZMro6oPtwD3fdcy8b/7gZr9fztgbK2dEMDAxww29u4gufs3jPmWdiVfD4V9u2CQaDLFu2jCVLlrgGMRaL8eqrr7rHHfnIE0Jw+eWXM3v2bKSUmKbJww8/TDqdLiiqkM1m+fjHP+726o/H4zz77LPEYrGCHIBsNsuyZctYtGiRG60YHBxkz549RCKRvOQ5df+OPOfIaMuWLQwMDFREBchoRv8da5rGoa4u/nDX3bz48ivHvz9G+ga8vm8/N91yK1/8/Oc4+aST3B4LipmDcvEUZY+Ukg0bnuWFF1867sPNIZcoqJNKJnlo9RoSyVTZ13sfD6dX/+jvxcy0d7rhWZY1Rl4xOLKcr2J7N5RSv4lY71Tj9HJYu+4Jtu/cldf9oesa/QMD3HXPClKpyr8/FPmjHADFpHHkyBG6urqIx2Ljfo0zEvbJZzZgZbN5PaRyJYKw5/V9bNq8ZdqENEe37y3GwB4tp1h5R8sFijawo/WZiPVWOk50bP2zG5Eyv46LIpcgwO49e3jl1Vfzeq1lWXR1ddHV1TUtruNMZXo8ERVlT1dXFx/+8Ef413/9N979nveMa1gJgK5pbH3+BfqOHCl4Sp1pGGzfuYN4PF6xuxynDbDTotUp8/L5fAU1gHEyyr1eL7quo2maK7+QB/obuRr6mK+mpqaC9HNyFKqqqtA0DU3TCAaDVFdXk06nC5JXVVWFz+cbo5/f76/oKICmaezYsYOh4eGCXi+EIJ6I8/rr+8Z9HTKZDD09PXz72//EV77yN3R3d1f0NZzJqBwAxYTT09PD1Z+5mm9+8/8wb948LrzwQjLpDH/60wtjZpEfEyHYv/8ASBtE4V3cosNRUqkUoVCoYBlTidMXv62tjc7OTmzbxjRNqqurx0w7zEdeMBikra2NWbNmuQbcmTXg9Xrzkue8vqOjw80BSCQS1NbWYhhG3mfsjgMwa9YsVz/DMGhoaCh4vYFAwL1+TkJoOBwuSF654EQAsqaJ11NYHoOm6fQfOUI6nSEYfPvs/2w2S8AfYPktt/DBD/456XSa9o52/vmf/om2trZCl6GYIlQEQDGhONnql176ARYuXIgQgj8780wuWXYJw+PYtZimSSKZREpnoE/+aEIQTyTIGEbFRgCg+BD48WRPlNxCZR+9q5wIHafDUUAiUVwVg65rDEWjJJOJ4/5uX18vl1y6jPe//0ICgQB1dXVceeUHOeXUUzEMo2AdFFODigAoJoV4POZmYhuGQTQazePVhU1/G43IiVG8BZXsGM10cv5L4X/cgpEEyZEpi2/nEAX8AYaHhkmn025HwVgsRnR4eNrk2MwklAOgmFCEEFRXV3PvPfcSDofp7Ozk5ZdfZvXqVTQ2Nh739bqu4/P50DRR8BhYW0pCoRAeT+UNgnEY3cvdyfwvZcKeUxZ4vJkKx2N0VYLzeRUzDXC0jsXiGLejr1+lOz+52v3C12DZNuFwGL//+BM3a2prWbNmNe84/R2cc877SKVSPLhyJfv27aO9vX3Gjf+tdJQDoJhwwuEw69c/w5o1q4lEIsRiMRobG8c1XlQIQXNTI35/gHS6sFIlj65TU1ONv4K7m2maRiKRYP/+/QSDQWzbxjAM+vv78fv9ecvzeDz09fVx8OBBNE3Dtm2y2WxBNfuOfgCHDh0a0wdg9+7dBdXYa5pGKpVi165drrEeHh5m3759x88bOQa6rtPf38/BgwcJBAJuH4CBgYHxj7ktQ6SUNNTXE4mEyWQyed8fklwOQENdHX7f8f+ONE2jurqa737nO/h8PgzDQNM0df5foSgHQDEpRCIRqqqqkFISDofzelDN7pxNQ309h3sO523AbdumKhymtaWFYCB/Q1luHKuMrdAd7OiduvNVbARgtF6jZRaCEGLMbt35KibUXMrrVw5IKZk1q4Pq6mr6+/vzd3BHHIjWlhZ8vuNHAADX4DtRIxX6r1zUJ6eYNJzytXweuLZt09HRzuzOdkKhUF7lRk7pXEdbK7M62vH5CitxKxcc4+yUxWnasVu95itvtMxijaEjoxTHCcdaa9G5ICMyR3+vZKSUtLa2Mm92Z94ljfZIpUVbawtt7fnNRHAmDirjX9moCICirJFSUl1dzbtOPx3bkry0bRvJVArtOA9up4xsducsTj5xKUuXLp0kjScGx1BFo1EGBgbcI4B0Ol1QCNsxpsPDw25kJjvSaKkYozi6rW4ymRyje77ous7w8DADAwPuIB/DMAoaBuSsy7l+TqljNputaCNm2zbNTU2cfNKJmJbFtle3k06nj7sm27bx+/3MnTOb004+kc5ZnRXtHCsKQzkAirLEMRpOCHnRokUMD0cxTIPde18nFosdMxzshHa9Xi+zZ83ihCWLOenEE93owWi5lYSmaaTTaX7xi1+4sw40TSOZTBZ0Jq5pGtlslh//+Mdj5GUymYKn7bW0tPDd7353TGg9mUwWJM/5XH/+85+7yXvOKGgnxyBfeZZl8bOf/WzMemOxWN49D8qB0X/HHo+Hk08+mVQqjWmY7N23z514eLTz5dwfAX+AuXNns3TJYk499VSqqqqwLKti7w9FYSgHQFF25IyTiWlm3QS3+vp6TliymGzWpKa6mt2v72N4OMrw8PCYob4Bn5+GhnpaW5qZN2c28+bNY968ee4D3zAMd/dTaeFfIQTxeHzMwznfI5WjOVpeoaOFHV2i0egYB6CYMLtjoEslD9683mKv32TjXAPDNLEsi4DfjwAaGhpYuHABWcuirq6GPa/vZ3BwMLde57VAKBSirq6OjrZWZnfOYv68eXR0dLjOsZNI6Pf5Kuq6KApDOQCKsiFXjwybt2zh337wX7y0ZQuf/fzn+NuvfJn6+nrmzZ+PpuvU1u6ntaWZ/oFBUuncrseWNh6vl6DfT01NNfV1dbS0tLBo0SJ8Ph+ZTIY1jzzCv//4Z/QNDPP//vFv+cTHP1pxD7lCd+dK3sTIm0yEEFiWxVNPP8P3vv9f7Nuxj3/4xpf5zFWfora2hqVLl+Lz+Wior6O1pYX+gUEy6QyGaQK5SEEwEKCutoba2lo6OjpYsGABuq6TTCZ54MGH+JefXk86keY/vv11PvEXH5/qJSsmGOUAKMoGIQSJRJxf//ZmQgE/55x/Hhs3beGEx9fyyU/8Bdlsls7OTmpqati3bx/hqipS6TTWSOKTAHw+H3W1tXTMmkVzc7P7wB8YGOCWO/7AwtntLJ47i+V3/IEz/+xdNI2jF4FCUQ44EaDb77yT1qYGOttauP+hVSxetJDLL7uUbDbLnDlzqKurY8+ePYSrqkin02MiHoFAgNraWjo7O2lsbHQjKrtee43f3nob71y8ACHg5zcu5+KLLqzo/AjF8VEOgKKsME2TzS+9wokL5gIQDAbYvWfPmLPJ6upqTjrpJNLpNJlMxh076/F40HV9pOmPZ0wZmmmaDA/HaG1qyCWEIYknEsoBUFQUlmWxZ98BWhsbAKgKBent7R0TyaqpqeHUU08lnU5jGMZx7w+AWCw2cryQk5MxMkRjcXwV3DxLcXyUe6coK8LhMP/w15+nf3CIWDyBx+Plig9cNqa8yTHqznlmY2MjTU1N1NXVUV1dja7rbxojW1NTw3lnn8WRgUGGhqOcuHgxc2fPnha14IqZQzAY5EOXX0Zf/wDRWJz62lrOeveZ2PYbHficfJeqqir3/mhubn7b+2PRwoWc8Y5TGRwe5sjAIOeedSadszrc9sCK6YmKACimHOcBk0gk8Pv9fORDf05rSzOv7d7Lue87mxOXLh2TwT9eeaOprq7my1+8lqUnLCGRSHL+uefS3NLCvtdf58D+/RXRDU5K6UY9APchX+i5tpSSVCrlDnHRNI1IJFLUAz8Wi7ntYHVdz7vp09GkUil3vR6Ph1AoVHBY+ujrB7ndcrkbOEe/4eFhZs+ezVWf/EvmzplNV1c35537PhYtXIhtv72hHm3wj1UZ0NzczFe//CUeXbuOgN/POWe/F5/fj2EY7N69uyIrJRTHp7z/8iscy5ZVqVQqPtV6TCZOuP2aaz7Hyvvvp6m5eVyvS6fTeL1eVq9eTTAYdHu265qGpDRlSU7LW+dny7JYuXIl3/rWt2hraytrQ+BEPU488URqa2vd67N9+3YGBgbydgKc63naaacRDofdcPCzzz4LFBYRicViXHjhha4u2WyWLVu2jCkvywfLsjj11FOpqalxxwHv3LmT4QIGzzjrPfnkk115uq6zceNGjAqYEplMJmlpaeGuu+7C6/ViS4m0bXRdw7ZLU7J39P1hGAa//e1vue6662hvbx+XDMuySCaT3HvfCs4555wZNxsgGAy+rGvilKnWY7yoCICiLAgEAnR1dXHZZZdx0UUXEY/HyWazbzL8fr9/3HXvlmW9aeSw08GsqqqKoaEhVq9eXfbGH0ZaGldV8Vd/9VeccMIJSCnJZDL85je/4d5776W+vj5veYFAgM9+9rPMHjkKMU2TF154gXg8XlA5YCwW46tf/eqYWQBf//rX6e3tzXsHads2lmXxqU99isWLFyOlZGhoiBtvvJFHH32USCSStzy/389VV13FokWL3FkAX/va19i+fXtB8womk1AoxI4dO/jkJz/JaaedRjwed8/2RxMOh8cdzcpms2+ayumUGYbDYQYGBnj44YdVn/9pjHIAFGVDa2srhw8f5plnnuG6666joaFhzNm/ruvs3LmTa665Zlzyli1bxve+970xc8qdZjK33XYbq1evpqmpqeyNv4MzsCebzbo/F7PDcmSYpul2Aix2x2aapus8mKaZV2vaidZvtDznSKmSdqitra288sorRCIRvvOd7xCJRN7Uw2HlypX84Ac/GJe8z3zmM/zzP/8zpmm6/8/pBXDnnXdyxx130NzcXDH3hyJ/lAOgKBs0TaOxsZFQKER9fT1z5859kwE5ePAgwHENd29vL6FQiNbWsT3OhRAMDAy4DYYq7WzTCf07X8UcjRwtp1h5o/U7+udCZY0eV1yK9Zby+k02mqZRW1uL1+uloaGB9vb2N53tO9Gx5uMcvfX29hIOh2lvbx9zHzn3hxNFKKYxlKL8UZ+uoqzwer0cOHCAm266ibPPPtvdoQkhSKfT3HbbbdTX1x/XcLe2tvLCCy+wfPlyt9OZI2f//v2sXLmS1tbWCV9PqZBS4vP5qK+vp66uDtu2MU2TqqqqMRGO8WLbNjU1NdTV1VFXV+caWr/f7/bwz1c/gNraWvcIwOfz0dLSQk9PT96OltPOubm52c15CAQCNDY2kkgk8j4CcKZQ1tXVUV9fj2VZ+Hw+twVupRAMBlm/fj0333wzZ5xxxpj7I5VKcd9999HY2Hhcw93c3Mz69evp6OigsbFxTDXMzp07Wb58eUXdH4rCUA6AoqwQQhCJRFi+fDk33XTTm/69vr5+7HmtBDmYRtT5YdROxumT/73vfe+Y73N0ZKDccc6sa2pyXdwcByDfCYmj5QUCgTHyhBC5BLMC5DkGpKamhlAoBOScuerq6jEh5nzk6bpOQ0OD6wAEg0Gqq6uLXm9NTQ22bePz+QgGgwXpN1UIIWhpaeGGG2445r83NjaOKwfA4/Fw6NAhvv3tbx/z3yvt/lAUhnIAFGWHEGJ8uw8poTuG/7PnYr/eR/aV/eB9Ixte1/VxZy9XAkfPsh/dyKUUMkup49E/F6vbRKy3lOueTIQQJfm79nq90+r+UOSPcvEUFYvsPoz/2vdT/ZlLIWVAicqhypmJSMhyRuWWQnYp9TtaVqlkO3JUcptipqMiAIrKQ0pkdy+Bz3yA8CcuQESCyEx2qrWaUBwDbVnWmCqAYnewo+WVwhEYnamfzWZd3QvBWa9lWROyXkc/FepWzFSUA6CoLKREdg/j/8v3E7n2A6BrM2Lnr2ka6XSanTt3kslkXAPW09Mz7r4Io9F1nXg8zo4dO3IjlUfC4el0uqDOgo6R37Ztm1thkUql6O3tdf87HzRNwzRNXnnlFQYHB13dDhw4QDgczlueruskEgl27txJOp12cyoGBwcrogukQjERKAdAUTlIcjv/z11K+C/fD9qI8Z8h80osy3JLJJ1GQF6vt6AsdiEEyWSSSCRCQ0OD2wjI2RUXIg+grq5uTCOgWCxW8A7bsiwCgYCr39DQUF4toY8mnU4TDoepr693HYBKzAFQKEqFcgAUlYGUyO5+/FcvI/LpSyDomxE7/9GMPrt2WgMXE64/+vUTlV9QqteWYr2llKdQVDrKAVCUPxJkdz+Bq95P5PMfQIT8yAJ3qpVOIpFwQ/aGYWAYRsHNjDRNIx6PE41G3QiAMx++UKLRqFtWl0gkijKymqaRSCRc/WKxGKZpFnxEMVqeEwEodE6BQjEdUA6AorxxEv4+fQnhqy/BjiVJ3Powocvejd7WkCsFnAFomkYmk+H+++93h9nYts2uXbsKygFwztjvuusu9/W2bZPJZAoO2dfW1rJ8+XK3CY3Ta74Qg+3osGLFCrfpj2mavPbaawX17RdCkM1mue+++9xeArqu09vbq3IAFDMW5QAoyhcpkd1R/J+6iMi1lyOCfuK/e4zUb1aitzYQamuYag0nDSfs/+KLL44Z3xsMBgsy2I68rVu3ujt2TdMIhUIF74hDoRDPPPOM26hH13WCwWBREYAXXnjB1U/XdQKBQFHrHS0PKHpcsUJRySgHQFG2yO6e3Jn/Z5aBz4M9FMd4aQ9VX/oImQe3ELr83TAzAgBAzoj5/f6CsurfSl4gECjpJLxCohFvRyn1m4j1KhSVjCqAVZQfUiK7ugh85jIiV1+CCOYMnrHjAGRtAueeimgMYe48mCsDVCgUCkXeqKenoryQEroTeD9+YS7sXxUAJBhZzNe70Zpq8MxrxbO4g8yTL86oCIBCoVCUEnUEoCgrZHc3vqsvo/rqS0AXuVI/TWBHE5ibXwPDIPHY5tzuH4EciiMaa6ZabYVCoag4lAOgKA8kyO4uAtdcQXB238QAACAASURBVPiqixGBsXX+5t7DmE9souqrH4cjMbzz2kn9egXGh88m0FQ7hYpPHk4pXDweB3Jn2k1NTQXPbHea66RSKVdea2trUUlxhw8fdpMAPR4PjY2NBVcVSCmJRqMkEglXXkNDQ0FVBceSB2rqnWJmoxwAxdQjge44vk9eTORzl4JHH9vkx5ZgZgn/y+cJXfwuhMeTe1FrTS4/wLZhmidyO+NxL7/8cpqampBSYlkWmzZt4sCBA3k7AVJKNE3jox/9qDtu17ZtHnjggYK77fX09HDttde6uhiGwSOPPFJQaaGjz5VXXunOq0+n02zevJnDhw/n7QQ4jZM++MEPup0FdV1n1apVxONx5QQoZiTKAVBMObIvif+vL6D6E+9H+Ly5PAB9rAEKvO8UBAJpWTmDD1R/8Jzcg10vrnlNJWDbNsFgkPPPP5/Fixe7jYAGBgZ49dVXqa3NLwriNMK56KKL6OzsREpJNptlzZo1JBKJgqIKlmVxxRVXjGkFvH79epLJZMEOwAUXXMDChQuRUjI8PExfXx979+7Nex6Abdv4fD4uuOACFixY4K5/48aNDA4OlqyyQqGoJJQDoJhyRHOI7JbdDL6yH8z8+9qja1i9Q+Cb3kMBpJR4PB68Xi+2bbs7dSfkXqw8oGBZDl6vF4/HgxCi6F77tm27+jm6OvX8heDs+p31Oh0U1TwAxUxFOQCKssDefwSyRRgfvw7TPAow2lCVIuLhhMVLJc9htKxiHApnvcUY/aPlTfdIkUKRD8oBUJQHHi33pXhLPB4PqVSK/v5+dxxwNpst6PxaSklNTQ2Dg4Njdup+v99NCsxXHsDAwAB+vx8hBKlUisbGRvr6+gqaV+D1ekmn03R3d7uzCjweT0HTD6WURCIR4vG4e/28Xm/BCYUKxXRAOQAKRQVgWRZ+v5+lS5eyZMkSbNvGNE2eeuopkslk3jkAzqjd0047jTlz5rjHCV6vl2w2W1BSIcDpp5/u5gAkEgnq6urIZDJ5d99zwv/veMc76OzsxLZtDMNgy5YtBa3Xtm38fj8nnXQSixYtwrIsfD4ftbW1pNNp1R1QMSNRDoBCUSE4iXGjv4oJjTvyLMtyHYBiQ+2OXs7PxeYAOPo5VQ/FHimMXm+x+ikUlY6KuSoUFcREnWGX49n40TqVSsdyXKtCMRWoCIBCUQE4RmsiIgBHyynEQB6t3+ifi6mxH61fqSIAR18/5RAoZirKAVAoKgAhBJlMhr6+Purr690z8VgsVlDNvq7rRKNR+vv7CYVCroFNp9NFGewjR46M6QPQ29uLz+fLW44QAsMw6OrqIhAIIKUkHo/T19dXUM2+pmnE43GOHDlCbW2t2xcgHo8XlKCoUEwHlAOgUFQAQggsyyKVSpFKpVwHwDCMghwAx6Fw5DmNgLLZbFERgHQ67f6/dDpdcJc9Jx8hkUiQTqddByCZTBblUIy+fpZlYRiG6gKomLEoB0ChqDCEEGO+SiFn9H+XQj+HYo3raFmlXG8prp9CUekoB0AxIajHaulxuth5PB73PFvX9YKNmKZpYzrtOe9RDF6v1w2pe73eohwAXdfdNTudAIvRT9M0Vz+nzFDt/kuPQCB4w+FSlRbli3pOTyCWLatSqVT8eL/nPMBN06TyB9wLTNPki1+8locefJDGxsapVmja4NSy6/8/e+8dZFd2Hvj9bnw5dAIandAJYYABJoEzwxlSHHLIlcgRJStrrcBdK3hX5ZIsVa2kVa0lq2RtsCyXvbIllSzuFr1rlsSV1jJFMYkrBjEOOXkGuRuhgc7dL8cbjv+47773bofX3Rg0uoE+vyoUgPvuCd93zj3nO+k7mtbcvNZ+k9+dxBcOhwMzAKVS6Y47Wdu2icfjgQa/XC7fcXxr5YXWEsOdyuvH5xtP/hKFnAm4OziOQ61a48/+/M955l3P4jou93ebpuzIBXUkEnlTU5Uz9yBjdwU5A7APqFQq5LIZlldWcGzbe3iftkcKCrZtk8/nmpvBJHcHVVWpVqvNnfCKorztGQB/PdyP706vFgbPU2GxWAy48H078e2GvO3x+XmWnf/dQ1EUdEPn+o3rpLvSuO4d3O2xXxCgqCo93d3EE0mSyeRe5+iuIw2APcQfwV28cIFSqfhATJX5m9WsuiUb1l3Anxbfr/G9nQ5/I/a7vJKNqZRKFPL5O3LbvN/IZbOEQiEGh4YYHh55IGTykQbAHuHvSn7tlZdJJJOcPftOEonEXmfrruA4Dh/72Mf46le/SjQa3evsSCSSe4QQgkKhwJNPPcUzzzyz19m5K9i2zYULF7h+7RqJeIJkKvVADNZAegLcQxQy2QyKqnL8+PEHpvMH3rbDFolEcv/yoH3/uq5z7NgxEokEMzMzD0znD9IA2DMUBaqVCuFwWDoikUgkkn1MOBwmmUziOHZjs/aDgTQA9hDRcJMqjyJJJBLJ/kZV1cbo/8FxHy17nn3AgzSlJJFIJJL7A2kASCQSiURyAJEGgGRfI4T350HhQZJlMx60MtuMB0nGg1JmkiDyGKBk31C3BKtFF7fiAGXAAgzAbPwfIAaKQapLJRpW962/JMcVFCuCUs4BakAVz94O05IlApjEUhqJiIKq7ldpNseyBUt5F6o2UAFsPBlVoARoQBR0na6USthUud+WT4WAal2QWXVA2Hjl5+LJWQccvHoaQ42o9CRVDG3/ClmzBCs5F+q+LDYQxZOphld2UdB0urs0wub+lUXy9pAGgGTPEQLmFhxOHw/zPd+VZvJoih/78Djd6da1rwJwHfjCV2/zzVcWuHA1yxe/luHQYQN9nzW22aJLXSj8gye7OHOyiw+8e4jTx9KBDt5xXF47n+ELX7vFxakcf/OlDOmkIBq+fyblZmctRkZCfOQ9hzl1vJsPPjfE4d4w7W4sS2WLL3x1lu+8vsQbl7J84zsF+vu1+8bYsWzB0qLDU4/HOffhHs6d7eN9zwwQCmkB43N+qcJ/+ptprt8q8KVvrXDrdp0j/fq+MnZcAfNzNg+fivD9z3dz+ng3H35+hGTSbMoiBBTLFl/51hzffGWR77y+wsuvlzjcr6PdJ2Um2T7SAJDsKULA3Fydn/yhQT7yQ8eZHEuRTpjYjgPCwhuVACious73Pj/Md79niJm5In//rdv88m9fJJZyScX2R8c5O1vnycdT/PNfeJjJ0TSDh6O4QiBcXxaBJ4vGk4/28o5H+5hbLPMzP5bln/zmK8zOVhgY2N/HQh1XsDBf4Zd+9gTf+74Rjo+nSMYNbMddV2aJmM4Pf2iMD79/hBu3S3z5W7f5td99nWSXSTyyP8psM/Ill2JF5fd/82GePdfP+EgSXVNwHBtv5O+VJSgMHI7wKz93hly+zpXrOf7sk9P8uz+7yeHDBto+MFA9Q8biF/7RGD/+4QnGhhPEojqO7eDNtHm721EUUnGD/+ofjPI9zw0zfSPP575yi9/53y7T06sSMvd3mUl2hjQAJHtGzRKsLC3z+7/1XXz/B46SShggbGyrgACy7nO4inefgCpsIuoUin0VVTEZHYoyePgYJye7+Y3fe4VXXi/sacfpja4q/MJHJvnZHz/J0cEYQtg4dgkBFMUT1OkDBIqAkHKbqHgTBYUjfSYDh4/w138S4+N/dZX//aOXGRjYnx4US1WX3KrNv/2dd/D9HzhKPKbjOha2VcAhTl68C5cwnpwOUeUCYXEDXQtzbDTG0JFjTIwk+Z0/eJPX3tzbMuvE7KzF4aEof/F/vIOzp7oxDRBuDceuU2WEknsWFBdQ0MkTU94EN0s8GuLcmV5GhxI8fKKLX/nt1+jtMzCNvTMCihWXfMblT/7nJ3j+2UHSSQPXsXGsPBbdlMSTOHj1TcEirryGac9jaGEemkxxdCjBo6d7+KGf+xZa1OFwWrpSflCQBsADhG3b1Gq1wLNwOLwvfZ9Xai6puMFH//QF3v3kEVxh47gmZXGKkjhGRQyi4DYuEvNGWlnnERRqpNQ3iLg3CWkzPPVoH//pD9/LL/6P3+DTX1hmYODeV2mv86/zv/wPj/MjL4wTj6rYjqAqJii4D1Fm3JOl7VY0IU4j+G6SygVi4ioh9xaTRxP88s+dZbA/xq/+7qsMDOyvy5QqNZf+nhD/z//6LE891gfCxrINyuI0efdh6nQ35GyRE4+gUiOtvkRE3MQ0lnj+2UHGRlL87h+8zH/+9NKelFknZpdsfuIHBvnVf3qWoSNRHMem5vRRcE9RECcQhNrqpscq78RQlulSXiUkbtCVcvhHP3yciZEk3/8zX6P3kIap33sjoFB2ScZN/vMfPc25M71YlkXNjlMVI2Tdx7FJoRD0bZ/jUTQKJJXzxMRlwmaG9z49wDf+v/fyq//qZb79VpbuxP5rU8C7fbL9WLWu64RCoQ4hDjb768uT3BHVapWVlRWWlpbIZDLeVbEAikJfXx/d3d309PTsmw/BdSGz4vB//vY5nn78MI5rYYlusu47KYsRQEFlvbctr6HSyLmPUeAk3XybqHiDrqTBb/7io8CrfPbrK/Tf4xHK/FyN//7nJvmH3z+BaYDlqOTcd1EUE7iYqNQ3kMWjKI5TFkeJK1Ok+HtiYZWf/MFjXL6W508/fnPfjJBdAZmVMn/yu0/xzicO4Th16m4/WfEMVdGPgI5llnGfosgJ0upLRK0LjA7F+PVfeIyXL3yVlWyVxD5ZDihWXAiZXuffH8W2bcriNDnxGJZIoeCibCKnI9IsifcQVhbp4QsIN8+7n+rnT/7NY/z8r73C4X7tnq6jW7agUFH5j7//BI+f7qFer1Knn1XnPdToQ0FsUjcdBBGy4hwVZ5yU+h0i4jLHxlL83m88wdPf9xnsaHjf7L1xXZeVlRUymQwLCwsBT32xWIz+/n66uroeyNv83i7746uT3DErKyu88sorXLx4kUI+z9Gjozx06jQnT51meGSEpaUlLl68yMsvv0yhUNjr7AIwP2/xkR8Z5v3vGkJTHSzRxZLzIcpiBAWxbhQZxPtdEGbFfYa8+wy2YzNxNMl/99MPMdJnUrfv3Xmm2SWHn/jBIf7b//ohQoaCcC2W3Q+SFycRGFvIQkMWk7x4iIz7PK4QmIbCP/nJh3jmyTTZ4t77VBfCM3L+r3/zTt79ZD+OY2OLOIvuh6iII3hl0knnXplZpFlx301RnMWx64wNx/n9f/4IhYzAcfb+DJrjCPIZhS/+u2cY6o/iODWK4jFW3WexRLJhzGwlJ1TFEZadD1IXfTi2xYfeN8K//PWTLMxbHUPfTYSApcU6f/AvTvHUY4ewnToVMcmS8z2Nzj84I7WxLC41ull2n6MsjuM6dY6Pp/iP//YZFhds3L0vMmzb5vXXX+fNN9/k1q1bdHV1cfKhUzx06hTHj5/AdV2uXLnCa6+9xtTU1F5nd98hDYD7FCEEc3NzvPLKK+i6zuSx4zz59Ds5MjBAKpUilUoxODjEU0+/k2PHjqOqKi+99BILCwt7mu9ixeWpJ5L8+i+cRVVcLJFk2f1uLFKBTkQIseGfFgLQyIkzlMQZEHWeONPHT/3gKMuL98ZXt+0IkkmNH31hjN7uEI6rsuK+QEUMNWTpLE+7LAqCopgg474X29EYG47z6//0YTRd3fPOcbng8AMf7Oed5/rRNRdLpFlwfhiHSMDA2arMPGPHIOM+TUk8jBAOz5zr53d/7SQLC3t/xerCgsX/9KvHOD6exnFtSuIMGfcpBNoO5XSo0cOq+z7qbhfhkMKH3jvKB97TQ6F8bwy6uRWHf/xjI3zwvSNomkvdHSDjPoNN/I7KbMV9jqqYwLEtnn1HP7/0s2PMz9n3RJbNKBaLfOfb3yafzzM4NMSTTz3N5LHjpNNpUqk03T09PPb4Ezz66GN0dXVx7do1Ll68iG3vbb73E9IAuE/J5XJcuXKFdLqLyWPHOXToELZt47pu8yP2/93b18ex4ycIhUJcuXJlz2YChIB8xuWnfmCcdNLEcQV59wnqoqu5DimEwHEcTNMkkUiQTCZJpVIkEgmi0Siu67bdNOYZAVn3HLYIo6mCH//wBKDg3oPhyeKqyw9/4DCPnOoB4VARE81ZDB/HcVAUhXg8TiKRaMoSj8dRFCVwt7gClMQ4dTGI69icnOji+SfTZMp7ZwAIAVZR8IF3D3KoJ4zjqhTE4zhEmx3JTsvMxSQvziKEjqnDU48dBrzTBXtFtS44eyrOdz15hJAJlugmL87ilYqXL1+OaDTaLMtkMkkikcA0TRzHaXae3ui5h4J4FOHUGOqP8q4n+ylm71HnU6/z3DsH6UmHcF2XrDjXMLKDZRYOh5uy+GUWDocDsvhllhOPY4sEyZjOB58bYXDIxN4j49SyLK5evUqlVmPy2DGGh0ea31O7IeM4DtFYjNGxcQYHh7h16xa3bt3akzzvR+QegPsQ/35qx3E4fvw4umF0vH7TdV0ikQiTx45x4a23uHjxIu94xzvuYY49bEdw9GiYkxNpDAOqzuHGaLlFJBJhdHSUcDgcuCTJb4xs22Z2dpbV1VVc10VRwCFKXjxJl/gKfd0h/vGPj/Dv/3KGgb5drt5WjQ++d4Rk3MCybTLiHC66N2oSAlVVmZiYIJ1OoyhK8wIRXxYhBJlMhpmZmYahAC4mGXGOiLhET1eMD7x7mL/67DwkwrsryyZU6i5PPx7ju79rGAWXKiMU3OMoeA2soiiEQiEmJycxTXNDOV3X5caNG+RyuUaZudRFD0XxMAnnJR473cMjZ+Jcu1UmHtmbdeXVZZtf+IlxTh3vxnXqlNxT1EV3oCx7e3sZGhpqbqptvxDGdV3q9TpTU1PNjbgKLgXxECm+jo7FP/zwOL/1e99BCHNX/QN4ard517nD2LaNxSHKYgQVp1lm0WiUyclJdF0PyNL+nU1NTTU31SmKS030URFj6O5rHBtL8Z53dPPnn1vYk1MBMzMzLC0tceLkQ3R1dXds//zyGx4ZoVarcvXqVQYHB+UtrMgZgPuS5eVlyuUyk8eOoRvGti4Tcl2XWCzO4PAw2WyW5eXlXc+nqqrNDkFRFJbygg88083kaArhupTdSWySCOGi6zrDw8OcOnWKWCyGpmmBsP6tiaZpMjo6yqlTp0ilUo0P36UmBnFEBAX4wLuOgOUEwt/tP57GDU4f78JxHer0Y4tkc4Q1MDDA2bNn6enpQdO0gC58WTRNo7e3l9OnT3PkyBGvc8SlJo5QZQjXsfngc0N45+p3T5ZOfwoVmBxLk0wYCGFTdkcB71a0UCjE2NgYZ86cIRKJbCqnrutMTExw4sQJEolEU86c+xguBgqCX/mZh8hnrD2R0ev8HE5MdKMqAhedkhhtGjnpdJoTJ04wNjaGYRhNudrDa5pGJBLh1KlTjI2NeXVEeKdX8u7TCOGQTpp893tHyVfcXZVlbsXhIz96nK6UiRA2OffppiymaTI5OcmpU6cwTXOdLO3f2UMPPcSxY8eIx+PebCIqRTEJwiKVMJk4msIpi3Xp7/apI9d1uXnzJn2HDtHd3bnz9/GNgIHBQUKhEBcuXNjVPN4vyBmA+5CVlRXCkQjRaGzHYVOpNJFIhGw2S29v7y7kzpueq9Vq2LZNJpNp/VAtM9g/RiphYFkWFQZAuBiGwdjY2I526YbDYcbGxrhx4waZTBaLOHUxgqFeZfhIFFhhdTWKsksjLcsWgENX0gRhUxVHvZV812V4eJj+/v5tx2WaJoODgyiKwu3bt1FUh6o4SlhZIBbVAcH8wgrh0L23151ymYFDo2iaguPaVDkCwkHTNCYmJohGt++vIBaLMT4+zvT0NPl8HkVVsUQvurvEQ5MpdrvMOlNm4FAEVwhcwlgkEY5Nd3cXo6OjzZHyVqiqSnd3N6qqcuPGDeqWQ50eXGGiKi7vfkc3n/viW4j6Lvp5qJf58Q8/iytcbBLURRdCuEQbs2ux2PbbjWQySTgcZmpqimKxSE09hIuKrgiOjSaBRTKZliy2bVOv1wM78e82hUIBy7JIpdJtV/RujRCCWCxOKt1FqVigXq9jmuau5fN+QBoA9yH5fJ5oJIppmju6StgftYXCYcrl8tYB7hBVVZtW+dp0ulIhVFVB0cIIUpi6weTkzjoSH39keePGDVZWMgitD027QjSq09cXZmlp92T0CBGN6Dh2HYd+DEXl6PgEXV3ddxTbwMAAuq5ze3YBoXSjaiqKq/DUoxG+9WqOXSyyjhwdjHrH1zQVIbqIREKcOHFi251iO4ZhcPz4caanr1HIZ1C0NJq2RMjwjJtKZY+EBHq6QmiqwBWH0YROuivF+Pj4HcWVTqcxTZPp6WtgR1G1MLpSob/XO4q7m98fQH9fBE0FRC8qBvFQjPHxsTs6CmyaJidOnODKlSuUyhaOOkRIWWLiaALYfVnWsrq6SigUuqM2Q1EUYrEo+VxWGgBIA+C+xHGcxhT5zkeEiqKgNTpofz1wIzKZDOfPn9/0907xl8tlisUShw8fCTQ4t1Ztbs3bfOPlZSxHZ8l5nXS6h1Kp2Fi33PmGIlVVKZVKXLs+Q0q/QULNML9U43DfEGbI2rVz144rMAydb7y8jOvUWHGmUUIF8vksxjaXZdaiKAqWZTFzaxa1fp2UuopAxYx00X/ExDTu/QzAzUWb2UWnUWaw5LxKOt1FLpejfYPcTlBVlXw+z+zsbRLKPDF1hcWVOmpyhMGUsuM6dze4ebPO6xdzzC6UKbtx8uJVBo4cZmFh4Y7K0luygbm5eYq5Obq0FXSlzM1ZCyU+zHD37k2T37xp88pbWeYXa1RcnZz7Br19A+Ry2W1Nl2+EoihkMhnmF1a4oWaIqCvMLdWAI4yMtN3ZIQRLSyu8+eabRKPRwCbX7SCEoLu7m4ceemjTd2q1Gpqm3fFSg6ZpCCHkaQBgf3hyeEBxXBGrVCrFjX5TVZVr01MUCgXOnj1LJLJ9r29f+9rXiMcTTExO7rixdF2Xy5cuous6jzzyyIbv2LbNL/7iL/FHf/SHO4rbxzSTnDgxtuEIsVITXM+46AgSSp5qpUQms3hH6fjoeoJDh7qoiRglQvREFHqTKrvtc0UIuLLo4AhIKUVwKiwsLMEGzlW2j8nhw324apwiEQwVRns1bzS3R5SqgptZFw1BUslRq1ZYXX17x0lDoRTd3WmqxKlg0B1WOJTe29sdF3IuqxVBFIsQeVZX89RqubcVZ3f3YcxwnKKIIRSVgZRKPLz7Ui7mXFYqghAOUaVIqVggn397+35isW5SqTglkaSGTm9UoS+5vmJ6m1uz3LgxfUfpPP/8+/noR/+Uo0ePbvj75cuXWVxc5MTJh4jFYjsy0BRFYWF+nlu3Zjh79iypVGrbYS9evEgmk+GhU6cwzdCG6UYikTc1VTmz7Uj3GDkDcB8SjUap1b019p0sAyiKd0zGsqyO02fZbJY/+qM/5MyZR97Whp6N8hU24eRhv9HoAro4enTojtPokPo9ud/82CFfliSQ5MiRw7uQyr2RZTOiofYy85Y3RkYG735CQtwzRzkbcSipcCipACGgj8OH+3YlnTubUdgZfUmFvqSCt8+7Cw51ASN3PZ3NZOnqStPV9fiO43Ndl6mpa8zMzGxqAKRSKW7NzFCv1Xa0nwFAUaBWrzU3Oh505CmA+5Curi4q5TKWtfORZqVSoVqtkkjEN31HURTS6UN7MhUrkUgONv7phM3o7u5GCEGpXNqZMaUoWJZNqVjENM194xp9L5EGwH1Ib28vtm2zuLD9qXN/9L+4MI9lWRw+vP1d6hKJRLJfMAyDdFcXC/ML2La97YGKgneCKrOaYWBgoKORcVCQGrgPicfjjI2Ncfv2Lebn57f8APzfZ2dvs7S0xMmTJ6UTDIlEct8yMTGB6zpcvnxpW0aAv/H05o3rpLvSDA7uwhLWfYg0AO5ThoaG6O3t5eaN68zNzTYdXbTjO/awbZvbt29xa2aGw4cPc+TIkT3KtUQikbx90uk0Y2Nj5HM5rk1PU61Umg6N2lEUBQXIZjJcvXLZuzdlcnJvMr0PkZsA71NM0+Ts2bO89dZb3Lh+ncXFJYaHBkmm0oH3VpaXmZubo1Kt0N/ff8fntyUSiWQ/MTIygqZpXLp0iXw+R29vH0fWTO3XqlVu3LhOoVDANE3OnDkjrwVuQ/YE9zG6rvPwww9z69YtVlaWefPNN1FVlXAkgnAFtVoVRVHo6elhaGiQkZG7vwtYIpFI9orBwUFM02RpaYnZ2dvcvHkD0zQxTZNKuYztOCSTSYaGhhgZGZEb/9YgDYD7HE3TOHr0KEeOHCGfz1MqlVhdXUVVVbq6RonH48TjcXnkRSKRPJD09fXR09PD4OAgpVKJTCZDtVrl0KFDpNNpYrHYHXkNPAhIA+ABwTRNent76e3t3fT8rEQikTyIqKravNJ4YGBgr7Nz3yA3AUokEolEcgCRBoBEIpFIJAcQaQBIJBKJRHIAkQaARCKRSCQHEGkASCQSiURyAJEGgEQikUgkBxBpAEgkEolEcgCRBoBEIpFIJAcQaQDsIbphYlsWjuPsdVYkEolE0oFqtYqqqqiqhhBir7NzV5AGwB4hhCARj1Mql1lcXNzr7EgkEolkExYWFlhdXSUejz9Ql6k9OJLcZwghSKXTDAwMcO3aNfL5PBMTE3tSuTRNwzCMLe/Ulkgkkr3Asixs296TtG/cuMH8/DyRSITRsfEHZvQP0gDYc0aOjmIYJvPzc3zta1/jXnbBAu++7Hg8zpH+foaGh+WlQRKJZN/gui5zc3PcunWLbDaLEOKet5G6rtPXd4gjAwMoiiINAMndQQiBpmkMDg3R29eLZVnc+7olmJ2d5dr16+QLBR555BE5EyCRSPYFN2/eZGpqinAoxKnTp9F1456mr+DNkIbDYTRdf6A6f5AGwL5AURQikSiRyN6kn053sbAwz/TUFHNzc0QiEaQNIJFI9gpVVSmXy0xPT9PX18fE5DFUVd2zDlgI8cB1/iANgH3DXlYuIQQ9Pb3cuH6dGilaJAAAIABJREFUQqGAaZrourZn+ZFIJAcXb/ChsLS0hKZpHO4/gqIouK6711l74JCnACQAGIaBqqrU63Vs20bTpAEgkUjuPX5nb1kWmqYRjUYfyNH3fkAaAJIm7Wv/ch+ARCLZG4Jtj2yLdg9pAEgkEolk/yIH/7uGNAAkEolEIjmASANAIpFIJJIDiDQAJBKJRCI5gEgDQCKRSCSSA4g0ACQSiUQiOYBIA0AikUgkkgOINAAkEolEIjmASANAIpFIJJIDiDQAJBKJRCI5gEgDQCKRSCSSA4g0ACQSiUQiOYBIA0AikUgkkgOINAAkEolEIjmASANAIpFIJJIDiDQAJBKJRCI5gEgDQCKRSCSSA4g0ACQSiUQiOYBIA0AikUgkkgOINAAkEolEIjmASANAIpFIJJIDiDQAJBKJRCI5gEgDQCKRSCSSA4g0ACQSiUQiOYBIA0AikUgkkgOINAAkEolEIjmASANAIpFIJJIDiDQAJBKJRCI5gEgDQCKRSCSSA4g0ACQSiUQiOYBIA0AikUgkkgOINAAkEolEIjmASANAIpFIJJIDiDQAJBKJRCI5gEgDQCKRSCSSA4g0ACQSiUQiOYBIA0AikUgkkgOINAAkEolEIjmASANAIpFIJJIDiDQAJBKJRCI5gEgDQCKRSCSSA4g0ACSbIPY6AxKJ5EAi2557hb7XGZDsT3RdR1VVVFVB7PB7VBQABSEEjuMANOJq2ZuO4yAaEWuahuIFCoRZ+9x1XYQQKIqCpmnNuFzXxXXdjnGtDeOnrygKqqpuGKY9z+3PQUHXt04fBLa9tfxeXJ3TB7Bte0NZtiP/2rh2HkbgOO6WOrsX6YOCprXSb49rN3UWLDN9y7jaw3jpq/jlvFt1dr99MzvFC69t/aLkriANAMk6HMchnU4Ri0UxTRPDMNmuVS4E1Os1bNsmlUpx9OgIuq6zvLzCzMwMiqJgWTZnz54hHDaxbYcLFy5iWRZCCHp7ezl6dARFgampa2QyGRRFwTRNxsfHiEajFApFpqencRwH13WZmBinq6sLx3G5fPkKlUoZANM0eeihk2iaRqFQ5OLFi2iahqqqjI+PkUwmqVQqTE9fo1arIYQgmUxx7NgEALdv32Z+fqHZEJ4+fQpN07Asi1dffQ3DMBBCMDg4yKFDfTiOw82btxp59hrWM2ceRlVVMpkMU1PTaJqG6womJydIpZLYts1bb51vNq49Pd0MDw+jaRqLi0tNnYHC2bMPo+s6pVKZixcvoSgKQrgcOnSI4eEhhBBcv36D1dVVFEUhHo8zOnoU0zRZWVnl+vUbqKqC4ziMj4/R3d2N67pcuHCxKX86nWZycgLXdZvpq6qKpmlMTk4Qi8UolUpMT19rlllfXx8jI8MoCly9Ok02m0VRFCKRCJOTExiGQSaTZXp6GlVVcRyHsbExuru7mnn2yzkSiXLq1EmEEMzOzjE7O4eqeh3O2NgYqVSSer3OxYuXsW0L13UZHR2lt7cHIQQ3b86wvLyMoqiA4MyZMxiGTrFY4sKFi+i6hhCCoaEhDh3qw7ZtpqamKZVKCCFIpVKMjh5F13UWFxe5des2iqJg2zanTp0iGo2gqirf/vZ3UFUNIVz6+w8zODiI67rMzNxqpO/l+eTJE4TD4UadvYbj2Liuy9jYGD093SiKwiuvvIbreh1oLBZlbGwc0zTIZnNMTU2jKN53dfLkcWKxGNVqlamp6WaZpVIpJie9Ojszc4vFxcV130ypVOby5csIIRBCMDw8TF9fL47jcv36dXK5XLNDf+KJx3Fdl3K5zPnzF5rfzOjoKOl0ilqtxpUrV6nX6806MzY2iqqqzM3NMzs7i6ZphEKhgDG0dbvjUqlUMAyraZxIdhdpAEjWoSgqb7zxGocPDzAwcITu7u5tW/NCCJaXV1hcXOLxxx9lZGSEcDiM47j83d99CdM0mJm5wQsvfJBEIkG1WuPrX/8Gi4tL1Gp1nnuun/HxcRRFYWrqGpcvX8UwDA4d6uPZZ5+lt7eH+fl5/v7vv0alUiGbzfGOdzzJ2NhRLMvm9ddf5+rVaRRFYWCgn9HRUQzDYHFxkf/wH/6M/v5eDMPk6aefYnBwkEwmwyuvvMbs7CyO43D27Jlm+isrq5w/f5FoNEIiEedDH/ogpmlSLpf54z/+Y4aHj1Kr1Tl58iRjY2NYlsXMzG2uXLmKYeiEwxG+7/s+jKZpXL9+nb/8y0/S3Z3Gsize+c6nGBoaolqt8rd/+18ol8vUanXe/e5nOHr0KKFQiHq9zuc//1+IRsNYlsP3fd/3Ypomy8srfOpTf4NhGFQqVYaHh5iYmMBxHG7cuMnly1dQVY3Tpx9ieHiEeDyGEPD5z3+BcDjE6mqOc+eeYHx8HNu2+eY3v8Xt23PYts2TT55jfHwc13WpVGq88cZbJJNJYrEo73rXuzh0qI/FxSW+/e2XWF5eoVarMTAwwMSE1wFdvjzFlStXUVWNiYkxjh49Sjgc5saNm/z1X3+aRCLG0tIq5849wdjYGK7rcvPmDJcuXUXXvTATExMIIchkspw/f4F4PIZphnjyyScZHh6kWCzx5S9/lXw+x8pKlscff6yZ54WFBS5cuEw0GqZet/ne732BcDjM0tIiH//4J+jt7cayLE6fPs3ExATVapW33jrP1atTuK7gscceaeq/Wq1y9erfYxg6MzO3eP/7n6e7uxtN0/jjP/739PWlqVZrjI2NMj4+juM4zM8vcPHiZSKRMIZh8vzz7yOdTjE3t8A3vvEtCoU8KytZnnjiccbHx1FVlU9/+rOUy2Ucx+HkyROMjAwTjUaZmZnh05/+HOGwSbVa433ve46enh7y+TyvvfY6N2/ewnEcHnvskab+5+cXuHDhEuFwiMOHDzMwMEB3dzcrKyt89rOfR1GgUqny8MMPMz4+jmVZTE9f48qVKUzTwHVdfvRHfwTHcVheXuajH/0YQ0MDmKbJuXPnOHp0hHw+z4svfoeFhQVs2+Hxxx9rfmeFQoGLFy/T1ZVmYGAgMFOyFbVajWvXrrGyksN1nR0ZD5I7QxoAkk3Rde2OPkJVVZtT5P5UoxAuqqo04lObz9dO3XojFBchvCUEb/QXnDZ1XdEI402rCuG2pSOa6QhBIB1/2lhRwHVFW/qiLW3vuaIouK4bmNJcm2dvlKc0wohA+u1h/Lg0TW3mbaP0/TxsJIuX51b6/gizlX57mKAuff178Xg6a49LCNr03B6X2xj9+VO9redenpVA+v47a2XxyrMly/r0BZoWjMvPuz/V7I2C3abe/PL3R/Tr41LXlLNo6ktVlXXpe+UlAnG5rmjqTFG0NbqnGV97WfpxtZYnRFueRfPbaK9HG9W/Vp6Vtjqzvp7730lL/6JRz1r1z9ebotCsN5vXM2XNc7/8lcB31qqzbuC5r2c/ru3SqpsaoZC57XCSt4c0ACT3BG90dJtUKgW0T+8JqtUKq6vLlMtl6vUa4DUG1WqFpaUFotEokUio0fF4HUE+v0q1WiWfL+A4dqOxEdTrNVZWltA0jXQ62Zy5cF2XWq1ILuc3wE4jLkG5XCKTWaZet6hURps5s6w6KyuL1GpxFEU01z998vks2WwWx7HxOw/LqrG0NE80Glu3flwoZFBVl2KxPc+wvLyM41jk84XmtLofZnl5gVQqSS6Xb8blug6Li/MkEglyuRyWZTV/q1arLC3No+sGtdpIQP7FxTnS6RT5fA7bbqVfqZTIZFaoVitYltVsjG3bIptdwXXr1OvRZifjui6lUpFsdpVisdgoM68Rr9WqLC0tYBgG/f2HGmEUXNdhdXUJ17UolXKBKV7HsVlYmCMcDtPX19N8Xq/XWV1dwraThEKh5jqzEIJ8fpV8vkCxWAjMTtm2zdLSAqlUilwu16wz3pR2jnweCoVCo8w8yuVSIx2HWm2yTf8Wi4tzJBIJhKgH1sYrlTy5nEIul8O2ff179W9paZ5kMom3bObr36FUKpDNZikWC829CQC5XJZKxZsBOnp0uK3MHBYX55rl7z8XQlCrVZt1tlqtNOPy9R+LxYjHo039C+EyO3uLRCJOLpdvyu/X2eVl7zur162mjF6HXiObzWAYRkD/hUKebHaFarVGrVZt07/VqH9qw+iV6/n7GXkKQHLP8NZlNx4VbDZaaB9NrQnRjGvt751GHv56+kZ52yzczkcynePy9NDCH2F5sxYbLbVslN+NR1j+BszN89xJxs30uD6+TiO81qh5kyx0DKMEnm2eVucRZif51+rfl32rNLaqZ+1Ft3k92+zZzsvMD7NZnBvnt1MaO49LTtPf30gDQLIv2I2G5G506Pcj+1m+/Zy3vWYv66ssl4OJNAAkEolEIjmASANAIpFIJHcVf8OhnFnY38hNgJKOuK4bcICyFf7u7c3XGiUSyYOOEN4m1p35AZBH/+410gCQbIqqqhQKBcrl8jYNAG8nfvsOd4lEcvCwLIv5+Xk0TdtW2+GfOpDcW6QBIOlIrVYLHBnbDoZhbPi8U0Ow2W/+2ehO76//XWzyfHvxvR02i7/T763/7ywPO9XZzuPaXMfbkXMnz7cqs42e3Un6G/92933P71z+Ow+zVdntLO3O5bPdOL1jj6UdnqBRG+6SJfcKaQBIOuI7Drkb8YRCEXR9vXGgqhqGYWIYdsCPuKZpGEYIwzDXnSf2ziW3HPK04lIxjFDTp/jaBsgwTHRdXxNGa7g7VgPp+HHourGhf3JdNzDNcOC4mqqqmGYYXTcCXtD8d3TdIBQKB9I3zRCgYBjhwLFH3wGNl34wLtMMNdIwAsfaFEVt/ra23Pz31+vMk993fNNq1NVmOMMwA2E0TW/o0gykr6paI319nSx+XGvT9+QJN8p5rc7U5vP2MIZhNMosiKIobXKur7ee/iMbyB9C05yAzvx8ra2zvn48HYSa8vtr3n6dXSujr7O18rfyq6wpS6VZ/9YuqXn1fOM6q+teuazVfyQSa6vLwW+mJefGOvPqWSsuTdPRdRPTFIFvQ1GC5bUzA2Dbr0ruEtIAkNwTVFWlq6sbw9CB1bZfPJ/l8XgCwwg1GiHvwhfDMEml0g23utFm46woKtFoAk0zsG234ZPdC6PrBolEstERmoH0Q6EE0WgMwzACjXYoFCYWS+A4TqMz9tA0na6uHqLRCOFweN05/Wh0fYOq6wapVArDMAJxqapKItFFLBZvGCitqdFEIkm1Wm003HogTE9PH5FICMMIxpVKdWGanmHQfjGRaXo68zt1vwFWVZXu7l7C4RDJpBOYmg2FwsTjCcLhaDN93wBLp3uIxeJEo5FAXOFwhFgsjq6bzRkfIQSGYZJMptakL1AUle7uQ0SjUWKx+jqjIZ3uQtM898k+um7Q3d1DNOrdSdEqf4VoNIHrQr3urOvMu7p6iETCDeOkledoNN0o/1Cg0wqFwiQSCVxXYJqtMJqmNeufouQCxkEkkiIWi6NpRqAD1nWTdLqLcDjU0IvfaaqEw1Ecx6VedwJhPKdRGo7jNOpmK8+9vYcIh0Ooqh7ogA3D+2bW1lnDMOnq6iIUCjWNU9+BVVdXN4oCqqo30/cNpmQyhWHoAY+CiqKiqiGi0TiGYayRP0I8Hse2wwFDTNM8/YdCZtvlWZL9ijQAJLvCemved12rBkaz3rtKo7FRGw1Wy6GN71Z37UjCf752ZO6Pwtc7PfHcxq694a2VhoIQwXTa41rrPAb0DeLy86aumznxRk1am5xBWVrvB+X03bquldOLQ90gTMtF8Hqdee+330rXLqeqig2fe46N1jvP2Uh+b/f3xun7sqydzfE6pZab3vbn/kU0LSdSLTfQvk43ypc/em6XR9fVDXXTqn9B+dt1ttanve8me21ZtmTx9db+XGmrB+1Gi9LMw0Zl1pKlPb8tl74b6bIVl7ImLjaos5uXpTeT45dLu2OoVv0Lyt+Ky5uhk1f77mekASDpyHan/xVFwbKsxm1nDvV6Hdu2m97RhPDcx4bDYVy3FghrWZ4702q1Gthv4DgWlUoFx7Gp12sBV6jVapVarUYul226e/Wu37WpVCqoqtrmotVPP0s8HsFx7Da3woJ6vU61WsVx7IBbXcdxKJWKKAqY5tqlC5tarUq5XGn6xgdv7bNcLhMKmU13w95zl1wuSzhsUqvVAhueyuUK9XqNSqUaCOO5XC2gKIJyuRJ4Xi6XCIdDlEqlQBjbtiiXy2ia1tB/S2fFYhEQ5HK5pk97L4wnf71eb8blbcpyyOfzGIaG76ffj8uyvDDlciUw0vP0X0bX29P3XNHmcjl0XSWfzwQ6Ls+1cAnTNKjX6wH9FwoFfN/97adLvPKvkstlAh74vLXnIooiKBbLzXLx3QdHo+GG/lt59mSp4LpuoM54FyKVcRwTywpuhC0UVonFQpRKleZSlJdnm3K5BAh0veXW2XU9N8FenrMBnfnudG3bDrgI9ssfYuTzxbZvyavn1WoF23YCYWzbplQqI4SLbdfx74AQQlAqFZs3I7Z/M45jN+Vsz5f3bZSo1aqNk0CtMJ4sFSwrmGf/d6B5T8N28Y1/yb1DGgCSjmw0ytrsvXq91vQLXywWmz7ywWtMs9lV0unUmpAC27YolQqNG9Fa97dblkU+n234KE+2NSaCSsVrmISwA52Z49gUi3k0TcW2ewOdFnh+7y1LD8RlWXVKJc8Pv2W1d0A25XIRVYVw2Fx3F0ClUiaXywamTW3bJp/PEovFAu96HZhNpVKiWCwE8uynXSgUAp2257++gK4r5PP5QFz5fBYhEhSL+UCj7Tg2hUIWXTfWGECCYjGHroPrWoEOsF735PeMLafZYTiOg23Xmh3aWl/05XKxrZy9MrNti0Ihh2F46beHqdcrVCqhRlytTtOXJxwOr/Erb1OtljBNDde1A3quVEqNfAVHma7rNspfoVjMbVj+vv6D8uebnWn7XQy5XIZEIhGIwy+3SqVMoZAL3CvhGS05FKV1D4D3m9vQWQlwAulXq2VKpRL1er1hnLbKv1TKo+tQqRRoN2Zs26JYXF9nbdtuyG1Tr3cF5M9kVojH45RK+TZdturM2rsA/LDlcgnDMAL6r1YrlErFxibhVj3zuVMfAPIkwL1FbrmU3BXW+kHfbGp8M/8Am800bHYXQPv05k78lG/WMG1+58DO3KQGlw02S3/9dHqnBnMncni/bS7LZvrfKL7gZsT1v3XK7051uZEO7jT9rdPZ3l0Ad5pGe5w7yddm38D65adg/rZbP7aqMzv5Zraqs5L7A2kASO4JsqE4mMhybyF1IdlvyCUAya5xJ6OE9ve3G67TSHE76exmvnaqg3sZpj3sTtLZLhuN5ncabidh3o7OthPuTnW89t87ydd22e26udH70qC5/5EzAJJdwTAMVldXKRQKVKtVMpkM0LnRME2TXC5HqVSiWq0yNzdHKBTa9H0/rhs3blCr1Rp3rRfX7dheGyabzZLNZqlWq+TzeZaXlzvuc1BVlWKxyNzcHPV6nZmZma3ER1XVQDqzs7NbhgmHwywsLFAsemvrS0tLWzbQhmGQy+UoFAqUSiVu3bpFOBzeMq3l5WXq9Tq5XI5isbil/IVCgVwuR7Vabf670wZRXdfJ5XJkMhnq9TqLi4tb5skwDG7evEmxWKRcLrO8vNyxLP28TU9PUygUyOfzrKysBI5/boQQgpWVFcrlMoVCgStXrmwZBuD27dvU63Vu37695buKopDL5VhdXaVWq7GysrJtneXzearVKsvLy1um45d/sVikUqmwvLy85TejqioLCwuBstzMeZcfplgsNuuyL9fd8A8i2VvkDIBkVzBNkytXrhAOh4nH47z88svNzVSbEY1GefPNN7Ftm3A4zJUrV4jFYhvsMm6RTqf55Cc/SaVSIZvNMjMzg67rgd3k7SiKQiwW4zOf+Qw3btxgYWGBcrncsQFUVZVarcZnPvMZxsfHeeONN0gmkx1lURSFaDTKJz/5Sfr6+rhw4QKp1NoNkEFCoRDnz58nFPIcGb300ktbhonFYrzxxhuNzWAWFy9eJJlMdtRZKpXiy1/+MoVCgdnZWVZWVrbsABRF4W//9m8ZGxtjdnaWSqXSMYyu68zOzvK5z32OwcFBvv3tb28pi6ZplMtl/uqv/op4PM758+eJx+Mdd5KnUik++9nPNjaQOrz++utEo9GOssTjcb75zW+Sy+XI5XJUKhUikcimYQCSySR/93d/x9zcHNeuXSMej2+5ByCRSPC5z32O0dFRrl69iuu6HQ0awzC4ceMGX/7yl0kkEnzlK18hnU53zJdpmly7do3PfvazGIbBm2++SSQS6Vj+yWSSz3/+81QqFYrFIpcuXcI0zU034CmKgmEYfPGLX+T27dssLi5Sq9U6lr/k/kAaAJJdwzRNXn/9dRzHIRqNdhwx+DvsXdfl5ZdfxnXdjg25j6IopNNpvvSlLzWc77QcuWzWcWiaRqlU4itf+QqmaW6rITMMg/n5ea5fv04kEtmWj/NQKMTU1BQXL14kEolseG57rSymafLSSy8BbOh8aKMwtVqNb37zmyiKsqVhAi2D5gtf+ELDYczWo992+UOh0LZ05ndOFy5cIBaLbWvEGIlEeOutt3Ach0gksqX84BmBL774IrA9namqSqVS4etf/zqapm3Z+YNXZ3K5HF/84hcJh8Pbkl/X9abBEIlEtpzN8MO88cYb2LZNNBrdVvkDfOc732l+M1tNzSuKQiQS4Stf+QqaphEKhbYMo2ka2Wx2R9+MZP8jDQDJrqEoyramo9eGWd8gd/ZP7o/qdoKqqsRisR2F0XV9y3S8xrqVX9M0t9HBtt7fufxKc7ZhJ3ieCTvPyKzteLYj/1o8l7076yw6TWG3aOl5Y511Cqc0PAPuTGeapq2Rf+tD6zvVmaIohEKhbeqgFWZj+Te7I0BpzoTtBE3T1oW5W3doSPYGaQBI7hJinS/3zfD3A3h4fu0TidSm69CO4xAOt1zReo1XfJ0f/HZCoTCmGWoLowIa0ejmjbHn2zzU9n+DZDLdMYymtVykKornVjWd7unQgAt03QzMICQSaWq12qYjZCEEqtrqRD23yj2B2Y6NZGl30aooSsOt8eadnudWuOUjQdN0IpF4R/mFUNa5Ak6lujoafvl8OSCr7z52s05cCHedK+BYzHMFvNEdDX5e2u+C8Na+TaLRzY0eTQveeeDny3MCtdkIWWvWea/8ddLpznouFCqBuh6LJVBVbVNZQOC6Qb/+hmGSSKQ2nVXwXASHAzrr7T20zgthIBXhNp0atfu82Kr+b2cGSbI/kQaA5K6hadq2nAaparBz0DQt0MBvFG/7ZSTgXbjiX16zcRq+y9lWo+ndN7D5aFQI1vni32q613Nb3PJv4F2s0nmKXAglIEsoFFrnZCj4vqB9v65/4c9674TtBF3OerMxkY758vTZuozJHyV3ChMKhQMdl6bpWy4ReCPi4A75UGhzPfuGhZc3zzjxLtzpZDTRSKMlfyKxdfm3119FUQmFQh2n7j35293tam33AGzM2uUQw9Cx7VAgnrVEo8FZIv+b2ex7875FHWjdBeBfQrXZbL93/0NrH4C3JBXfUmdrXXtvbixJ9hvSAJDcEzwPc16D4botb2+KQsMFq91wHdpyCuR5ywPHcXFdp83ZkOe+1HGchotamiPqVhjf21rL45/n7tdppquqWsNDn2iEsQMboTyXt3YzbX8HdXtePC9owWtzHcfCcVoXF3mubP0wouHtrSWLbds4jt3YI9CS3/eW57oi4KLYS8PGcdqPZHmdo9eJt2RpuY/1XC57Puy9ZxvJ3/J256fbcg+8URjbDupsbVn6OvPLH7wrpr0Lglp5s20Lw/DDqKgqzfz7HvZ8t8JefbIbZSk21JlXdq2yEcJzuduej43lby9/N+Caem2d8cq/pTM/XU8nG9cZRfE8D7aHcRyn4U2xVf6KorR9M+vL3xutt76ptd+Mbbfqv/+ObVtoWuu+DU1TG9+j2yzv9a6AKx3L33EshAiG8epza1ZEnhbYv0gDQLLreC5NCxuOcL1GpkaxmG+ONLzpfpVyuYiiKNi2TSwWCTTupVKhOW0uhCAeT+I4nn90gHrdoru7q9kBeh2T574WWssI9Xqt6Uq1XC6vcUVrkcksNy6J8WYHwuEolUq52enlcrlAR2TbFtlsprF7ncZo2KRc9vyze3kvNV3uAhQKOep1q9Egi+aUa6VSasq7utq6QVEIl0xmlXg81tyhH4nEGvJXURSoVCoNuUQzzPLyIt3d3Y0O0JsRqderzc4lny803fqCgut6bo0Nw785TiUWi1OtVprvZTKZpitYRVGwrBq5XAbHiTd0ZhKJRJp3KgBUq8VGJ+b933FsMpkVXNc7JeDPoJTLpaZRZ9uhdeVfKhWahl806unCc7Xb0lnLFa5LrVakXA418xqNxrGsOrVaDUWBUqkc6JwdxyGbXW3E7XV+0Wis4bffasgf9Ovv1ZkVhPB273vLKME6U6kUAmFKpRKVSrkpSyQSRdP05jezXhbv/opCIdecfveXyCqVMgCWZZNO++6zFUCwuroc2Fjo3yZYqZSbG3D9utDafOjdrdD+zbTL77sw9nEcm9XVZbq6PPl9nUmfAfsTaQBIdh2vEXc2Xa/3R3h+A+iPLnx/+a3RXwvXdZuNqL/xzo/HC+OP5taHg9bu6WCYYDrtPtn9KfG1aQePW7VGhX4Yv9P3RoDeiLb9jgTwZytaoz3/Nz9fa49n+TMAvk49WbzRv/dsY51577QMDz+9oM7Eup3nviya1tJHe97W6syffWmfUm5Pt123QR2066yVruu669JxXSdwb0GrrBz8ae+N8EfN/oxJq2625G/HH817+vL13Bp9e+Xa6pjXyq8o2jqdrZW/kyyKsvHJkbXp+B29X1f8fK01Gvwjpr4B1po1UxozEeuv8G3/ZtpnZHzjfG35+/K0dCbZr8i5Gcmu4484O7+jtL278W/bed7+6G42Pmvq2YsnAAAgAElEQVRl2OoM+MZhW+v+20hxG2ltlM722KluvPdbZbS7Dfv29LNxHrZTz+7M02Dr39ut05vHsc1Ud5y3rd672+XW6du8U11L7h3SAJDsObvRmbRvfrvTNO6sk9x9ttuQ7+fR1510RvdCnreTxk7CttfL3ZRrp+nci+9Esn+QBoBkT/DX7y3LCmy02ghvbdlqTsO7rrupp7/2MP60q6ZpVKvVju8Dzfz4jeVG06Fr0/DT8adVLcva1qYnbwOj2tw0tZ1G1E9nq3z5stRqteaU/namZP24/Snh7eqs/Qijbdvbkt/Xs+M41Ov1LU+P+NPTftztm+I64S1DaB094/lomka9Xg+U63bw9eXX0+3I7+ts7dJAJ2zbRtO05kbLTun4efF15l3t3FkH/hKEH/dOyn+nOpPsD+QeAMk9R9d1XnzxRU6dOsWtW7dYWVnZ0hf94uIiFy5coFgsMj09TalU6uhgRdM0VldXeeutt+ju7ubFF1/c0ilRKBTi2rVrXLp0CUVRmJ6e3tJZSiQS4dKlS8RiMSqVCteuXeuYjneG2+DChQsoisLKygrVarWjIxu/c3j55Zc5cuQI09PT6LresdMIhUJMT09z/vx5ent7uXTp0pbOZaLRKNevX+f1118nFovx8ssvb+nEJh6Pc+HCBSYmJrAsi5s3b26p53A4zFtvvYVpmqyurnLp0qUt3ffWajUuX76MEIL5+Xmy2eyWYRRF4Y033uDw4cNcvHhxS0987eUfjUaZmprq6GsBvCN909PTjc2VStN9dSei0WjTZbF/70Wn+q8onn+BV155hUqlwuzsLPPz8x3l0TSNhYUFzp8/T7lc5urVqx2vvPbTAXj11Vfp6uripZde2lZZTk1NcenSJQzDYGpqascOliR7h5y72UUcV8QqlUpxr/OxHTRN4zvffpFUKkVPTy+DgwMMDx/d1rn+rXBdh3w+F2h8/E6vXq+v6cwEkUgMVdUoFvOBTVOWZREKhSiXy02Xr/5vyWQK27YbO+eVRrre5jF/ZNfeASqKQiKRpFqtUqtVm3H5YXxajaznwCcajVEs5gPv1Ot1DMNojuR8nQkhCIc9h0TFYjGwi922bQzDoFarrXNfHI8nAGWd/OVymXg8vk5n/u5sT/5yQBbLsgiHw8102uVPJlNUKuXmCA5obh70R83tZ8BVVSUeT1IuFwOjSX92wZ+haJffNENEozGy2dVA+ddqtWa+2v1HeDqLYBgmpVIhsInNcRwMw6BYLAZc3gohiMU83/z+jnX/uV/ufhm168w7BVGnWq0E5Pd99q+V3/OEF6dSKTdOWCjN8vc7acdxAnVG00xisfV1xrIsNE1rvt8uSzQaQ9cN8vlsQGflcploNNqcCWj/LRKJ4p+caZfftm1M0zuF0m5kCiFIJFI4jk25XFr3nZmmSa1WW/fNxONJqtUK9XotUM/8DYeu6wbqmabpzbLZDq7rksnk+dSn/l8GBweZm5vj0UcfR+ngI2E/EYlE3tRU5cxe52O7yBkAya4jGuff2+3NUCi0rvFrvbsef+TseQUMb9qg+GetoXWe2uuIzLZ3OjsQ2ui3lgzr4zAMo9lpdgrrh/E7C7+x3DgvQUUoiufud73OWnpdqzvPKZHZ7Djb495Mz+0nMdrDtJ9O8HeC+3nww2w1wmynPV/rw6zXs29Y+fdKbJ5OSx+KojQvuWlPp1P5a5rWXJppH2EHd7oH65lpms3fg2HW5KwtXd/jYueZnOA3E4lEmgZt8JvZuDDbjZLtuuT2v7O1HflW34yfh/YBQ3udkexPpAEg2XUUxW8YdrarWdNaHvY64zeUyrZnLNpHgtsN46+5bu6ydaN01GYa2+sc/WN47FAWZUey+IbRzuRXGn+rO9bZ9svS19nmxth6RFMH2y2bO9GZJ4uyQ/l9ne2kzrQMq518M77Otod31HandcYLs/Pyl+xPpAEgWUe7N7S7gapqJBKdrzXdiJ2G2d7FO0HC4Qjh8HYvkvGIxXZ2IY4XpvPFOxuRSHS+Pnct/s1uOyEcjrLD+5qIRnd2iQzsvCwB4vGtbzZcn87OdBYKhQmFdqaASGTna9x3Umfu7JvZmfyqqgXujNgO3lLCzr6ZnbDWt4Bk95AGgCSAvwYLMDNzY49zI5FIDiKJRFIaAfcAaQBIAnib0GJ84hOfYGVlBcMwtnWP+d3AP7YkkUgOJq7rEo8nGB09yvLy8l5n54FHGgCSdQghmJiY4OTJk3zta1/nN37jX9Dffzjwjm07zaWCrY6keXH6F9QIVDW4Ji4EVCpV/vW//pdMTk5Iy18iOaC0byaU7cDuIw0AyTra/a/funWLxcX5wA7qxcV5jh07yaFDfdi2xbe+9U1U1aSvr2fD+Op171KdEydOcehQH4VCgVdffZnu7j4MQ0cIWFyca16YIp2JSCQHG9n53xukASBZh67rjaM9Lv4uZO/YEszOzvCxj/3fvPDCh9B1AxDcvn2bX/qlX+Zb33qRZDK42c1xHEqlMp/4xCd4//s/0Li+VzA1NcW5c+c4cmSQ1h30rYtHWte7CmkQSCQHBP846U43s0ruDGkASNahKApnzpyhWq1y6FAf4BkAlUqFD33oBc6de4Kf/umP8OlP/w0Af/EXf8HP//zP8YUvfJ7u7q5AXKurOX7+5/8bTp9+mPe+93289torALz11nl+8id/ik996tOkUt5u7+HhISYnJ1ldXeXjH/84o6OjPPzww4yPjzfdpkpjQCJ5cPGdZ0UiETkLcA+QBoBkQwzDwDCMpitYzwe54MiRI4DCs88+y4kTJ6hWa4BCLBZpvteO63qe7dLpFC+88CGee+49lMtlqtUqg4NDWJbdDJNKpUmlUmiaxsjIUX7rt36HdDrNP/tnv8zIyAhjY+Pr9iJIJBLJ/8/efYdHVaUPHP/OTNqk90ogIQGkF5EVFcX2c7GsDRUFdF0LiIJdcC2ggNgVFQUVFLEi1nUVXTsIKEVKgABJSO89k+kz5/fHZC6Jk0AsETDv53l4jMmcuffc+p57z3mP+G0kABAH1ToKDw42smbNWv71r6uZOnWK9nu73c6rr75Ke3NLRUaGsWfPHpqamrjttlu13+t0er744n9ERh4Yt+ztVBgaGsrkyZO45JLxlJWV8fTTC5kwYQLp6ZksXfoSp5469g+vpxBCdDcSAIhO0+v1+Pn5MXfuQ/j5edKyWq027HY7+fn5pKWl+ZQJCgpi374cZs26G4fD1VLGitVqpbi4mLAw3wQpbreb0tJStm7dykcffczq1V8yb958Bgzoz9ChQ/6EmgohxF+fBACi06xWG2PGnMSECRMICQlBp9PRu3c6oOPJJ5/klVeW+/QBMJmaGTfuLCZOnIjD4SQgwJ++fftgsVhITx9ASEiwT7rQhoYG7rxzJo2NDUyYMIGbb55BZmZmp/KZ2+0Ovvzyf7jdbk4//fSDzrLXmtPp5Mcff2Lo0CGHnAEPaJkBbS/x8XEMGzasU7kSmpqacLlcGI3GTndystlsWv77zigqKmqZNQ969uxJ3759OlWuvr4es9lMVFTUIbeZw+HAZDJp/TECAgIICzt0psOcnFy2bNnCkCGDOeaYYzq1XhaLBbPZTERExCG3sd1ux2azaevS2NiIxWIhPDy8wzqZTCa2b9/O8OHDtc/s2LGDsLCwdgNa7/d6JnkKaJm8pg6lIDo6qt3Ut3a7nU2bNjFw4EAiIiIoKCigsLCQiIgIBg4cgMHgWy+TycSOHVkMGzYUo9GI2Wxm+/btjBw5ssPtUF5eRklJKcceeywOh4Pvv18DePr0nHDCCQQF+R5zubm5uFwu+vbtC0BeXh6bN28mJiaWU045ud2Uv01NTfj7+xMUFIRSiqamJpxOp/b6rjWn00lDQwMAkZGR2t87s29E15NEzaLTjMYgfvhhHVOm3MCSJYtRyk1gYCAPPfQQK1e+2+Zxvld4eCirV3/ODTdM4+WXXyIkJJjGxkYWLHiYkJDAdi+YUVFRvPXWG3z44QdMnjyJQYMGaZ0AD8ZmszNz5l3cf/8c/vnPa5k27UZsNtsh61VUVMTZZ5/DSSed2KnkIyUlJYwbdy4rVqxg/PjL+Oyz1YfssNTY2MjevXu16XYtFsshlwOwf//+TidEUUqxbNkrzJx5N4sXL2bz5k2HnAMeoKKign379lFdXd2p9TKbzRQVFVFcXMz+/fvJyck5ZJmcnBzGjj2Dzz77jAsuuJht27YdskxDQwNZWVkUFxezY8eOg+7LqqoqtmzZQl5eHkopampq2Ldvn1bWZPKdlHPfvn2ceurpXHTRBOrr63E4HCxevIQhQ4bwzTff+Hze6XSSk5NDVlaWtk/27t1LUVERRUWFZGVl+RwHtbW1nHbaGZx44onk5xdQU1PDI488xoIFDzNhwhW8+OLLPsvJzs5m/PhLuO22O6ioqARg586djB49uqXPja+1a9cydOhIlix5EYD169dzxhmns3z5chYvXkxlZYVPmVdfXU5mZiYPPjgXgIKCAmbMuIUPPviQ77//zicpl9vtJj8/nx07dlBTUwNAWVkZ+/bto7CwkPz8fJ9zdPv27RQXF1NYWEhOTg5ut5vKykr27NlDcXExu3btorGxsd06ia4nAYDoNJfLRWJiAvPnz2XhwoUkJibywguLCQ0NITMzo90btN1up1+/vjzxxOO88MLzNDQ0snTpMkJCggkLC+nwxpmTk8Nrr63gq6++Yv369Tz44IOsXLnyoJkCCwry2b07m1mzZjJ06GDWr1/P3r17D1mv+voGrr76n3Q2v3lsbCyfffYJr7yyjMsvn0B29m7sdvtBy4SHhzNo0CD69++Pn58fzc3Nh1yO3W7HYrEQEdH5/O52u52rr/4njz32KOPHj+/Uk4mqqipiY2MZMGAA0dHRh/x8eHg4AwcO5JhjjsFoNJKSknLIMvv359OnT28effQRevRIIT8//5BlysvLiYuLY/DgwRgMBurr6zv8rNvtJj4+HvAEQg0NDSQmJhIWFobD4Wg3iKqqqmbq1ClUVJQBnimqIyMjmDDh8naPS5fLRUBAAMHBwdrfe/XqxeDBg8nMzMRut2M2m9uUKSkp4ZJLxjNkyDDcbjcxMTHMmXM/S5e+zM03z2Dp0mU+y6mrq+Piiy/GarVqMw7u2bOH2267ndBQ33kY3G43zc3N3HDD9VoL2+Vy8a9/XcMDD8zhhReep2fPnj7lwsPDePzxx7FarYAn2MzPL2D+/Hnce++9PvNqeKdHjoyM1OpfUVFJr169GDBgAA0NDT7179+/P4MGDSIjIxOTyYTNZqOmpoaEhATCw8Ox2+00NTX5rJv4c0gAIDrNbnfQq1cv0tJ6UVZWRmlpKaNHH8/JJ59Menp6uzdBu91BSkoKcXGx7N+fh9Vq4dRTx3Laaaeh17ef7au2tpa5c+exevXnLFz4LCeccAJKwWOPPcHmzZs7XD+XyxOA1NXVUV9fT0BAIHa745D1Gjx4EBdeeCF6feeGHgUGBpKRkUFQUBCffrqalJQev5hut31Op5OioiJcLhchIYeeUKe5uVmba917kT4UpRQ33XQz8+c/xObNWzpVxnuD3LlzZ6daY94Z5CwWCzabjaioqEOWyczMZPfuPSxY8DDl5eVkZGQesozBYMBut2O1WnE6nQd9ApSQkKAFL0opnE4nfn5+mEwmgoKC2g0cTzhhNOef/w/AM/lMWFgYEyZMYPDgQe0uKzAwkJ49e7Z5FWU0GrVt4f1Ma4MHD+byyy8nPj5eO7YiIiL44osv+M9/PmH69Bt9ljN6tGe9duzIBXQ4nU6WLHmJM844g40bN/p8Xq/Xc9ZZZ3HKKae0Wm/FsmVLue+++3nppZfafXpy0UUXceKJJ2KxeI4tq9XKzp3bmTlzFkuXLvV5ehQQEEBKSkqb+vv5GbDZbFitVhwOh892826fpqYmAgICtKmzrVYrFotFe40gDg/pAyA6LTjYyNdff8Nbb72p/a53774UFhYRFhZCVJTv7GVhYaG8//5HLFu21PstZGT0IDd3L6mpvdp9BVBXV8fatev4/PPPqKyswOGwM2/eXBITE9myZQujRo3qcB0tFiurVr3HxImX8+mnn3X64uLJMdC5x/KA9rj42GOHccYZZ3Rq2lO3263diBwOxyHffdbV1RESEkJxcTEhISGkpqYetEWv0+m45ppruOqqq9i3bx/33z+b119/TWsZt8e7fTIyMrDZbOTn5zNkSOc6WpaVlREdHd2ppwzbtm1jyJCBDBkymJycHHbs2M7AgQMOmkK6V69eZGdnk52djdPpPOQ2br2vdTodVVVV2lDWjoKH9o4Pt7vjY0Yp5VOmrq6OwsJC+vbt2+620Ov1bW6mLpeTxsYmQkOD2bx5M1dddVW7y3G5HPj5GVi/fj1Op5MNG9aTk5PLY489SmJiYrvbw7tuJ588lk2bNhMREc60aTdy7LEjOfPMM9qpq1t7yuDpe3MXkydPYsiQIUycOLHd/jCt69+zZ0/y8/OprPS8qmhvf9bX11NeXkZmZqa2fZqamjAajRIAHGYSAIhOczpdpKamcvnlE1i79gfuuON2evdOp7m5mbvv/jfFxSU+jw3tdgcjR47guONGsmDBQ6xd+wUBAYGUl5fxj3/8g/T0DJ+LRkhIKD17pmIymRg8eDALFz6Nw+GgvLyMM87wvYh5eUcm1NTUkJqa2jI98KFb5uDJQgiHfl/u+azik08+YcaM6Wzbtl1LlnQwbrcbo9FInz59yMrKwmQyER7e8XS3DocDm82G2WzG5XJhNpsJDg4mIeHgeRACAvyJiookONjI//73OTbbwV9NwIF57r0tO6XUIed28D52Tk5OPuRnwdMBcOzYsUyaNInq6hqysnbicrkOGjz4+/vTv39/mpqayMvL69RTFvDchPz8/Kis9Dye7kzw0Fbnb0jeoCkuLu4gHSGVtk2VUpjNFq68cjJJSUlccslEnn766Q7Wz4VOp2fnzl1s2LCOwsISSksLiI6O5qGH5rezvAPrXVdXS3x8HBERkfTu3VvriNce75OzkJAQ9Ho9MTGx9Os3sFM35oiICPr3709tbS3l5eU++6i5uZm8vDzi4xO0V1k6nQ6bzUZKSgp1dXW/ct+IP5IEAKLTSksruP76azj99DPIzs4mNTWVzZu3MHr08Zx77rncf/+DpKWltilTXFzArbfO4LjjRrFgwUP06dOHJ554kjvuuIOoqDjcbrdPz+H4+DiWLXuZpKQkgoKCCAsLw+12M2nSZNLSenW4fj179mTIkMG88MLzLFr0AqmpqfTp07le8J6Lp4PONEa++eYbLrroIgBefPFFTj11LP/4xz8OeoMqLy+nsrISvV6P1Wo96M0fPDe/jIwMXC4XOTk5hIeHExsbe9AybrebefMeory8DJvNxsKFzxwyONHpdISEhJCfvx+3201KSkqnbujl5eWEhIR0un/CSSedyOmnn0NNTQ3PPPMiq1d/eMgnB7W1tZSWluJwOAgLCzvkqwbvDUun0xEWFobBYKCmpgaXy02fPu2/cvCWaX2zc7vVQfuaeD/r7RRotVppampi7969pKWl+bwGUMrTq1+n8/QJuOWWWwkMDGTHjiweeWTuQVryVhwOO5MnT+KCC87nyy+/YvXq1cyefX+7LXOdTqe9htu4cSP//ve99O3bl5Ur3+f+++9rty6eV0yen5OSkli16n32799PRka6TzDf3jYoKyujtrYWi8VCcnJym9cDTqeT7Oxs7HY7DQ312O02evbsSUxMLLW1NVRWVuF0OujRo0eHyxFdSwIA0WlOp4OgoKCWDnzhrFq1inXr1jNq1HEYjUbc7vZbm4GBgYSHh3P88SfwzjsrWb36C+688w4aGkyEh/teyPR6Penp6T6/69//4EPHAgMDef75RZx++umAanmv37nWRWBgIBs3buxUaz4jI4Ply5fj5+eP0+kgLS293eFSrSUnJxMeHo7T6SQkJKRTrVnvBTg9PR1/f/9DLkOv1/PMM0+zefNmdDo9o0aNwmA4dP0zMzOpqqpqaf21P6HTL8XFxXX6swDHH/83Nm1aw9q1P7B589pOvWYICQkhOjqa4OBgIiN9Xy/9UmhoKJmZmeh0OmJjYwkKCqKxsfGgQxsjIiJYs2Ztm86PV111ZYevAXQ6HSkpKRiNRvR6PbGxsURFRWkt/PaCmqioSJYseYHevXsTHh7Oc889S17efuLj48jMbD8wSUhI4IcffiAhIaHlnAvhvPPOZdiwYR0GgqNGjcJo9AwXHTduHGlpaRQWFvHyyy92+HQiIyODZ599GoBjjz2Wt99+g8LCQsaOHdvhUNXk5GTt59DQUJRSpKWl+fRrMRgMJCYmak8+/P390ev1xMfHYTQG0dTURGxs7EEDDdG1Dh3qi9/M5VYhFovFd/zREchgMLBp40+EhYUxcOBA7UK2dOkyrr32Gnr3zsRqtTFgQD/uvvtuYmJitI5FAQGBzJw5kx07dmI0th2r39xs5sQTRzNr1kz8/f2xWq0EBgZRWVnJ3/9+lvYKIC8vh82bNzNixIg/ve5CiCNPdnY21dXVDBs2Ap3+6LhVGY3GLINeN/hwr0dnyRMA0WlBQYHs2LGT2267nWOPHYG/vz8ul4u9e/exe3d2u62MkJBg1q3bwC233MKAAQMwGAxYrVa2bt1GamqvDh8319bW0tTU1GoaYvD39yM+Pr7dVpZ37Hdzc3ObqYuDg4OJiYlF384FxOVyUVlZid1ub1MmNDS0w9atpy9CeZtHxkopIiMjO3wcbjKZWpLFtO2kFhUV1WHSofr6ehoaGtpsH51OR2JiYodPD6qqqjCbzW3q4u/v32GHMZfLRVVVFTabrc1yvC3v9vaNzWansrLiV9XfbrdTWlraZh3cbjdJSUkdtjIbGxt9hv0ZDAZiYmI6TAj1y23mrX9CQkK7T088U1tXtgy3O1AmICCgZc4LX94RE7/mmLFYLNTU1Ph0RIyKiuqwZW4ymaipqfHZB/Hx8R3W3/ec8dS/o1a2262oqan2OWaMRiNxcXHt7n+lFKWlpW1ekXTmnKmsrPQpExUVdchXYUIctVxuFWJqNquj4Z/FalNr1qxRW7duVQ6HQ3m9/PJSBajevTNV796ZKjg4QgUFhaqoqBgVGhqhIiOjVVRUrPLzC1bp6Rna5w78y1CBgaEKUJGR0So0NEJFR8cqvT5IxcTEa58D1JYtW5RSSn366WcKz0t5n3+33nqbqq+vV7+0aNGiDss8/vgTPp9vbGxUs2fP6bDMBx98qNxud5syFRUVavLkKzss8/PPP/ssZ9u2bWr48GPb/fyIEcepvXv3+pT56aefOlzGzTffqsrLy9t83uFwqHfeeafDMk8++ZRqampqU8ZsNqvHHnu8wzKvvvqaz3rV1dWpq666usMy//vf/3zK5OXlqdNPP6PDMu3Vf82aNR1+/vTTz1QVFRU+ZT77rONj5r777lcNDY1tPm+1WtWSJS92WOaVV15RVqv1F/WvV3ff/e9fVf+ysjJ1yimntvv5vn37q/Xr1/uU2blzpxowYFC7Zc4773yVn5/vU+bzzz/vcL2uvfY6VVdX51Nm+fLXOizz6KOP+hz/JpNJLVjwcIdl3nvvfeV0OtuUqampUddcc02HZTZu3OizXl67d+9Wa9asUU1NzYf9+tjZfy632sFRRJ4AiE5S5OXlcu2113HTTTcRHh6qdR6y2WysWPE6CxY81KZXv1KK/ftzmTlzJlOnTm3TArLZbFx//VTWrv2e9PQMAIzGYL788kvOPnscy5cv59RTT8Pt9rQadDodFRUVXHrpBKKjo5k+/SYiIiJwOp18+uln3HjjjXz00ccMGza0TWewXbt2MW7cOFJTe3DBBRcQEBBAc3Mzixcv4YEH5rB+/XqSk5O1MgaDgbVrf+DCCy/gvffe56KLLgQ8rev58+ezffsOsrKyCAsLa7OcN998k8svn8ibb77B8OHDAE+a1SlTbuDkk8fw5ptvtLyHVoAOi8XM4sVLmDp1Gq+8soyePT2dJzds+JHRo0ezcOEzXHDB+a1a2jrM5mYuvvhSbDYrjz32qPb0YOXKlUycOJFVq95j1KjjtO2s0+koKirmpJNOxM/PwPXXX09gYCAOh5PXXlvBnXfewXfffUdaWlqbFv2PP/7EZZddSmxsDGed9X/4+fnR2NjIvHnzKSjwZIILDw9vs26rVr3LmWeeyffff8+YMWMAT2a5e++9Fz8/f5/EP263m0cffYyZM2exYMFD9OvXD4CsrJ2MGTOGhx9+hPHjL9ae9uh0OhoaGnjooQXMmfMAc+bMJj4+Hrfbzffff8+4cWezbNkrnHbaqdoydDod5eXljBlzJgaDgbvvnkVAQAAul4sVK1YwZcr1rF69mgEDBmjbTK/Xk5OTy2mnnYrL5eaaa/4FeF5lPf30Ql555VWfY0av1/PNN99y5pln8t1333PyyZ76l5WVcd999xMXF+uzzVwuF6+99jqjR48mK2snAwcOAGD37myuu+56zjzzDD7//LM2rWaXy8WUKVO59977mTfvQXr16gXAmjVrOeuss1i27FVOO22sT/2vv34qCxcuZPr06URHR+N0uvj000+56qoref/9Dzj22BFtjuXdu/fw97//HwkJCUyYMIGAgADsdjvPP/8Cd989i02bNhMXF9um/uvXr+fiiy/i3XffZfz48YDnicy8efPYtWsPW7du1fpKgOfa8P77H3DxxZfx4YerGD58OEL8pfyVngAAavLkyaqhoUH7m8vl0n52u93qiSeeUIBKT89QaWm9VWpqLzVr1t0+LQmvyspKNXXqVAWopKQUdcMNNypAvf3228rd6ntbL6ewsFD16pWhrr9+impqalIrV76rAPX111+3WZfWy1y3bp0C1IoVr6vmZrOaMeNmlZCQpLKz97Spi7eM2+1WH3zwgQLUqlXvKZPJpCauieIAACAASURBVP75z6vVFVdMVCUlJR2Wuf/+2QpQW7b8rPbu3asGDx6m5syZo63/L+tiNpvVjTfepIYMGa5ycnLUunXrFaCeeeaZNnVpXaagoEBdeull6pprrlWVlZXqzTffaqn/Nx2WycnJUYC6/fY7lMlkUo8//oSCALVp06YOt9mXX36pAPXxxx+ruro6dfbZ56q+fY9RZWVl7dbf6XSqN954QwFqzZo1qqysXA0YMEjdcMM0VV1d3aaMl8ViUbfddrsCVGVlpdq0aZMyGELVwoULlc1ma7cutbW16rTTzlCXXXaZKisrUz/++KMC1BtvvNFh/bdv366GDh2hZs+erRoaGtRzzy1q2U9bOqy/9ynE448/oerr69Xs2bPV2LGnqX379rVbf6WUeu01T4v6008/VaWlpWrs2NPViSeOUXa7vd0yDodDPf/8CwqC1ObNm9XevXsVoObNm6/MZnO726y2tlZNm3ajiopKUNXV1VrLf8WKFR0eZ9XV1SomJlFNm3aTqqmpUW+95Tlm/vvfTzusv/cp1KuvvqrsdruaMeNmFROToLZu3dZhmf/85z8KUB9++KGqr69Xt912u7roovGqoKCgw2324IMPdvgkQJ4AdL2jo2fFUeqv1Anw9tvv4I47bicxMZGqqirKy8uxWq34+/sTFxdHSkoKJpOJV199lenTp+PvH8yZZ57G1KnXExMTg9lsprq6GqvVitFoJDo6WkuLO3v2HF58cQkA77//PhdeeCHFe/ZgDwigob5ey5yXnJxMREQE2dnZ3HXXTIqKStm6dROffPJfzjnnbKxWK0VFRVo2u9DQUHr27InR6ElgdPrppzFs2AjCw8NYtOg5Bg0aRGNjIyUlJTQ3N6PX6wkLCyMjIwO9Xs/q1asZN24coOeyyy7jiSceIyUlRau/zWbDz8+P6OhoUlNTsdvtLF68mFtuuYVTThnL3/9+FjfccAMRERGUlZVRUVGBw+EgMDCQhIQEEhISqK+v59FHH2PDhh/55puvePnll5k0aRJ+fn4UFxdTW1uLy+UiKCiIpKQkYmJiKC4uZsqUqTQ0NPHDD9+zZs1aTjhhNE6nk4KCApqamnC73YSGhpKSkkJYWBhZWVnMmHELoaEhbNy4hQ8/XMXf/vY3TCYTxcXFWmriyMhILdvbRx99zMUXT2Ls2L8RFRXJ448/Tq9evaivr6e0tJTm5mb8/PyIjIwkLS0Nh8PBu++uYtKkiYCO6dOnM3v2/cTExFBaWqq9Ow8ICCAmJoaUlBQaGhp45plntWFqjzzyCLfffjsGg4Hi4mKqqqpwOp0YjUat/qWlpdx7771s27aDLVs28dZbb3PppZfgdrspKiqirq5Oy7vQs2dPwsI8U1Ifc8wxDBo0lLKyclav/oSRI0disVgoKCjQ6h8WFkZqaipGo5ENGzZw3nkXMnz4UGw2G0uWvMAxxxxDY2MjRUVFWCwW9Ho90dHRpKSk4O/vz4oVK7jyyisZN+5c+vfvxx133E5SUhJVVVVUVFRgsVi09/I9evTAYrHw6qvLWb78Nfbs2cc998xi6tQphIaGUlxcTE1NjXbMxMbGkpSURGVlJY8++jhPPPEk4OL1199g4sQrcLvdFBQUUF9fr402SUpKIioqiuzsbObNm09paSnffPMtH3/8Ieeddx42m43i4mKtv0VwcDC9evUiODiYH3/8keOPP55+/fpjMBh45523GDRoEE1NTRQXF2t9B8LCwkhPT0ev1/Pll19x1ln/R+/eGfTokcqbb75OSkoKtbW1lJSU+JwzTqeTF15YzM03z2Djxo2MHDlSuyZJJ8Cud/BxReJ3mT17ToDT6fz34V6PztDr9ZSWlhAYGEh8fLzWYWvLls24XG7mzJlDamoPqqqq2L17NyaTCYfDgcVioba2loCAAGJjY+nfvz9Wq50TThjN1VdfpU0ckpWVRUVFBQ0NDRiNRkwmE/Hx8aSnpzN06BDWr/+ROXPmMGHCZej1et588EH8e/TAarFo+cJra2uJjo4mOTmZYcOG8c47K1m2bCnnnHMOdrud3bt3U1FRoc0K19jYSHNzM1FRUfTp04cTTjiRd955lzfeWMHgwYOwWCzs2LGDuro6rUx9fT12u53o6Gj69u1Lnz59qKqq5tlnF9KrVy9qa2vZvXs3TU1NWq7+2tpaLRf98OHD8fcPIDg4hDvvvJOoqEjKy8vZs2cPZrMZh8OB2WymtraWoKAgYmNjGTJkCNu2beeyyy7luuuuIzAwkH379lFQUIDN5pluubm5mbq6OiIiIoiPj2fUqON4991VPPLIw5x77jkopcjOzqa0tBS73Y7dbqexsZG6ujqSkpJITExkwIAB3HnnHaxe/SmjR4/GYrGwe/duqqqq2tTfarUSGxvLMcccw4ABfVi//ieef34RaWlp2gQ9DQ0NOBwOrFYrtbW1KKWIi4ujf/9jCAuLICQklCeffJyYmBgqKirIzs7GbDZr+fJra2vx8/N06hwxYgTl5RVcdtmlTJs2jaCgIAoKCsjNzcViseBwOLT6e5MhjRgxgs2bt3D77bdz+eUTMBgM7Nq1S7vJeI+ZhoYGIiIiSE5O5txzz+ODDz5iyZLnOfnkk3G5XGRlZWkdQW02Gw0NDTQ2NpKQkEDPnj0ZMWIY77//Ps8//zxDhgymubmZnTt3UldXpyVr8v4cFxfHwIGDSE9PY8+ebObPn0dycjLV1dXaMdP6nPHz8yMmJoaBAwdQVFRMSkoy8+bNxWg0UlxczJ49e7C0HP/Nzc3U1NQQFhZGXFwcI0YMZ+3atdx7771MmjQRvV5Pbm4uBQUFWlpek8lEfX29FtT17z+ADz/8iEWLnuXcc8/F5XJ5brKV1VisljbnjDeoGzNmDG+88Q4ffvgeQ4YMwWazsXXrVu088R4zFouF+Ph4MjMz6du3H0VFRSxa9By9e/emrq6O3bt309jYqJ0z3m0WHx/P0KFDcTo9nYnHjh2rvUKsrvZ0UExMTOpUboojgb+/f+WDDzzwwuFej846OrbqUeqv8ATgxRdfYufOXcyfP5eQkBDWrVuHzWbTxj17s7kppRg1alSbXu07duxg2rRpZGZmalPaJicnc/zxxxMYGEhwcDCDBw/26dVcV1/PoqlTGTNtGk6HA71ej8vlQq/XExERwbHHHuuz/vn5+eTm5gJowYv3vW6vXr3aHW+9fft2qqqqUEphMBjavNPs37+/T9Y9m83Gjh07aGxsxOVyERgYiM1m03qYjx492me8ucViYf369ej1ehwOh7YcnU5HQEAAxx9/vM+ohqamJtavX4+/v7/WYvbWPy4uThtN0VpxcbE28ZFq9Z5Vp9ORkJDAoEGDfOq/f/9+8vLyALR9aTAYcLvd9O3bt90JZDZv3qy1Fr0zNOp0OnQ6HQMHDvRJO2y1Wtm+fbs2fXBAQIC2zQwGAyNHjvQZP97Q0MDWrVtxuVwopdrs/6CgIE444QSf9SovL2fHjh3a+vv5+WkZAFNSUujbt6/PTcQ7I523/l5KKTIzM7V37F5ut5tdu3ZRWVmJ2+3W1su7rFGjRrU7EuLbb79tMz+Bty4Gg4Hhw4f79IS3WCxs2bIFu92utf69LWej0ciIESN8Rk/U1dWxbds2be6I1tssODiY448/3me9SktKWb1uNU9teYrnznoOt3Jr50xqaqo2RXBr2dnZlJSUAJ79r1r1Hejbt6/PxFB2u52srCzq6+txu934+/vjaDmn3W43xx9/PKGhobz00svk5+/ngQce0M4HeQLQ9aQToDgk70XF23oBT6KSiIgImpqatGFxzc3NbQIAh8PBtGnTSEtLw263k5SURHBwMOXl5TQ0NGCz2bDZbD4BgMPhwN4yfWuvtDT8/fwoKyvTWlAOh8NnKJx3+JPT6SQjw9MRcc+ePfj7+7c7FazL5cJut2uPypOSknC5XBQUFOB2uzuY2MjTslZKER4eTmJiImazmZKSEvR6vfZ0ozWz2axtv8TERCIiIjCZTJSUlGgttV8GANXV1dqNLD09ncDAQKqrq2loaKCpqQmr1drmpund9kopAgMDSUxMxGAwUF5ejsVi0dIJtw4alFJUV1ej0+kIDAykR48eKKXYu3cv/v7+1NXVtRsAeL/LmwioubmZ0tJSdDpduxMW2Ww2bZKY6OhoYmJiqK+vp6KiQhsS+ssAwLtfbDYbGRkZBAYGUl9fT1lZmXbj+OWwRpPJhMFgwOFwaDnni4qKtNazdya71vv/QB6LAJKTk9Hr9ZSVlWE2m9udrdHpdNLY2IhOpyM4OJiUlBTcbjd5eXkYDAYqKyt9AgDvPjYYDMTGxhITE4PJZNJeB1ksFp8AwPt0BSAlJYXQ0FDq6uqoqanB6XTS3NzsEwBYrVZcLhc6nY60tDT8/f0pKSnRJmxq75xpaGjAz+BHIIFk9M7ApVzs27cPg8GgHbett7NSCpvNhsvlIiwsjKSkJBwOByUlJbhcrnb3f+vt7N1mVquV/Px8bVbMA3M16I6alv5fhSRhFofkPSdbt6y90362Puk7SmnqdDoxm82YzWacTic2m61Ny7HdZfr5eQIEq1W7wXk/314Zg8GATqfDZDLhcrlwuVzaNKPtjQFv/V3e1qk3IPH+vaMyqmU2M6WU9hj0YMvx/tcbPFksFu1i3VFdwBMIeXuBe5en1+t9yuh0Om3b2+12beY875OajurjDTxMJlPL5DMurUxHWQe9rT7vtvWul/dvHW0z73wGcCAo6Kj+rUeRePe798bbEe+yW89K5w382ttmrdfN6XRq/7zr2FFdvL+3WCzaNvP+3F5+Cu8TH+/+8Nb/UPvfm9bX4XBox5m3THvr1nr/e5fTenx/e2W8+9jmsOFyu3A6ndox2lEGTe/3eQNB7yP9jtbL+3ullHaceV8dHWw54s8hTwDEQalWs59539lWVlaybt06jEYjzc3NDBs2jIiICK31U1xcgp+fH35+fsTFxWE0Gqmvr+frr78mJCQEpRS9e/cmMjJSa/3l5eURHR2t/S48Ph6rxcLq1asJCQkhICCA9PR0oqKi8PPzw+12k5ubS3JyCiEhwcTGxlJVVYXD4eCTTz7R0sHqdDotQYnFYqGoqIjMzEyt81ZDQwOFhYVaTndvpzHvk4ympiaqqqro3bs3wcHBWgt+z5492nttbyvVm07W2w8hNTWV8PBwIiMjaW5uZs2aNYSGhtLU1MTQoUOJiYnRWnIFBQUYjUbi4+NJSUlh//79mM1mPv30Uy3tbJ8+fYiLiyM4OFhrecbHx2vzBJSXl1NWVsb27dsJCAggLCyM5ORkrXXrcDjYty+HjIzeBAYGkpycTGNjIwUFBWRnZ+NyuUhLS8NgMGjpXhsbG6msrNReocTFxWE2m9m+fTs7d+7EbrfTt2/fNvMCVFdXYzI1k5bWi5CQEEJDQ2loaODnn39m586dOBwObTplb+u3qKiIwMAg4uPjCAkJISQkBIfDwVdffUVoaCh2u51BgwYRExOj3TTy8/OJjIwkMjKS2NhYCgsLUUrx+eef4+fnR0BAAH369NFmLHQ6neTl7adHjx4EBxuJjY2lpqZG69dit9uJjY0lOTlZS7drtVopLCzU0jEnJiZq/RO8+z8zM5Pw8HBtm3la67VkZPTG39+f+Ph4qqur2bhxI/7+/lgsFvr3709sbKy2zUpKSnG5nC258mO04+Sbb77BaDRq50x4eLhWJjc3j6ioKKKjPQmlgoODqaio4L///S9hYWH4+fmRmZmpJUJyuVzk5e0nKSmJ0NAQ4hPi0e/WE2GI4OOPPgY9xMTEEBYWRnR0tDZvRWFhEZmZGdo5U1lZSVFRkTZLY48ePdrs/6amJqqrq0lLSyMgIICIiAiam5u1V05ms5k+ffpof/NeZ8B3pkXRtST8EgcVFRXJypWrtPfr6enpREREaI8ZU1NTCQoKIiMjg4CAAEpKSrjpppu466672L59B4GBgfTu3ZuIiAh69uyJwWAgKSmJsLAwevfujcFgYMuWLWRkZDB37nyampoICQ4mLCaGiIgIkpKSCAgIIDExkejoaG2OgK+//oa+ffvyyiuvYLPZiIuLo0ePHlpu9vDwcO1mmpiYiNPp5PXXX6dfv36sXr0apRQ9e/YkLi5Oy7eekJBAeHg4aWlpREZGYrFYeOSRR8jIyGDt2h/Q6/Va4OJ9zJ6amkpkZCSZmZnaY/e77/431157PXl5edpF2DuXvHeeg/DwcNLT09HpdGRnZ3P11f/iwQcfpKqqCoPBQGZmJmFhYVqPfO9cAt6JU7799lv69OnDY489pmVVS01NJSIiQgu6YmNjiY+P18p88sknDBw4gPff/wC326393ftqIjY2lsjISHr27El0dDRms4UXX3yJPn368MMP6wDPhEuxsbHaxT0hIUHbx2FhYdTV1XHPPfdw6qmnk5WVhcFgICMjg/DwcFJTU9Hr9SQnJxMWFka/fv3w8/Nj//58xo+/lLvvvpvi4mKMRqMWcHlndezVqxeRkZ6Z7cAz2c15513AU089RWNjI+Hh4dpxFhsbq/U3iY2NJTExEfCMMOnXry/Ll78GeCa/8R6LISEhxMbGaiNaYmNjcbmcrFixgn79+vHZZ58Bnkfy0dHRJCYmasvwdpjzvqpYuPAZTjvtTLZt2wZAnz59tOPfz8+PlJQUgoODtdc75eXl3HzzzVxyyWXaa46MjAxtFIufn1/LTTtUe721a9cuMjMzmD9/PvX19YSEhJCWlkZERAQ9evTQyrTeZt9/v4a+ffvw6quvYjabiYyMJL1XOoZAAzGxnht/TEyMFjQCvP76G/Tr15ePP/4YpRQpKSnEx8eTkJBAcHAwcXFxhIeH06tXL6Kjo7FarTz55FNkZg7hyy+/RK/Xa+dTcnIyAQEBpKSkEBkZqQUB5eXlrFmzBqMxuFNTSwtxVPgr5AGw2+3qgQceVMnJqernn7cqpZSy2WyqtLRU5eTkqKKiIm3Mcn5+vho6dIS688671L/+9a824/Obm5tVcXGxysnJUaWlpVqWtfXr16vBg4epGTNuVuPGna1mzpylrDabWjJrljKZTKqgoEDl5OSoqqoqLcvYxx97xhvPnj1bDRgwSM2a9W9tfevq6lReXp7Ky8tTtbW12pjjBQseVmlpGVr2v1Wr3lMul0u5XC5VXV2tcnNzVUFBgZZl0GQyqQcfnKtOPHGMuuWWW1VaWob69tvvtG1SVlam1d9kMimllCopKVVXXDFRjR9/iZo1a5YaOHCIlmvAarVq9S8pKdHqv2fPHtW7dx91332z1TnnnKeuuuqfqrS0VFuHwsJClZubq8rLy7Xx5F999bUKDAxT998/W5166unq0Ucf1TL91dXVqfz8fJWXl6eqq6uVy+VSDodDrVixoiXHwLMqISFZLVmyRCnlGctdXV2t8vLy1P79+7X6e8Z+36KOO+5v6oEHHmgZ379WKeUZv15ZWalycnJUYWGhamz0ZNmrrKxU1113nbrssgnqhhtuVCNH/k1t3eo5ZsxmsyotLVX79u1TJSUl2jGze3e2Ov30M9XkyVeqK6/8pxo9+gRVVVWtHTOFhYUqJyenTf1/+ukn5ecXru655z41cuQodeON01V9vSc/RUNDg8rPz1e5ubmqoqJCGw//3nvva1kBBwwYrBYvXqwsFotSypOtzlv/2tpapZQnR8FLL72kMjL6qnnz5qugoEi1cuW7SinPWPaKigqVm5ur8vPztfo3Nzer66+fok477Qz10EMPqR49eqkffvhBO2e8x0xhYaFqbm5WSilVXFyszjjj/9Sdd96lpk69QZ177nkqJydH+76SkhKVk5OjysrKtPX96aeNavjwY9WMGTerSy+9TF133fXa9zU2NmrnTGVlpXYuf/DBByo0NFItWPCw6t9/gJozZ45yu9wqtyxXXbzwYlVcWKwdM17PPPOsSk1NU//+9z0tmf7anjN5eXkqPz9fyzLY2NioHn74YXXccaPUHXfcqQD1zTffaMdMeXm5zzlTWVmpxo+/VI0Zc0qbZXuODckDII5if4UAwHshevLJpxSgXdB/KTc3V/397+PUzJmzVF1dvWpoaFA33TRdpaX1Vrm5ue2W+e6775S/f7iW+CYvL0+NGXOKunPW3erOE09st4z35v/aa55UtT///LPS6YLUww8/ol0EW7NYLOqZZ55VgPrpp5+UUkq9885KBai33nq73SRFtbW16rbbble9emVoiV+WLXulw3SvSilVVFSkRow4Tl199b9UdXW1amoyqdmzH1CjR5+osrOz2y2TlbVTBQaGq/nzH1Imk0mVlpapiRMnqXPOOU+Vl/umu1VKqU8++e+BZElut8rKylKhobFq7tx5PululfIk6Hn99dcVoD766GOllFLffvudAtTSpcu0hDutNTQ0qLlz56uBA4eoXbt2K6WUevHFlxSgvvrqqw7rP2XKVDV+/CWqtLRUud1uNXfuXAWotWvXtltm165dKiQkTt14443K7XarqqoqNXXqDWrcuLNVXt7+dsts2OBJ/PPcc4uUy+VSRUVFasyYk9WUKVPbTXfrdru1+n/22WqllFI//OBJDLVo0SLtptqa3W5Xjz76qALU99+vUUop9emnn2qB4y/T3SqlVE1NrZo69QZ1/vkXqJycHOVwONRTTz3dcs5s8/m8Up5zZvz48eq2225XVVVVymQyqenTZ6iTTz5FZWXtbLfMDz/8oGJiEtUDDzyglPIE3RdeeLGWGOqXXC6X+uqrr9okS/r5559Vnz791cMPPaI27t6oJr04qU0ZT5rkJQpQP/7oOWc+/PBDBagXX3yx3fWqr69XM2feraKiEtTu3Z5jxnuerV69ut0y5eXlaujQEWry5Mk+6a2VkgDgzyBdLrvQX2EYoJfZbGb+/AV88cXn3HLLzdo0oDqdTksFrBS8/fab2vvzzZs3M3LkSC655FImTryiJXWw0nqMT5gwgSeffIrrr79O6wuQnb2HcRdfwrG7dnDVf/6Dy+lqKaOnvLyMqVOn8uabb3HJJeO1ddyxI4shQwbz4INzGTJksJaiWKfzpFb1pC/dxIgRI1o6pLn56KOPuPjii1i0aBEpKT1Qyq1th++/X8tzz73Ihg3fMXSoZ9pam83G8uXLmTJlCq+//rpWf+8p9M4776DT6XjssUe1oVDNzc3cfPMt5OTkMHXqFO1drk6nw2y2sHTpMvr168ejjz6s1b+goIBp024kMTGRf/zjvDbbzGw2c8UVV7Bw4TPceOM0rRPXTz/9xN/+9jfuvfd+Ro0aqXUc1Ov1FBQUMmPGdP77308ZN+7vWieu//3vf/zf//0fzzzzLL169dR6YQNs3LiJhx6ax65du7UpmB0OB0uXLuPGG29n2bLniYyMbNlmOnQ6eP/9D8jN3c+bb67QRg80Njby7LPPce+99/D++x+0LFu1dLxzMX/+AsaNO4vbbrtV66dRV1fHmDGnMXToQC688AL8/f1btpme+vp65s6dx5QpU5g+/UZt9Ehubi4TJ05m1KjjWlIBe5bj6dVfztSpU1i5ciWXXHKJdjx///0aTjnlZB5++GH69x+gpZzW6w3s27eXO+64g6+//oZTTx0LeN5Rr1y5kgkTJvDCC4tJTk5q03N97dq1LFmylC1bftT6S1gsFp555lmefXYRCxbMa5UK2NMp8s0336SurpZVq1Zp/UcqK6u47777yM7ewx133IbL5da2mcPh5JJLxjN//kPcdNONWv+J/Px80tPTufXWWzn55FNaaujZZmVlZdxww1Ref/11Lr30Um0kwNatWxk+fDiXT7uC0rAS7jjxDpwuF3q9Z/TMXXfdxYYNPzJq1Ch0Ok/9P/74P1xwwfksXryExMREbf/r9XrWrVvHqlUfsHLlm9qMnk6nk+XLl3PttdfyyiuvEBUVrZVRys2HH35EQ0MjixY9R0rKgSmGvWQYYNc7OrbqUeqvFAAA2O0OXnjhBb766qs2f3e5XIwcOZJp025oMyPYzz//zP79+9m0aTNZWVltytjtds4//x9MmjTZZwrh3Lz9LJ0yhZ1h4RhQrco4mDx5EpdddqnPuv3000889tjjOJ3ONr3I9Xo9t956CyeddJJPmY8//g9LlixpM6TK7XYTFxfH7bffxjHHHNPm8zabnbfffptVq1b5DClLSkri4YcX+Mxb39DQwAsvLGb9+vVtetY7nU5OOukkpk+/yWfoYH19PdOnT6epqbnNLIZOp4t//vNKzj//fJ9e+llZWTz11NPU1NS06Vlts9mYOfMuTj75ZJ/6r127lqeeWojb7WqzzYKCgrjnnnsYNGigT5lXX13OypUr2wzddLlc9OnTh+nTb/IZO9/c3MzLLy/l88+/ICjowHZ2OJwMHTqEmTPv8pkRr6ysnKeeeoo9e/b4bLNTTz2VW2652af3/P79+7nrrpm/2P+e+kyZch1nnXWWT4/zDRs28NRTT/9iZj9Qys19993rk2/C7XazevXnvPzyyyh1YHSMdyjpY4896jOLoFKKp59+mm+//a5NXbznzJQp1/vkTjCZTDz99EI2bPiRgIADx5nNZuPss8dxzTXX+AydLSws5PHHn6CgoBCD4UA9XS4Xl112KVdccQW/tG3rNmbNvZsvLP/j4uCLcLqdKAV6vY4ZM2Zwyim+x8wXX3zBE0882WboptvtJjIygjvvvJOBA9seM3a7nZUrV7Jy5bttzn+32014eDhPPfVkh7MISgDQ9Y6OrXqU+qsFAF5NTU2tWr+e1klISIjPBXbTpk00NjZy6qmn0tjY1Oqi7bmpH2wq0Bfvvpsr7rm31QRCCr3eQGhoSIdlDgzjO7CcgICADqdPBTCZmltaf61vgIEdTlPrW39apkMN6XDonGo1BOpQ28zL5XK1jEU/UBedTk9YWPvTB4Onx7onf8GBMgaDHyEhwR2WMZstOJ2ONmWCgoLanT7Wy5tquXWZp9C81AAAIABJREFU4OCDd+DyTNPbdkx5RETH+/9A/b3LOXT9Dwzja11/g0+egda8mQZ/TRnvcNbW+99oPPg2a2oyaa1f74RQISHBHR4zbrebpibTrzpn7HZ7y/C6ztcluzCbWR/M4q1r38LhctKZc6a94/9Q54x3qG3bcya0TbDis24SAHQ56XIpNKqTQ3A6msO8Pd7x/ge72LfHYbMd9GbfnsDAg1+E2vNrlwG/rv6Ali/91zAYDL96rvSgoKCDXrjbExxsBIyH/Fxrv2UO9/Yy5B3Mb6m/n5/fry5jNBp9nsAcSnBwxwFVRw4WuLTHk/Xy19UlICDgoEFIe/z9/fH398cYYuz0UfBrj2WgTYKwX+9AsCH+WDIMUGiCgoKwWq0trZvfT6fTtZkCWAhxZFFH6Nh7t9vdksrZgEGGBnYZCQAE4DnhEhOTaGpqpKqq6g/73t+a2lNSggrR9Q6WjfNwam5u9uQ3+A1P6ETnSWglgJZ3spGRhIVFkJubi1KKyMjI35yq05tP3JuL/tc8CfAPCMBpt2NpbsZ1BLZOhPgrMOgN2jwJNqsNh9NxuFcJ8PQXyMvLw+FwtIw2kGtAV5EAQGj8/Pzo268fhYUF5OXl4XQ6Ub/xEb7eYNCmQA0ODvZ0gOrkeWzw96emsJAf1q/3nPxyARDiD6fX6ymuK6aqsop1P6zD6XZ0+hztCgrPEwmDwUBoaCiZffoSFhYmrxG7kAQAQqNaZpPr3bs3zfEJOF3O3xx9G/QGrC1zpffvPwC36vxJ7OcfwJb4eI45pj/qcF6RhPgL0+v0BFQEEZEfwTEDBuB0HeYnAJ4IAIPBgNFoJDAgQG7+XUwCANGGZ+y8gfBf2Wv7lwwGA5GRkbjdipjYWNxuz2QfneEfEEBgcDAxLROyyCNAIf54Br2BOnsdAUGBxMbGHjGvALzkvO96EgCIdv3ek0+1zCKolFv7768u63ZL+1+ILuLWzs0D/0T3IqMAxJFLLkhCCNFlJAAQQgghuiEJAMSRS0kGMCGE6CoSAIgu9ttv4Or3FRdCCHEQEgCILqVaplkVQghxZJEAoGt16+2r1+vR6duf7eygFOj9/KUToBBdTKfT4WeQwWB/oN8z69GfTvZ81zIZjcahwB8zu85RRK/Dkdmnz8Rms9loDApc6ga/zo7p0+tobv7+uy8DQkLPM+i6dxAlRFfRgTs1vWfffRV7rwwI8Jvl5+/366YSFL+kA6yHeyV+DQkAupBBr1PA9sO9HodRMZ6IeO+vLTgPbAEGXfYfv0pCiFYUZ1Kr0+lyDveKiD+ftK5EVzLwG48xnXT/E6LrfYmBELkPdFey44UQQohuSAIAIYQQohuSAEAIIYTohiQAEEIIIbohCQCEEEKIbkgCANHV5BgTQogjkFycxZFMhgIKIUQXkQBACCGE6IYkABBHMnkCIIQQXUQCACGEEKIbkgBAHJF0dHbqICGEEL+FBADiSCavAIQQootIACCEEEJ0QxIACCGEEN2QBABCCCFENyQBgBBCCNENSQAgutrv6cgnx6cQQnQRucCKI5mMAhBCiC4iAYAQQgjRDUkAIIQQQnRDEgAIIYQQ3ZAEAKIruZGUvkIIcUTyO9wrIP44CqKBYI6Mm679ToiuhbClkMCvO9ZMcyEA6QQohBBdRgKAv5DpsG00/KiOgBunAdzBkOkP/m9DP9eveNrkD44ayATsXbiKQgjRrUkA8BcSDzUTYfzhXo9WrgIigYW/tuAC6M+R8SRDCCH+kqQPwF+I+who+f9CEBD4Wwq6PcHpkVYfIYT4y5AAQAghhOiGJAAQXU1a8UIIcQSSAEAIIYTohiQAEEIIIbohCQDEkUxeHwghRBeRAEAIIYTohiQAEEckneQAEEKILiUBgDiSySsAIYToIhIACCGEEN2QBABCCCFENyQBgOhKCnmML4QQRyQJAIQQQohuSAIAIYQQohuSAEAcyeT1gRBCdBEJAIQQQohuSAIAcSSTJwBCCNFFJAAQQgghuiEJAIQQQohuSAIAcSSTVwBCCNFFJAAQQgghuiEJAIQQQohuSAIA0dXkMb4QQhyBJAAQQgghuiEJAERXkycAQghxBJIAQBzJ5PgUQoguIhdYIYTorpzocOM63KshDg+/w70CQgghDpO/42QyQ5lKNgp1uFdHtKHDRRMvMQUdW7piARIACCFE97WHFRx/uFdCdOBrbqWBDOiaAEBeAQghhBBHIjP+GHB31ddLACCEEEJ0QxIACCGEEN2QBABCCCFENyQBwF+IgSNuOI+D35cISJIICSFEF+nKUQA3Aj1Bhpb8SWxVkArMxbNfD/fN0wmMBlYf5vUQQgjRjq4MAG4GrgSMXbgMcYDZCJPw3HADDvfK4Gn9h/L7nkoc7iBGCCH+sroyADABG7rw+8UvhEIj8MPhXo9WjgEiD/dKCCGE8NWVfQCk9fYncx15fToMh3sFhBBCtO9Iu2EI0ZoEkUII0UUkABBdTW7iQghxBJIAQBzJjrRhjUII8efxx42x61IBy2RA4ojkBoOCTKCJ7v0UwQH4H+6VEEcFJ55+N935fPkrsd2wjZhjKzBdCz1o/35dpYPm37oACQDEEWkGvPgO3E83ziMRAPZv4fITYSWgV3JhFx3wB8cGOLc/fB8CZjlWjn7+4Ix+lUGVNkzvwcnOVp2qdaBMYHRABXD9YVzNDv18uFegu5kD2w73OvzCFODOw70SR7P5sPFwr4M4OiyFVQrCD/d6iD/QBm5GcU57f1IQ8gJ89Hu+XvoACHEEc8tTOtFJTs+rouDDvR7iD1RNICaCOvhrsO53PiGVAEAIIYTohiQAEF3JebhXQAghRPvk8aL4vdKAQfg+irIDxwI5f/YKCSGEODQJAMTv9RSwE88NvzUnkIF0Bv1dDPIURXRSkOccNB3u9RBHDwkAxO+VAFzYwd92AUuAW5FhSb+Fcz/0wxNgHQ2v6xQQCNiQ/f1nc30L6Q/AFjxB45+x/XWAFbgL+OJPWJ74g0kAIH4vhec4aq+l+mHLP/EbpXuGAR53uNfjV9gCjDjcK9EdjYV3l8HVuj/3KcAFwGAkADgqHQ2tCiG6LdfRF6RLy/8wsUIAEPonLzYQSdl91JIAQAghhOiGJAAQQgghuiEJAIQQQohuSAIAIYQQohuSAEAIIYTohiQAEEIIIbohCQCEEEKIbkgCACGEEKIbkgBACCGE6IYkABBCCCG6IQkAhBBCiG5IAgAhhBCiG5IAQAghhOiGJAAQQgghuiEJAIQQQohuSAIAIYQQohuSAEAIIYTohiQAEEIIIbohCQCEEEKIbkgCACGEEKIbkgBACCGE6IYkABBCCCG6IQkAhBBCiG5IAgAhhBCiG5IAQAghhOiGJAAQQgghuiEJAIQQQohuSAIAIYQQohuSAEAIIYTohiQAEEIIIbohCQCEEEKIbkgCACGEEKIbkgBACCGE6IYkABBCCCG6IQkAhBBCiG5IAgAhhBCiG5IAQAghhOiGJAAQQgghuiEJAIQQQohuSAIAIYQQohuSAEAIIYTohv5qAUAisBbIBZ5r+V0Y8DQQ3vL//we8DEQC5wJbgbeBwJa/LwB2ABf/4rtvBIa3/Hwc8G3L5y74g+sgDi0UeATIAT4D+rX8/nbg+Jaf44A3gdFAFPAVsA7PvgP4B7ANmAcYW333GcDElp8DgDeAfODxP74aooscD/wI7AdmtPwuGXiMA+f5tcATgB8wBcjGcyz44dnvbwGbgJGtvjcCuBlIafn/c4AtwA94jjPx57kYz7bfBUxo+d0o4A489zUDcDfw75a/3dfy2ekt/98D+A+wHs99wysVuI0D14TJwD7gc6BPF9TjsPorBQARwArgLCAD+AZ4FM8JHQe4gJPx3LBvaCkzDhgG3A+MACbhudgPBi4E4oFo4Cbgag5sr0jgbDwXh5Nalif+PLfgOZkz8QRmDwMhePaLP54T+iFgDp4TfDae/X4KnhM8ExgDDAVKgEtbvveC/2/vzONsKv8H/r7LrJZhbDNmhmGyr4Vivlm/qIgiIkShSSTrVESRLBVqUPyylKUvUYQKlYrssoaxZRkzGIYxZl/uPb8/PneaMe65s907m/N+veY1c+c595znPOvn+Tyf5/MBplvuhSV9KuAP3ACeceRLadgFL6TOWgI1EGHxNWRCqAikIgKeLyIwPoyMHXWRQb4mMAZYDvwHeAsRGqoik8jTlueUBpKRcWMg0nZKO/rlNACpq/5I2ddHhPqnkb5fHjADbwLRyDjQAxEG6yOCXhVEkJuCCHGfAjpkITEdqXcT0pYikIl/KjIHlChKkgCQDEQikzXAd8jKXg+kIANCNyAYGQQaIZP9CmTi34s0mPJZ7mtAVhPLkAYG8AuQAChIQ3FDoyC5AfRCyv0CMA3pwCbAFency4CzQHWk078HLAX+RNqDDnC33E9B2kk4MmDoLP8/aLkHSNuo4MB30rAP8Uhdpmtx5gG/IXWaDPREJvkplnQ/y+/1iMBwFohCFg1GpG0oSN//HtE4OQFxwK+W7yYhQoLRMa+kkYUYwBvR5oIs9I6RUcdDLdcssqSXRbQ23yN1FIn0Z09kfFcy3ftLpN87AdeRtgNS3x4OeZtCpCQJAEnIRO6MTOy/IhWYiEh265CGEG+53hWRIN8AbiFqpC3AXWAH8BUy0dwko0FkpTdwDThh/9fRsMEXyER9HFED1kA6aLrKvjVSbyBtvAsyGCxHVn1hwAakc5uQwd+MqHxjyBAA0mkENEM0TBpFm1hkxdcKGQdCkH6cgqz2FiNjRTpVkYngRWRl2QbZOmqCbAN8YPnuZaR9ZJ3kdYiw8SdwxwHvo3E/1xBBbjCinh+D9HczEIRs7VzNdH1dZB54FWhv+fwl8ALSPsYiQsAZRLOYtY7LIFrC/znkbQqRkiQAVEAm+mmIyvYlZA/IDRkAGgOhSCMAaRA7kU67E1H7TEZWAG2R7YHHMt0/86TgjKj9ApAGpFFwGBBV3kFENfcIsp9fHqmjV5EBYSRSTynAEcRe4C+kbTwFdEC0QteBYZnun7VPtEYGmumI5kijaOODTOgjkLpejahunZA2UxPZCuhmuf4mYhsSjwiULZAJZBHSrkaRscVn5N5xoDSyHRWDaBw1CoaaiODeFxkDTiN1pQc2Iar7p8mwywhDtLiRiPDwMDJPTAD6IfY96XYABu6t4/KI1vgIYutRoihJAoAeeJuMlXo1MioyHumknyJ7/o8jxn8NLOltEckvIdP3PREtQTq6TPd7DlEfv8+96iMNx6MgE3i6+s8T0eyYgDTgNjLQhyJ7vxGW9LKI4BCDCH3pbd8dsR1IR5cprTpS1+8AVxzyNhr2xhmpr3SqW37rkLqPQwx9uyMT+1lkRQgiEJ5DhMb0caAS92r/0scAPfAKYnD8f3Z9A43sKIvYZqTjg6z+FUS1nwjMRTTC5ZCtvYeQuquF2AOYyVjpV870d/o4ryCLx2BEQ1giBbySJADcRPb/f0VWe8Msn5ORfeJ0ZiOr9/LAWkQQ8AYWIlbCTyPqvlBkKyCd68jgARCIrAxOA1uB2o54IQ2rmBFB7jFksN6AWPreRSb79C2eRcjWwNOIYPit5bopiL3HGeAkoi6ek+n+d5GVAoh2oSsiUKRfq1G0uYjs++9F+r03MhkkW9L0iAC4ClH9hiITxGlkLNiEDPofI+PAl5Y0kLZ3DdlCKIdoC2YhQsQ3lMA94iLKUcRg8xBSN9eR/p2AjAEGZEG3A1nlb0ZW+MeBH4F9iAZgOaIdGIe0ARDh7yqymPBGFoxfI2PNYoe/WQniSGFn4EFjihjCFDS70YyfHMa04tePilt+Swz/BxuVe4+0FQR9kG0QDUfwA28Se9+RdAAUqLRIDBvzTEnSAGhoaGhoaGjkEE0A0NDQ0NDQeADRBAANDQ0NDY0HEE0A0NDQ0NDQeADRBAANDQ0NDY0HEE0A0NDQ0NDQeADRBAANDQ0NDY0HEE0A0NDQ0NDQeADRBAANDQ0NDY2iihtmR906Px7cvBEXuCbETWIk4le9Chm+lkE8U11HfPOn++dPBg7k49kPEg3JCHRzm4zIg96I29u7Dn6+AYmdoCBhUk9Z/h+A+EE3kxFrPQqJnFULCY9qQlytRjs4jyWBqkiQk/RYBDsBRZHPlciIbljUCAB8kT69H2kP7kh7CLNcUxbx0R+FjBlVkPeKBv4u4PwWR5yROBZlkHILR9wcGxA/+JFI+TuKBkiwtSTEnW4SUocmy4+CBEYyIONRI8Qtsg5xzfuPA/NWUiiNBLNzR/r/WeAaTphZSTVHPTSvAkBtxK96PNLw4oD5yAT/BRJaMwUJstELCak5GQmucBV5yceABWjBdGxhQGLYH0U6lhcSknIL0vGvk0kA0Nm/LMsikfX8kcHbHfGffQBYYvnbhHT2IMT/ficket4RS/71iP99TQiwTTAiBFxCBtdHgY8tAoAfRVMA6AAMQupWh0RZc0ICNU0EOiLt8z9IUJ5liJ/+y5b/uyOCzjcFnfFiRg3gMyT0tQlZEHyKjAvVkfJPNkpavNpN8kgv4BlEyHBFYmjMR+KptEFCZKcgwZUSkVgsSxFhMBEZ87+3/F9DnUAkbsERROArBYyjFGkcKXoCwGhkAthl+TwAmdAvIZ37JaRRmCy/QRrDR4i2AOBzoDkSaEXDOjpEmzIeiXP+EBLm9CCy6kpE4lTXBdqVkknanvS0PONly2c/ZKI/jqxCGiHCYBoiCJqRkLnrEGEAJCLfc0h70bDNDDLiOXwItLAIdX5IfddF6v87JJBNYaIDhiJBVUIt/3sdEQbjkXFgKBKIJ42MUMo3EaEyAYnkOBWZLC4VUL6LKweQoDVmRKAagASoqomssoMugf9D8CcwBAmUk198gCeQYFoRlv99igggdxCNZH8kgFIqUs86pD2MtnxuiMwHB3C8trK4sw0JLgUidL2MKylEUB1ZXD+HjMlJSNjzfC+q8mID4ItIdbuQFV57JMzmIUT6/w3pzFnjKsO94XV/JiPOtoY6OjLK7SJS6eURbUAZRG30LfDIDVlBlrLTc12QweUXy+cGQDPLs8yIsLEZkVYztyMd94ZP/RGtnnOKS6a/dwB+JulHVZFtgNLIis8H2WYpTOoiE0AoMh50QQTDGKT+v0ZW+I8gC4F0dJbrIWNLq2rBZLlYYyCj3A4jbaU0Ihy6A7ViocxwEche5N4+mFfqI2NOBLKl8zQyScVZ7r8EWURmXUjqM+X1PHAL2ULQsI0RqWeA3wEv4nEiGh+kPB8GugErEEHAYPUuuSCvRoDp0rwBEQj6WTJkRhrGSiTGsjeoGjBUsJGmYR0nRC0PGWUXg+wXxVn0//bcBjBlek4FZDB/ExE89MBfyF5kIzLaRFbK2zE/DxIeyICgIHWgB/ZY0s5x76RaWKRZfhsRNfVoZFWvIG11PbId4I71dmlA3lPbBswdrkgfTG8bAGFV4OqLoqq/bqfnKGTUsRtSx+9Zfpstad8igoIe6/XogixKtDrOHaUAd3Qo6DCToVmJR7Svt7l/gZ1r8rIFcB1Z9dVB9oNWIhJeZUu6HlFXByCCwaVM303J9HddZAWZlZ6BgYFLPD09E8zmkisfODk5sXfvXuONGzeyC9+pkFFu5ZGBNZaMyjfjGAOgZKSRNUfU0juRCX+K5dk6RI0bjah+L1jyonDv5FQflQHJ398/tnHjxjFpaWnWkksEBoOBq1evljp06NBTSBxyW2QWogKAXZkkdB2yHQNF4/TORUTA9wauIXvUcYiWCDJisndAFge/W/6vkNFeXSzfv2Xl/pM7duz4houLS7KilNy5w2g0GjZt2nQSsZewReZ+7kOG/RVI20gzQlqctI18TwwWLiI2AB7AFWTvvwr3tr8bwFOWv7dafmeu4/KI8GBN/b+ia9euTwCpJbWOdTodZrPZacuWLeuR7VBbpBtVgmj4blKWVDLqM4WMxYBd6jgvAkAaYsgzGpkYdMie1Dqk06erns5Y0tIFAxfEcOQiok5KQmLJZ8V9yZIl5evVq1fiV44TJkxg1qxZ2V3mTcZ+TxNk6yVdCDNgXQVvL1YjxlyvIx26NjJJJSH1qbfkYSuyz6cgbaot0pBdEO3AO9ZuPm7cuNKvv/56aTvmt0iye/duHn/8cZdsLtMhAvMjSJ2XBf4wSRk7kXHaAu6v88IgCViD7EufRVb5DyP5NJIxDqxEDAV3Wj6XA4YjwmU1y3fPWrl/+W+//baih4eHo/JfZNDpdDnZy023/0hF2shXSB9LbwvOZtDFW/62U9b+QeyNghGbjnJIHX9CxvjjBGxAhICtyBhQzZLXWEu+9yD1nZXKP/zwQ2Ur/y9RKIqCXq+vlINLWyBCgjOy8HoL6IkJJzLKWse982y+yKsR4GFgJtDOkpkpyF5PeaQxgKwOxyNbBAD/BzS2XH8RERisLfGV1FQ1bXLJIgcr3zTEKMQbqfgfyJCytyBCwVdYOperlLk9rYCjkAG+D6Jy3Apst6T9nyV/LshE8Jfl2X8ig4A7kp9pyCrhPkryyj8zlvac3RJnMWL5r0PKaxaAQQb5zfInsZZrlyOr7sJmAzJ5P4oY9w1DJvp9ZOwBxyCCTarlZzZizKoD9iLt2BoPzDhA9ts54YhRrScywS9BytgArEX26FeVglYN5e9vcnDPnLIUqd/GyLHOPoim5yekzjtb8tcLaZ8JSB1XsuR1PRlbV1kpuSreTFjacXbvegQ54VWWjHH/KrdwoQsb+IOLSH8zIQvvs9hhWyU/fgDCEGOEzESTYZmYfiY0/dz4YcuPRu5QGyDPW37/qz413rvFYi8UZILPSnpd6pFOf8Ty+QqiOdDIHSctP/eglw5/Ocu/i9LZ+az5NnL/kcVzmf7eYfnRyDnxyFG6rJjIGF9jnEXAuovYAdiTA9zvtyV9/EnXAmbW4ljb2tWwzU3EnuJeEjEQzCneJAHRqkNG/VbM70MLW42oYUcU+6r/c0NhPfdBQCtbjRyhZNjmaJQk4lSt/fNd15oAoKGhoaGh8QBSFAUAR6ixiyQ6nSasP0A40lVrSeSBMQDgAdkLt0JROMpaUBRJg6f82ADkh0GIRXnWhp8GNNXrHSuXXLp0ievXrxMTE0NKSgpmszndUhODwYCbmxvlypUjICAAR1ohW46+TCTDYCozLoi3xEsOy4DjaYIYgGUV6hRAcXQ9R0VFcfnyZWJiYkhMTCQtLQ1FUdDpdBgMBpydnSlXrhze3t74+fk5LB8GgwHE8v0p7nfeYUAsrTfw4DEB62fEU4C2jmwfZrOZCxcucO3aNeLj40lNTb1nHHBycsLNzY2KFSsSEBCAm5u1Lmo3vJGTMq5W0lyBSRRfAXI2GcdXM5MM1HPkg1NSUrhw4QKRkZEkJCT8W8cgfTK9jr29valRowZOTnYxrL8PSztugrjDt3ZCwwnxtljgFJYAMPjatWttsp79NBgMHDp0CJPJ/oLhzZs3Wb9+PX///Tc3b96kevXqPProo9SoUYOKFStiNBpJSEggPDycU6dO8ffffxMbG4u/vz8tWrTg2WeftXueTCYTN2/enJ7V2tlgMLBr1y6ee+65LRRvAaDpr7/++mbDhg3J6tPBbDazYkVWG1L7sHbtWo4ePcqFCxeoWLEiDRs2pFGjRlSpUgV3d3eSk5OJiori3LlzbNu2jStXruDr60vDhg3p1asXZcuWzf4huSA1NZU9e/YMrFmz5j3loNPpiIuLo1atWqt4AAWAZ5999p3FixeXytr+jUYj69atu6/N2IOLFy+yfv16zp49S0xMDA0aNKBx48ZUr16dihUrotPpiI2N5dKlSxw5coRjx8Qzc7Vq1ejatSuPPfaY3fM0dOjQSjNnzvzAWjmsXLmScePGTaOYCgBvvvnmuODgYLK+m5OTE9OnT3fIM0+cOMG3337LlStXSEpKomnTptSvX/+eBV10dDSXL19m//79HDlyhFKlSuHv789zzz1HvXr2lUsURWHy5Mn1R44c+X7Wk09OTk5MnTqVBQsWPFACQLKXl3X/N5UrV7Zbx4+Pj+fUqVPMnz+fKlWq0KpVK2bNmkXp0upHz2vVqkX79u3//XzmzBl27dpFjx49aN++Pd26daNGjRp2yZ/ZbKZiReuGnJb/F3fVoKly5cpUqVLFaqI9jwGePn2a77//nuPHj/Pkk08ydOhQatasqXp9jRo1aNGiBf369QNEW/Dbb78xadIkzGYzQ4YMoV69eri6WluU5Q6z2YyXl5fVckhISIAHaNsrM2XKlEmqWLGiVdfVFStWxF7OYWJiYjh69CjTp0+nZcuWtGnThjfeeMPmiq9u3bo8+eST/34+evQo27dvZ/r06Tz33HN06dKFSpVycrQ7e0qXLq06DpQvXx6KsRc9Dw+P7N7NLty6dYudO3eyZMkSWrVqRZcuXWjevDlqWiRfX18aNWrE008/DchibP/+/axbt459+/YxfPhwAgMD8fT0zHfeFEWhfPnyqu2lTJky+X5GXiksAUAVe3X648ePs2zZMgICApgwYQK1a9dOV8Xmijp16lCnTh2effZZTp8+zbRp02jdujW9evVyaMWVFM9Yau9hr/e7desW69at48SJEwwYMIDhw4fnaQVfsWJFnn/+eXr27MmJEyfYtm0ba9euZejQoQQE5D+UgZpQW5K9XWaHrXe3V7n8/PPPfPvtt7Rp04YvvvgCf3//PN2nadOmNG3alP79+3P69GmCgoJ44YUX6NWrl+okk1Ns9YXiPg4URB1v2LCBdevWMWDAAL744gt8fHxyfQ+DwUBgYCCBgYFcuXKFw4cPM3r0aHr16kX37t3znceiWsdFTgDIL3Fxcaxdu5YdO3YwZcoU/P397WJsV6FCBf7zn//QrFkztmzZwqBBg5g8eTIPP/ywHXKtkRd27NjBvHnzCAoKYujQoRiN+W/ORqORpk2b0rhxY86ePcvYsWN54YUX6NGjBy4u2TmJiWVQAAAgAElEQVTz0ygqREVFsXTpUuLi4pgyZQpVq9on3pCXlxdeXl40adKEDRs2MGTIEKZMmUL16tXtcn+NnHP16lXmzp2Ln58fISEhdtPI+Pn54efnR6tWrVixYgXvvPMOI0eORE1rXZwpiqcA8kxUVBQvvfQSOp2Or776iho1atjd0t7V1ZUePXoQEhLCkiVLWLlypUNsFjTUSU5O5rPPPmPbtm0sXLiQJ554wi6Tf2b0ej1169Zl7dq13Lp1i/Hjx3Pnzh27PkPDMZw8eZLhw4dTq1Ytpk2bZrfJPzPly5dn8ODBjB07luDgYLZsUfPXpeEIdu7cyZgxY3jmmWcYNWqU3Sb/zFSuXJnx48fTvn17Ro0axZ49ag4Niy+OFABs6TXsrvO4du0azzzzDO+99x6DBg1y+BE7Pz8/ZsyYQXR0NB9//LGjHpMryUJfeHuFavl0iGQ0bdo03N3dmTx5MpUrO9aVuIuLC8OGDaNPnz4EBQURHZ3vENzWKNC+4mBy3PEc0UdPnTpFcHAwM2bMoGfPnna/f1YaNWrEvHnz2L59Oxs2OMyOM0f9SC82QyV+NbJr1y4WL17M7Nmzad26tcOf17FjRz766CNmz57NwYMHHf68ezA41g7MkVsAboA/4hM+M/GIX3m7cfXqVV599VXWrl2b4/2f5ORkkpKSMJlM9+zBZD4ClJ3NgIeHB2+88QZr1qxh9uzZjB8/Pl/vcQ8yNgagcIOc1VN8sjuuJBDAvXHlbXEXHRHkb5JJRfyEp3Dv4J8CVLPnIK8oCsHBwXTq1IknnngiR99JS0v79whgVgt8o9GIq6srzs62Y6cYDAYef/xxKlWqRP/+/VmzZo3dTgpYyscThRrcfxw0PqU0rsRRCzsF/7DCHXRctfM9a5N9m71rMpnyHc88M0ePHmXq1KmsX78+x8abCQkJ9xwFTsdgMGA0GilVqlS2goqXlxezZ89m2rRpmEwmevXqla/3yIzl2Q1QiMX2gi3xjjdl/75GPSR0d04Xd7GW+i8WgsOvv/7K6tWrWblyZY6/k/WYJ0i5po/1pUpZtUO9h+rVq7N+/Xp69erFqFGj7Cp46PQ6AB8Usp45T2EBVXmcf+z2sCw4UgBYDUzlfkv2FEQwsAvR0dGMGDGCuXPn5mjyP3fuHOfPn2fnzp1ERkYSEBBA1apVcXZ25u7du1y8eJHIyEiaNWtGy5YtqVevXrbGfn379iUkJISvvvqKgQMH5tsoCCxnR2vRhxBak6bqCjKD0qTEeFKF+bxNSrb1qnCH8lzAFYV+6MjPsnYWEjAo6wBiAmrZSwBITU1l/vz5PProozma/KOjozl16hT79u3j2LFj+Pn5Ua1aNcqUKUNiYiIRERFcvHiR6tWrExgYSN26dalWrZrNe9apU4cZM2YwevRoQkJC7GIEaimfRnzOBBKzTPKlSYkujzchvJWjNpCrB2MmEi/CSEUCudjrSEYIcm49uwklKTU1NeviIM9cuHCBDz74gMWLF+do8j9x4gT//PMPP//8MyaTiRo1alC1alV0Oh3R0dGcO3eO2NhY2rZt++8xsuwExcmTJ/P2229TpkyZHAuo2aEz6GAgb/AJqZhtaFfcSL3sSe2XJvIalUi0ea2gkEApzlCBvxhMc8LskmEHsnfvXjZs2MDnn3+e7bWKonD8+HFOnz7N1q1bcXd356GHHvp3qyAyMpJ//vmHxMREnn76aWrVqkXjxo2zve/y5csZPXo0pUuXtp/9lx74gEnMyeIHQkGHgduULnkxdLYoKhw8eFA5fPiwWvI9JCcnK1OmTFG2bFG93b/cunVLmTdvntK5c2dl69atSlhYmHLr1i0lOTn5nuvi4uKUa9euKWFhYcrkyZOV/v37K+vWrcv2/nfv3lVef/11Zf/+/TnKu6IoyqhRo1TT/vjjDwXI1aHjabkLtlSJLsxGIf/nXNTpfezYMavvZzablffffz/HZfXzzz8rEydOVFJSUrK9dtWqVUrPnj2VTz/9VAkLC1OuX7+uJCQk3HNNUlKSEhUVpYSFhSnr169XOnXqpCxatEiJj4/P9v7Lly9XPvvsMyUtLS1Hef/ll1+U8+fPW02LjY1VkMiKVpkhURYdRQ26MhfFYdoFmwwYMOCmWpmtXr1auXHjRo7KNy4uThk4cKBy5MiRbK+9dOmSMnXqVKVXr17Knj17lPDwcCU6OvqedmUymZSYmBjl6tWrypkzZ5TXXntNCQoKUvbu3Zvt/SMiIpSuXbsqEREROcq7otgeB5YuXZoeYjtblsF3CvetIm3hZhkDbEu+tumDhIa3yrRp01Tf7b333stxGUVHRyvt27dX7UeZOXHihDJy5Ejl5ZdfVo4dO6ZEREQod+7cuae/pqamKnfu3FEiIiKUQ4cOKS+++KIyfvx4JTQ0NNv7nz59WunatasSExOTo7wnJycrc+bMUU1/++2386SBVaDSIutBonJMYRkB2mU1s3PnTpydne85r5uVtLQ0Nm7cyAsvvED9+vXZtm0bTzzxBH5+fnh6et4n1ZcqVQovLy/8/Px4//33+eyzz4iKiqJ///6cPWstbLlQpkwZ3nrrLV5//XWSk+3msyNXh9BNuSlXBTeMdl5V3o9dzOajo6P56KOPGDNmjM2z2ydOnKBbt26YTCZWrlzJqFGj8PPzo0qVKvd5cnNxcaFChQr4+fnRo0cPfv75Z/z8/Gjfvj07duywadjZv39/wsLCOHzYboK56gCfqzrNLQpuGArPEFhRFLuoh/73v//RpUsXmjZtqnpNYmIiCxYsYOLEiXTv3p1169bRqlUrfHx8KFeu3D3tSq/XU7ZsWby9valduzaff/45U6dOZdOmTbz11luEh4erPqdq1arMmjWLiRMn2tPPRY7cEKZKO8q5y0L7jAE6HOzm1mw2M3PmTGbMmGHzSG5UVBQffPABISEhjB8/nmXLltG4cWOqVq2Kh4fHPVu6RqMRDw8PqlatyiOPPMKKFSsYNmwYH3/8MR9++KFNW586deowbtw4QkJCiv0xzWJ7CiA6Opply5YRFBSkek1SUhIhISGEhoayevVq/vvf/+b6OR4eHgwbNoxhw4bxwQcfsHv3btVrfX19mTlzJvPnz8/1czTU+fDDD5kxY4aqQxGAzZs3ExISwrRp0xg4cCDu7rnXLnfp0oVNmzbx448/snTpUlUhwGAw8PrrrzNp0qT7PJxpFCyhoaGcOnXKpsFfdHQ0kyZNokyZMixevNimoKCGl5cXM2bMoF27dgwfPpxLly6pXtuwYUMee+wxfvzxx1w/pxgSCzwLfAzMBT4BPkW2gj7Ki++VrOzatQt3d3datmypes3Vq1cZO3Ys9evXZ+HChdlu51kjICCARYsWUaNGDd58800iI9WjKrdv357k5GT279+f6+cUJYqtALBy5Up69+5NhQoVVK+ZOnUqlSpVYsyYMfn26NS6dWs+/PBDQkJCbFqCdujQgZ07d9rUFmjknEOHDnHr1i1atGihes3vv//Opk2bmDFjRp4G98xUqVKFd999l+TkZObOnat6na+vL71792b9+vX5ep5G/pg7dy79+/dX1QzFxcURHBzME088waBBg/IkGGbmqaeeYt68efTp04cLFy6oXterVy9Wr17NrVu38vW8YsAOJI7B90g8+7XAN4gN2PL8OvtJSkpiyZIlDBw4UPWaa9eu8corrzB+/Hh69uyZJ4dv6Tg5OfH8888TFBTEiBEjuHnzpuq1L774IosWLbKrR9OCplgKAFeuXOHQoUP06NHDarqiKISEhFC3bl0GDhxoNwcu3t7eLFmyhGnTpvH3339bvUan0zFr1iw2btxYrBtGUSAxMZHvvvuOKVOmqF6zd+9ePv30UxYtWmRX16wjR47EYDCwatUq1euGDh3K8uXLuXHjhl2eq5E7Tp48ibe3N82bN7eabjabGT16NC+88AKdO3e223P9/f35+uuvCQ4O5tq1a1avqVSpEi+//DJbt26123OLKHHAfmA3sAfYa/nZB5zMr4p8586ddO7cWdX9+t27d3njjTeYPn16joz4ckqLFi148803GT58OImJ1mIZyVZAYGAge/futdtzC5rCEgBUn5uTiEwHDhywqfI7fvw4R48e5YUXXshb7mxQtmxZJk+ezLx581Sv8fX15cKFC9naAtiykLe3Y5vCQq0+c3I64M6dOyiKoqr6T0hIYNGiRcyaNStfUr8a6UdL//lH/RROuovo7FArB4sNSrEUxPOLwWDI1ziwfv161UUAwLZt2wgICKBdu3Z5yp8tHnroIV566SUWLVqkek3Dhg358ssvs72Xrb5e3McBW/nP7lQFSGCvVq1aqaavWbOGbt260aRJkzzlzxbNmzenU6dOfPfdd6rXtG3blm+//Tbbe9lqz4VZx4X15NjBgwcnkCXmt16vV3bs2OG8YcMGVT1ddHQ027ZtY/bs2VbT7969y6effsr06dNz1MDyQosWLThx4gRr167l+eefvy+9bNmydOzYkZ9++onevXur3sdoNPLSSy9F67OcG9Tr9Vy+fLk0xeRsrg1Sg4OD07y8vOKzqgITEhKUVq1albP15e+++44nn3xSVYOzePFievfubffoXemUKlWKjz76iJCQEGbPnm21PXXp0oV58+bRvHlzVfWyi4sLffr0iWvQoIEpqy+C5ORkF8Q3xgPHTz/9FP3KK68YTSbTPY3DYDAoS5Yscbt9+7aq6i4sLIwDBw4wefJk1fQ5c+awbds2hwiHAN26dWPPnj3s3bvX6iTl4+NDu3bt+Ouvv1S1FACffPKJ+e7duzFpaWn3jAMGg4GjR486Lh55AbBixQouXLgQk1UbajQalcWLF5eeOHGi6hx06tQpypQpo2r49/fff7Nv3z6WLVtm30xb0Ov1BAUF0bt3b5o3b07dunXvu6ZOnTokJydz9uxZateurXqfN954I/X48ePxJpPpnpWPwWDQ7dixQ/MxnokeakfHFEVRzp8/r0ydOlVJTU21mv7nn38qS5cuVcxmc46OaOSVO3fuKP3791fi4uKspp8/f14ZPHiwzXuMHz/eriakU+BYji9WqEZ3PnHwMUCbfPLJJzbLp2PHjkp4eLjVtJiYGKVfv36q5W8vUlNTlVmzZiknT560mh4fH6+MHTtWuXlT9USb8vvvvyvAI3kpo2lwxM7FnoFCfbrzaWEdA8yG6dmV6RdffKGavmbNGmXbtm05r+g8cuXKFWXMmDH3HSdO56+//lJmzJhh8x7AUXsU2P/BRgVy7rBewdMyBuTnGGB+2GirXL766ivl559/tpqWmpqqfPzxx8rx48dzWFN55+DBgzaP/W7cuFFZu3at6veTk5MVQH0vMY8U52OAtrBppfPPP//Qpk0bVbXJjBkzCAwMdLgrYA8PD5o1a8auXbuspgcEBPzrXEgj90RHR9OgQQNV506bN2+ma9euOfLilR+MRiMdOnTg//7P+lF9d3d3AgMDbRqEWVCPQa1hDdUjsGazmfPnz9OhQwer6QkJCaxfv75AAnX5+vqSlJTEuXPnrKY3a9aMU6dOkZSUZOs2jj6OW1RRFTxTU1M5d+4cjz1m3RXK9evXCQ0NVV1125N69eqxf/9+oqKirKYHBgZy/vz57Gy+HKOOzidFUQCwyY8//qi6JxwZGUnDhg2tqmocwcsvv8yBAwdISbEezr1q1aocO5bzRblGBrt371atx8TERHbv3k3fvn0LJC8tWrQgLS2N27dvW02vUqWKFgymAImLi2Pfvn2q7phPnz7NM88845AAMdYYMWIER46oK2ri4uK4fPlygeSlpHD9+nUuXLiguq129OhRXn755QKJ0FmqVClefPFFjh8/rpp+6tQpVQGhKFPsBIDw8HA8PKxvi+3YsYMGDRoUWF6cnZ05d+6c6lGfevXqERERUWD5KUn8888/qgJAeHg4d+/etYvL5Zzi7+/PoUOHrKZVrlxZdQWoYX9SUlJwcXFRHfy3bNnikAiAapQpU4bt27erGv0+8sgjjgoiVWKJj4/H399ftY9v2LCB8uXLF1h+KlSowLp166ymGQwGvL29SUhIKLD82ItiJwCULVtWVQC4cOECDRs2LLC8ODk5ERAQoHpMJCAggNjY2ALLT0ni1q1b+Pv7W02LjY3lkUfytKWeZ5o0aaJ65KtChQrk97yzRs4xmUz4+fmp+vy/fPkyfn5+BZafMmXK4OzsrOo4qkGDBvb0DvpAkJKSQu3atVUFgOjoaJs+YOxN5cqVVT1AGo1GAgICiqVTsGIlACiKgpeXl6rq7/bt29SpU6fA8uPk5ESjRo1U936qVaumdfw8kpCQoLr/n5KSUuACQMOGDYmLi7Oa5unpqSqUatgfs9mMn5+f6ikfg8GAr69vgeXHw8ODgIAAVSGwuE4OhYnJZFJdAIDYXhTUFg/INl+VKlWspun1evz9/YvlIqBYCQDAfT7dM5OWlkbp0gVra+Xp6ala8e7u7sWyURQFzGaz6tlZRVHy7dkxt5QrV051hafT6Rx25FTjfhRFsenRz9nZuUD2htPR6/WUK1dO1S986dKli73P+IJGURSbY3nZsmUddrzTGkaj0Wb0T3d392JZx8VOALA1oTra8t8aJpNJ9blms7lQ8vQgYCtYT2E8rzh2/uKMrfIujLqw1T60RUDesFVuhVGmtp5ZXPt/sRIAdDodMTExqip3V1dXrl+/XmD5URSFK1eu2NynKkgptSTh5OSkaj9hMBgICyvY8OURERGqq/yUlBTi4x9IXz6Fgk6n4/bt26qDblJSEnfu3Cmw/CQnJ3Pt2jVVYT8qKqpADVZLAnq93mYchcjIyAI1uouPj7cZF+DWrVvFcrFX7FrlzZs3VSeGChUqFKg1dmpqKqGhoao+CcLDwwtUFVmScHd35+rVq1bTnJ2dC/x45enTp1VVgNHR0cXSAri4otfriYiIULWvMRgMqm3HEcTGxhIWFqY6yV+4cCFHro01MjAYDDaPTkZFRakey3UEtuYdk8lEWFhYsVzsFTsBICUlRfVITePGjW2ex7U3qampREZGqk4MoaGhBb5XXVLw9vZWjajo6empeibXURw6dEjVJemNGzfyHWVOI+cYjUbCwsJUnes0bdq0QM/dx8bGUr58edVJ/vDhw1r7yCWurq6cPHnS5smKgjx3HxkZqRqRNC0tjTNnzhRLO6BiJwA0bdqUmJgYq2lt2rThyJEjqo557E1ERAQtW7ZUdUx0+vRpatasWSB5KWk0bNhQNciOn58f9evXL7AofElJSVy7do1mzZpZTb9586bNcMUa9sXV1RUPDw9VDcBTTz3FmTNnCmyf+OLFizz11FOqAsCpU6eoXLlygeSlpODh4UF0dLRqHfbo0cNmkC57c/78eZ577jmraSaTieTkZNXTaUWZoigA2Oy1HTt2VD2PnX4W99SpUw7JWFa+/PJL6tevbzUtLS2N6OjoAvVLUJJ49NFHOXv2rNUBQKfT0bx5c7755psCycu+ffvw8fFR3eqJiIhQdUubCc0SLHeollepUqVo1aqVqgBYqVIl9u3bV2AC4meffaYarjY5ORl/f3+qVbPpbr94WpDlH9X3rly5Mo0aNVLV9vr6+rJmzZrsXCzbhdjYWDZu3KjqXOr27ds8/PDD2Wl7i2T/LywBwAeoBTyU5aca4G3ri1WqVGHDhg2qq/wPPviAtWvXOlwLcPbsWe7evUubNm2sph8+fJjSpUvnZF+oEveXw0NAbWz4Qy8mlEHeI+u7BQA1swuHfOPGDc6cOWM1vXv37vzxxx9cuXLF7pnOTFxcHGvWrGHMmDFW0+/cucMvv/yiqgWCf0+nVAP8ub8sagEP6vKwJtbbvg/gaat9+Pn5sXLlSqtpbm5ujBo1irVr19o9w1nZvXs3bdu2pVatWlbTt27dmpOYBC5IEB9rZVEHKH7WZRnUwfp7eQM2A3nUrl2bTZs2WU3z9vamd+/ebNu2zb65tcIPP/zAiy++qNrH169fr7o9CP/2/zJAVdTH+kKhsMIBr92wYUNgVitevV7PiRMnbFpTenl54ePjw61bt/D2vl9W8PLyonTp0hw6dMhmHOn8kJKSwldffcUrr7yies3x48fp16+fzfuYzWa+//77G1lXuXq9nuPHj/Puu+92BLbbI8+FRK+5c+cuq1mz5n0reZPJlO0+7fDhwzl79qxquN/hw4fz3XffMXLkSIcZ4OzcuZOmTZuqqveuXbvGY489lq0joJCQkK+rVat2j+W6TqcjMTGRfv36rQFesGe+iwMtW7YMnThxonPWUz0Gg4GffvrJ5jjQoEEDQkJCSEtLs6qZadCgAQsWLCA8PNxhToFiY2OZN28ec+fOtZquKArbt29n4sSJNu/TuXPn2q+//vo1a+WwdetWFi5cWA6wvu9ZxOnbt+/pfv363Xdyy2g08umnn9r8buvWrZk4cSKDBw+2amDZvn17XnvtNdq0aeMwt8C3bt1i3bp1LF682Gq6yWTi2LFjDBgwQPUeOp2OZ599tsvgwYMjrJXDsmXL+P777wtFyCssASD+2WeftZpQrVo1m1GVXFxcaNasGRs2bGD48OH3pTs7O9OvXz+CgoL45ptvHNIwtm3bhpubG02bNrWaHhUVxbZt23jhBdtjuslk4plnnrGaZnFzaTO8VDEg9YknnlDdJpk2bZrNLzdp0oS33nqLTp06WTWiat26NVu3bmXXrl20bdvWLhnOzLVr15g7dy5ff/21qoX3ihUr6Natm00BJDU1lWeeeYbq1avfl2ZRYT6QRwhq164d261bN6v+XFNSUmyerS9TpgzNmzfnt99+o3Pnzvelly1bluDgYCZNmsTnn39udyM8s9nMqlWr6NKli6rHynPnzvH333/j5WU7Qm+DBg3o1q2b1bTo6GgWLlxYJNXHOaFx48aq75bdSZ6KFStiMBg4evSoVc+flSpVYujQocyfP58JEybY/aRFSkoKH330EW+88Yaq2+GDBw/i6elpU/1vNptp166dajns37+f77/PV1TfPFPkbABy4uClc+fO7NmzR3V/yN/fn6lTpxIcHGz3IByHDx9m9erVjBw5UvWa/fv3069fv3yFqi1oRzeOQk2Yy4njjCpVqtC6dWvVgcLZ2Znx48fz7rvv2t0g6MaNG7z66qvMmzdP1QXozZs3bVoHZ0atHLIJIVqisdXGc1Iur7zyCitWrFA9gtm0aVP++9//Mn/+fNV4HXllw4YNXL16VVXLpygKv//+Ox999FG297JlrFjcx4H81vG4ceP46aefVF0pP/nkk7i7u7Nq1Sq7Gn2mpaXx5Zdf4uPjQ7t27axek5KSwqZNm3jjjTeyvZ+tcijMOi5yAkBOcHFxoV+/fjaNwFq1akXXrl2ZOXOm3ZwD7d69m1mzZvHJJ59Qrlw5q9ckJCSwaNEih20/PEjodDo6duzInDlzVAeAKlWqsGrVKkaMGKEarS+3XLhwgalTpzJq1ChV7YXZbGbBggW8+uqr2hnvQqJs2bK0aNGCP//8U/Wa/v374+Hhwfz58+3iqyEtLY2ffvqJ33//neDgYNW6v3jxIqGhoartRyNn+Pv7k5qayokTJ1SvGTFiBJcvX2bNmjV2ib2SlJTEihUriI6O5tVXX1W9Lv14Z0HGnbA3xVIAAOjQoQO//fYbly5dUr2mR48edOrUiddee81mA8oJc+fOZdmyZTZXhCAq4QEDBmSr9tPIGf7+/rRv317VGAjEIOyzzz5jzpw5rFixIl/PO3DgACNGjGDAgAH897//Vb3uxIkTnDlzhsceeyxfz9PIH8899xyLFy9WDdSk1+sJCgqiatWqjBgxIl9Go4mJiUybNo0tW7Ywd+5cm8e+5syZQ+/evfOlBdSQPfJevXrx/vvvq17j5ubGpEmTuHTpEu+8806+tL43b97krbfe4u7duwQHB6s6clMUhY8++ohevXoVSw+A6RRbAcDV1ZUPP/yQ0aNH23TD2qlTJ0JCQliyZAnvvPMOFy9ezPEJgaioKHbs2EGXLl2oUaMGCxcutDmx//HHHxw6dIg+ffrk+n001BkxYgTffPONzRV+QEAAS5cuRVEU+vTpw969e3PsDjYpKYnQ0FDGjh3Lhg0bWLVqlU0NTmRkJFOmTGHBggW5fhcN++Lr68vYsWN55513VFXAer2eAQMGMGrUKCZNmsSCBQuIiIjIscr4+vXr/PDDD/To0YO2bdsyf/58m05fVq1aRaNGjfjPf/6Tp3fSuJdGjRoxYMAAQkJCVLcOjUYjEydOpGfPngwYMIB169apHhe3xtWrV1m1ahVBQUH069eP0aNHq9r1KIrChx9+yJAhQ6hbt26e3qmoUFhGgHbB39+fnj17snz5cqsGgelUq1aNWbNmce7cOWbOnImPjw8NGzYkICAAPz+/fw08UlNTuXr1KhcuXCAyMpJNmzbRuXNnQkJCVI/5pBMZGckXX3zBBx98YM9XzJXOUoHcmMLrSMWEDutLJ/tgt43XSZMm8fHHH7Nw4ULVKGFubm4MGjSIli1bsn37dpYuXUqnTp3w8vLioYceokqVKhiNRhRFISoqisuXL3Pp0iUOHTqEoigMGTKEOnXqqJ73T+ezzz7j5Zdftnn0L5fYihXruOVFKjpSMKGz+XyHoUNnl03bxx57jF9//ZUtW7bQtWtX1euaNm3K/PnzOXXqFOPGjaNFixbUqVMHf39/fH19/93WS0pKIiwsjMuXL3PlyhW2bt1Kv379+PLLL62ePMrMqVOn+P777/nyyy/t8WqOJw2zg8cAu9C9e3cGDx7MwYMHefTRR1WvCwwMZPny5Rw6dIjRo0fTrl07atasSfXq1fH19f137IiNjSU8PJzLly9z7tw5du3aRVBQEEuXLs3We+vu3bsJCwtj3Lhxdn3HwqBYCwA6nY6BAwcyYcIEtmzZwlNPPaV6raurK40aNWLBggVER0eza9cuvrCqkNMAABF+SURBVPzyS5KTk3FyckKv15OWlobZbMbX15cOHTqwZMkS3NzccqTiee2113jrrbfs5vnPaDDQD9Y1gAQlB5OAGYyV4KccP6A5KTSnAa9wEr0DThvoMbOFcgajfY7nNW7cmIEDB/Luu++qHrtKp06dOtSqVYv4+HgOHz7MH3/8wf/+9z+MRiNGoxGTyURqaiply5albdu2jBs3Dg8Pjxzt5X/99ddUqlRJ1aI3txgMBryg72h4PO1+AU6XDI5zav8+SVSjOUGcRUfBWiKZSUtITLCLBGUwGHjzzTcZPHgwvr6+NGnSRPXasmXL0rJlS5YvX87NmzfZsmULP//8MykpKTg7O6PT6UhNTUWn0+Hv70+XLl3o168frq7Zu+SIiYkhODiYefPm2QwdW2TQkcarBDCUgxiwv+OUJFKNLvaZYpycnPj4448ZPnw48+bNs7nvXrFiRZ544gnatm1LREQEGzduZPPmzZhMpn81NykpKRiNRmrWrEnPnj155ZVXclTHFy5cICQkhEWLFmm2P/ngZ0WFgwcPKocPH1ZLtkpaWpoyYcIEZdOmTbn6nj2Ijo5Whg4dquzduzfX3x01apRq2h9//KEAxd2/7HPHjh2z+n5ms1l5//33c11mmzdvViZPnqzExsbm+rv5wWQyKatWrVJmzpyZ6+/+8ssvyvnz562mxcbGKsCiwq6owmBA/wE31Mps9erVyo0bqslWuXPnjtK3b1/l6NGjuasgO3Dt2jWla9euyrlz53L9XVvjwNKlSxXEiUy2/B9sVMShUJFh2rRpqu/23nvv5bqswsPDlbZt2ypXrlzJ9Xfzy6VLl5THH39cuX79eq6+l5ycrMyZM0c1/e23386TJ0gFKi2CfJ0fLLY2AJkxGAy8++677Nmzh+XLl9vFEjQn/PPPP4wcOZJ+/frRsmVLRzyiuEcQcbP3DZ9++mmaN2/O2LFjiYyMtPftrRIfH8+8efO4fv26o9R+D+RSQkGx6/jj4eHBokWLmD59Oj/88EOBxWg/cOAAQ4YMYc6cOTz00EMF8swHFR8fH9asWUPfvn3ZuXNngT33t99+4/nnn2fjxo02jcCLGyVCAABR8c+cOZO7d+8ybNgwh7qITU1NZcuWLUyYMIEJEybQvn17hz1L4366d+9OUFAQQ4cOZefOnQ49S3/mzBmGDBmCt7c348aN09R+RRwPDw9WrFjBkSNHeP3111VPB9iDlJQUli1bxrJly/jiiy+oU6eOw56lkYGXlxcbN25k06ZNfPjhhw5d8CUlJfHee+/xyy+/sG3bthIX3bXECADpjBw5kjFjxvDOO+/w3Xff2d0RUGhoKO+99x5nz55l4cKF2jnfQqJ58+YsWrSI3bt3M3PmTJvHQfPCzZs3WbVqFZ988gnvvfeedrKjGOHq6sqECRN48cUXGTRoEFu2bLG7I6Ddu3czZswYXF1d+eSTT1S9AeYXvRik5kiKcSr+nkNzTIUKFZg+fTqNGjUiKCiI33//3e6OgLZv387gwYNp06YNU6dOVfX9kl/02Rgd2yCOfM7hxdoIUI3GjRszb948Nm/ezKBBg+jTpw89e/bEzS3vGunQ0FDWrVvHX3/9xfTp06lfv77D/M9r5AwfHx/GjRvHyZMnef755+nZsyd9+/bF398/z/eMi4tjxYoVbN68maCgIObMmaOd5S6GGI1GWrZsybx581i3bh0rV65k0KBBdOzYMV/99uDBg3z77bfEx8czatQoate2fxyX8L//Zsvy5Zj0ei4fOcJUOG60RJNTLBH0dKBk/lsH5kPg97LtEyUlChcXF7p06ULdunVZtmwZ3333HX379uXxxx/P13137NjB//73P3x8fJgxY0a+xhM1zv35J1vWrsXF3Z24bduYCYdNlvk4c91m/Wz5Gz0oU8DZC3blJx9FTgCw16Rarlw5XnzxRZ5//nm+/fZbhg0bBoi1frVq1XB2dqZUqVK4uLjc4+c9NTWVxMREkpKSiI+P588//+Trr7+mVatWdO/enXfffdcu+cuOkiJcqL2HvZxnODs78/DDD3PgwAH27NnDokWLOHnyJAMGDKBVq1a4urri6uqKu7v7Pcf7zGYziYmJJCYmkpKSQmhoKEuXLsXNzY1nnnmGzZs3Z3scMDeo3cuezyhu2Grj9ioXHx8fRo8ezd27d1m6dClLly6levXqDBgwgMqVK+Pq6oqbmxsuLi73tMnk5GSSkpJISkr6N+LjDz/8QNu2bRkyZIhdJ/6scSZ8GzXildmzAVixciWDfv31EXI4sX9mt1zZh4Ko45o1a/LBBx8QHh7O6tWrmTFjBu3atePpp5/G09Pz3zEgq5V/ev0mJiZy+/ZtNmzYwIEDB2jTpg3vv/++Xff6s5ZDrdatqdW6NQCTXV2ZcOzY/cEOCoDCGn1KWTPSSY8G2KVLF7s9yMXFhf79+9OrVy9OnTrF1atX2bhxI1evXsXX1xcfHx88PT0xGo0kJiZy/fp1Ll++TFxcHI8++igNGzZk/vz5DpH006OeZfUFrdfr0/3fF/fZwWn79u1cunTJajTA/GhkrBEYGEhgYCChoaHcuHGDdevWceLECUqXLk3NmjWpVKkSbm5upKSkcPv2bcLCwoiMjMTPz4/WrVvz1ltv0bBhQ7sLX05OTvz444+oRQOk+Bt75olz586V2bJly302HAaDgT/++IMOHTrY7Vlly5ZlzJgxDBkyhNOnT3Pu3DmWL19OTEwMvr6+VK1aFU9PT3Q6HfHx8YSHh3PlyhUURSEwMJAmTZrQs2dP1Zjw+SE0NBRr5WA0Gjl44ABI+yiW0QBPnDih+m62XDjnBV9fX4KDgxk8eDChoaEcPXqUPXv2kJKSgq+vL76+vv8ez4yJiSEiIoLw8HDc3NwIDAykQ4cODB8+3O77/Dqdjj///JPatWtbLYdT+fRSmx8Ky4dhdaA0mdQcFlKAnsePH/+wUaNGDnt4YmIiycnJpKamoijKvz86nQ6dTofBYMDJyYlSpUo5dCUeHBzM7NmzfQFrsWT1wAWKd6Q4D8APi/oyEwpg/vTTT0+PGjXKYQ9PTU0lISGBtLQ0TCbTffWs1+sxGo1WVwf2ZMeOHbRr124QsJf7Lf51QDSOPO9fdKmDdedVicC7UVFRL6lFYbMHCQkJJCcn/+v/I104S28ber0eZ2dnSpcu7VB3rzqd7hzQERkTs2IATnD/WFlcaIx124R4YKWiKK0d+fD4+HiSk5MxmUxW69hgMODi4uLQbb7U1FScnZ23Aq9hXdjXI3Vc4BTWCtNWIPgrjj6+4+bmZvfVZz6IsPyURGKwsXJxdD07OTnh4WFNtipYLO/5D3CukLNS1DhjIy3K0e3D3d3d7mGC80gSEFbYmXAQx22kxTr64aVKlSp0Gx5LO44BLhVqRqxQFE8BFMU8aWjkl5Jh1FFwPEjjQPGNJpM/HqT3LpLtuUhmSkNDQ0NDQ8Ox5HULoD7wX0SCSwbWAzdz8f2HELVXeB6f/yDhjbj3PErGPmBrIMryd6gDn10R6AKUQ1awfwJ/5eL7nkj+T9o/ayUOPdAWsRNIsvyvAWIX4wkcy/T/okIboAkyDtxG3JLmxvNOQyCS3I0dDyq1kXJO3zYxAP9B1Oi3cMwWgh7oDNSy/B0ObCR3/gYeRmyZiqURYwHzMHCDjC1hD8RORo9sH96y9wPzqgHoAjRCOq8BGAPkxlqnFSJEWKU4x1fODTl8z/LAi2T4A/cERiGTgaP30OoDPYHriMDxMtJIc4o3YtxklQelnrMe81LBDDyPTIogwvkgoBrS8Yvi+e4XgKrIoOUDvE7utjo6IUaiVnlQ2kcOqYmMA+n4Aa8iY4CjDIWdkToujdRxY2BYLu/RndzNDSWOHPZ/gKbAc5k+N7N8jkYW2nYnrxqAVGALsMHyeTgiKX4LTAT6A5ssfzcDmgPzgQGACzAQKAWc5n7J1Xjr1i1u3bplV89ORQ0nJycSEnLUb88jq8D6wD6gPfA7MrnWQAxLXkMGCCfgGexrUX4SWGv5+y9kAPgbqe9ZyAD0HKKdGA8EI3XeHpFg30S0FD9nvXFsbCx37twhNbUozm32wWAwcPv2bcjZxLgNmRT/Qgb4NKSPDAVWAJORwfgpRAi37zmq3BODrPr3Wz7PROr+DPAhotFYDMwF+iJC6/fASGTxMBrRZg1BBrnMON28efPfkxslFYtraZccXLoXGVc9EW1LN2S8bY4I5+WRPtkGMbwbAtzNZ/Z0SD19g6zinYEvgCrI4vEzRDvwIfA/RCA5jFi0v4oYvr4DVALGwn0RB51v3LhRogU9nU6X7qo4Jz7EtyB9ZRFSVm2AH5C+/jvwOLJA6A6sA8aRT++P+TkFkPmFziOV3MJyz9rA20BvpOGki0AGZMKaj3R4a2qrv9u3bz+P+xtLSSQnk0IKcArZNtmHCAIrkQnfALgiatdAZPJ9jAzBzB5kFl/DkUG/MjKg/wdRUU1GBv/0a3XIinYZcA0rkz/A5MmTP5s8ebJ9fbQWTVywffIlnb+RPuSClOtpZLBPnyAqIQN7dUQzU9gCgI77x4HSQFdky2oY8DHSNs1kGH05IVsas4A93D/5A/xcr149EyXfva2enAnsMYgauB5wABljFyJaAT0ibF8CXgGmWdJzs12nRuY6TrHkoSJSx0uBX5Hx/ACyCNBZfjsj7fNdYA3Wx/PVVapUOQ4FHIq64DEgglF2XEfGywDgCrL1+iciJIP0/73AG4jQVZl8LvbsdQywPDIReSESI8iqoDby8ulLeRPSQJwt11vjMDkrrAeJPYj0Xwspu6tIIwHRxqTbAYTj2PPCrog6ryLSoWORgd6AnG/NXM+QUc/pg0JWXndgXosjV5EJ3wvRoKwho9z0iBARhUyyRVFtUgl5h4qIMACiQSqHtI30dzEhbcYF9dXvD5YfjQx+RFaBRmSySCNDqIonw9YmEseNA95InXkg7THZ8tuDjDpWkDo2YruOlzooj8WZX4BHkJV+ZtspHXAHWQzqkXEi3+TnFEDmPYlaSMePIqOyHyJD6k93cNE40/8ehBW+vbiCrPqGAbuRsstcd+mrJEec6si8AmuENMJwpB4NgC8y0acCZS3XPURGOzBRfJ2YFDSJlp8xlt9HuFdLZELKXU/ROEKlkGGY6I7YA1xGVvTph6+rIW3DhQyhvz4ZQmJRFGSKKmeAdoityPosaQoZAoE9xwEzGXVcCRHmLiDbC6Utz/NGxiQ3ZNJ3R7Yn0wUCrY5zzjngWeBJZOslM5nr2C79P68aABdkb7cTUtknkT2KckAvRPWbAsxAGsEkZHIob3lmNDKZHSHDml1DnWTgEKLam2v5nxFRzRmRCRjLZ3vGq1WQfcXySJ2nIGrb24h6egUyqIcg2zlpiFR/B1FZxlu+vwc4aMd8lWT2I3ur6Wo/HVL26ds9OjJWz4VNFaRNXkAG/z/JWKGMRvYuI5Gtq4eBCUBdJP8GpH0NRrYL4ws478WROMtPMzK2T52y/ICMB/bwO6EgwvxcxAjQFRE87iB9egRif3QamQPqIHZf+8mYWzwRQ8JZlHxVvz24jPQrMxk2HOn93xkp1/QxId+CXl6lCE9kRapDKvUMGVJiBUTqj0AaDZbPpRG1VTIyUTyEqAkdF8y5ZFEKaRgXkY5ZCmkM6auraDLUcPY6HeCKSPJuSF1fIaNOnZDBPIWMo0llENuE65Z8RSPbQDewvs+rcT9GpAz/QfqWHlGpRyN96zoyEHhQ+MfnfJB9SB2isThLxiBf1ZJ2CZkwdMi2lQ4R+uORxUNlRIAo6Xv99qIi0t/Tj4qVQ/pa+lZrHDI+J2CfY6PVLffTIeNKZm+W/sjC7rzleUZEG5yITF53kPp1Q9qBpgnMGd5If0jv3xWRsi+FlHMyGWOC1m80NDQ0NDQ0NDQ0NDQ0NDQ0NDQ0NDQ0NDQ0NDQ0NDQ0NDQ0NDQ0NDQ0NDQ0NDQ0NDQ0NDQ0NDQ0NDQ0NDQ0NEoI/w9XaB/1zIAqNQAAAABJRU5ErkJggg==;" vertex="1" parent="1">
                    <mxGeometry x="-30" y="-10" width="512" height="563" as="geometry"/>
                </mxCell>
                <mxCell id="6" value="&lt;div&gt;TEJ2O - #5-05&lt;/div&gt;&lt;div&gt;Liya Getachew&lt;/div&gt;&lt;div&gt;Neopixels&lt;/div&gt;" style="text;html=1;align=center;verticalAlign=middle;resizable=0;points=[];autosize=1;strokeColor=none;fillColor=none;" vertex="1" parent="1">
                    <mxGeometry x="-40" y="10" width="100" height="60" as="geometry"/>
                </mxCell>
            </root>
        </mxGraphModel>
    </diagram>
</mxfile>